<?xml version="1.0" encoding="utf-8" standalone="yes"?>
<!DOCTYPE svg PUBLIC "-//W3C//DTD SVG 1.1//EN" "http://www.w3.org/Graphics/SVG/1.1/DTD/svg11.dtd">
<svg style="fill:none;stroke:none;fill-rule:evenodd;clip-rule:evenodd;stroke-linecap:round;stroke-linejoin:round;stroke-miterlimit:1.5;" version="1.1" xmlns="http://www.w3.org/2000/svg" xmlns:xlink="http://www.w3.org/1999/xlink" width="768" height="864" viewBox="0 0 768 864"><style class="text-font-style fontImports" data-font-family="Roboto">@import url(https://fonts.googleapis.com/css2?family=Roboto:wght@400;700&amp;amp;display=block);</style><g id="items" style="isolation: isolate"><g id="blend" style="mix-blend-mode: normal"><g id="g-root-cp_1_text-1_94mw4214vb2f7-fill" data-item-order="-552948" transform="translate(74, 122)"><g id="cp_1_text-1_94mw4214vb2f7-fill-merged" stroke="none" fill="#4c4371" fill-opacity="0.102"><g><path d="M14.59 81.082C8.47 74.962 8.47 65.038 14.59 58.918L58.918 14.59C65.038 8.47 74.962 8.47 81.082 14.59L125.41 58.918C131.53 65.038 131.53 74.962 125.41 81.082L81.082 125.41C74.962 131.53 65.038 131.53 58.918 125.41L14.59 81.082"></path></g></g></g><g id="g-root-cp_2_text-2_8zvv614vb37w-fill" data-item-order="-552938" transform="translate(314, 182)"><g id="cp_2_text-2_8zvv614vb37w-fill-merged" stroke="none" fill="#3b5649" fill-opacity="0.102"><g><path d="M14.59 81.082C8.47 74.962 8.47 65.038 14.59 58.918L58.918 14.59C65.038 8.47 74.962 8.47 81.082 14.59L125.41 58.918C131.53 65.038 131.53 74.962 125.41 81.082L81.082 125.41C74.962 131.53 65.038 131.53 58.918 125.41L14.59 81.082"></path></g></g></g><g id="g-root-cp_3_text-3_1uuafpu14vb3t1-fill" data-item-order="-552928" transform="translate(554, 242)"><g id="cp_3_text-3_1uuafpu14vb3t1-fill-merged" stroke="none" fill="#3e4e69" fill-opacity="0.102"><g><path d="M14.59 81.082C8.47 74.962 8.47 65.038 14.59 58.918L58.918 14.59C65.038 8.47 74.962 8.47 81.082 14.59L125.41 58.918C131.53 65.038 131.53 74.962 125.41 81.082L81.082 125.41C74.962 131.53 65.038 131.53 58.918 125.41L14.59 81.082"></path></g></g></g><g id="g-root-cp_4_text-4_1lynfgy14vb4lq-fill" data-item-order="-552916" transform="translate(74, 470)"><g id="cp_4_text-4_1lynfgy14vb4lq-fill-merged" stroke="none" fill="#344e57" fill-opacity="0.102"><g><path d="M14.59 81.082C8.47 74.962 8.47 65.038 14.59 58.918L58.918 14.59C65.038 8.47 74.962 8.47 81.082 14.59L125.41 58.918C131.53 65.038 131.53 74.962 125.41 81.082L81.082 125.41C74.962 131.53 65.038 131.53 58.918 125.41L14.59 81.082"></path></g></g></g><g id="g-root-cp_5_text-5_1lynfgy14vb4lr-fill" data-item-order="-552906" transform="translate(314, 530)"><g id="cp_5_text-5_1lynfgy14vb4lr-fill-merged" stroke="none" fill="#4b533a" fill-opacity="0.102"><g><path d="M14.59 81.082C8.47 74.962 8.47 65.038 14.59 58.918L58.918 14.59C65.038 8.47 74.962 8.47 81.082 14.59L125.41 58.918C131.53 65.038 131.53 74.962 125.41 81.082L81.082 125.41C74.962 131.53 65.038 131.53 58.918 125.41L14.59 81.082"></path></g></g></g><g id="g-root-cp_6_text-6_1hitxci14vb5e0-fill" data-item-order="-552896" transform="translate(554, 590)"><g id="cp_6_text-6_1hitxci14vb5e0-fill-merged" stroke="none" fill="#5c4938" fill-opacity="0.102"><g><path d="M14.59 81.082C8.47 74.962 8.47 65.038 14.59 58.918L58.918 14.59C65.038 8.47 74.962 8.47 81.082 14.59L125.41 58.918C131.53 65.038 131.53 74.962 125.41 81.082L81.082 125.41C74.962 131.53 65.038 131.53 58.918 125.41L14.59 81.082"></path></g></g></g><g id="g-root-tx_stacklen_1hitxci14vb5e1-fill" data-item-order="0" transform="translate(242, 38)"><g id="tx_stacklen_1hitxci14vb5e1-fill-merged" stroke="none" fill="#f4f4f4" fill-opacity="1"><g><text style="font: bold 25px Roboto, sans-serif; white-space: pre;" transform="translate(142, 28)" font-weight="bold" font-size="25px" font-family="Roboto, sans-serif"><tspan x="-126.06" y="14.5" dominant-baseline="ideographic">StackLens AI Features</tspan></text></g></g></g><g id="g-root-tx_automati_147zw2a14vb3t6-fill" data-item-order="0" transform="translate(44, 266)"><g id="tx_automati_147zw2a14vb3t6-fill-merged" stroke="none" fill="#8769fd" fill-opacity="1"><g><text style="font: 20px Roboto, sans-serif; white-space: pre;" transform="translate(100, 22)" font-size="20px" font-family="Roboto, sans-serif"><tspan x="-87.79" y="11.5" dominant-baseline="ideographic">Automation Targets</tspan></text></g></g></g><g id="g-root-tx_governme_qwjdoy14vb5e3-fill" data-item-order="0" transform="translate(50, 302)"><g id="tx_governme_qwjdoy14vb5e3-fill-merged" stroke="none" fill="#f4f4f4" fill-opacity="1"><g><text style="font: 15px Roboto, sans-serif; white-space: pre;" transform="translate(94, 28)" font-size="15px" font-family="Roboto, sans-serif"><tspan x="-81.62" y="-0.5" dominant-baseline="ideographic">Government support for </tspan><tspan x="-40.09" y="17.5" dominant-baseline="ideographic">automation</tspan></text></g></g></g><g id="g-root-tx_costredu_m7cr9u14vchl0-fill" data-item-order="0" transform="translate(302, 326)"><g id="tx_costredu_m7cr9u14vchl0-fill-merged" stroke="none" fill="#43dd93" fill-opacity="1"><g><text style="font: 20px Roboto, sans-serif; white-space: pre;" transform="translate(82, 22)" font-size="20px" font-family="Roboto, sans-serif"><tspan x="-67.91" y="11.5" dominant-baseline="ideographic">Cost Reduction</tspan></text></g></g></g><g id="g-root-tx_automati_dbpr0y14vcidp-fill" data-item-order="0" transform="translate(302, 362)"><g id="tx_automati_dbpr0y14vcidp-fill-merged" stroke="none" fill="#f4f4f4" fill-opacity="1"><g><text style="font: 15px Roboto, sans-serif; white-space: pre;" transform="translate(82, 28)" font-size="15px" font-family="Roboto, sans-serif"><tspan x="-69.31" y="-0.5" dominant-baseline="ideographic">Automation reduces </tspan><tspan x="-59.67" y="17.5" dominant-baseline="ideographic">operational costs</tspan></text></g></g></g><g id="g-root-tx_realtime_8vw8wi14vcj5y-fill" data-item-order="0" transform="translate(524, 386)"><g id="tx_realtime_8vw8wi14vcj5y-fill-merged" stroke="none" fill="#4f91fc" fill-opacity="1"><g><text style="font: 20px Roboto, sans-serif; white-space: pre;" transform="translate(100, 22)" font-size="20px" font-family="Roboto, sans-serif"><tspan x="-83.96" y="11.5" dominant-baseline="ideographic">Real-Time Updates</tspan></text></g></g></g><g id="g-root-tx_instantv_8vw8wi14vcj5z-fill" data-item-order="0" transform="translate(524, 422)"><g id="tx_instantv_8vw8wi14vcj5z-fill-merged" stroke="none" fill="#f4f4f4" fill-opacity="1"><g><text style="font: 15px Roboto, sans-serif; white-space: pre;" transform="translate(100, 22)" font-size="15px" font-family="Roboto, sans-serif"><tspan x="-83.42" y="8.5" dominant-baseline="ideographic">Instant visibility for users</tspan></text></g></g></g><g id="g-root-tx_aipredic_4g2qs214vcjy8-fill" data-item-order="0" transform="translate(74, 614)"><g id="tx_aipredic_4g2qs214vcjy8-fill-merged" stroke="none" fill="#1ac3fb" fill-opacity="1"><g><text style="font: 20px Roboto, sans-serif; white-space: pre;" transform="translate(70, 22)" font-size="20px" font-family="Roboto, sans-serif"><tspan x="-56.87" y="11.5" dominant-baseline="ideographic">AI Prediction</tspan></text></g></g></g><g id="g-root-tx_mlpipeli_1um69le14vche1-fill" data-item-order="0" transform="translate(62, 650)"><g id="tx_mlpipeli_1um69le14vche1-fill-merged" stroke="none" fill="#f4f4f4" fill-opacity="1"><g><text style="font: 15px Roboto, sans-serif; white-space: pre;" transform="translate(82, 28)" font-size="15px" font-family="Roboto, sans-serif"><tspan x="-69.25" y="-0.5" dominant-baseline="ideographic">ML pipeline for error </tspan><tspan x="-35.21" y="17.5" dominant-baseline="ideographic">prediction</tspan></text></g></g></g><g id="g-root-tx_resource_1q6crgy14vci6a-fill" data-item-order="0" transform="translate(284, 674)"><g id="tx_resource_1q6crgy14vci6a-fill-merged" stroke="none" fill="#a6da37" fill-opacity="1"><g><text style="font: 20px Roboto, sans-serif; white-space: pre;" transform="translate(100, 22)" font-size="20px" font-family="Roboto, sans-serif"><tspan x="-86.83" y="11.5" dominant-baseline="ideographic">Resource Efficiency</tspan></text></g></g></g><g id="g-root-tx_automati_1hapr8214vciyz-fill" data-item-order="0" transform="translate(296, 710)"><g id="tx_automati_1hapr8214vciyz-fill-merged" stroke="none" fill="#f4f4f4" fill-opacity="1"><g><text style="font: 15px Roboto, sans-serif; white-space: pre;" transform="translate(88, 28)" font-size="15px" font-family="Roboto, sans-serif"><tspan x="-67.45" y="-0.5" dominant-baseline="ideographic">Automation reduces </tspan><tspan x="-74.8" y="17.5" dominant-baseline="ideographic">resource consumption</tspan></text></g></g></g><g id="g-root-tx_datacomp_1cuw93m14vcjr8-fill" data-item-order="0" transform="translate(530, 734)"><g id="tx_datacomp_1cuw93m14vcjr8-fill-merged" stroke="none" fill="#f79438" fill-opacity="1"><g><text style="font: 20px Roboto, sans-serif; white-space: pre;" transform="translate(94, 22)" font-size="20px" font-family="Roboto, sans-serif"><tspan x="-76.15" y="11.5" dominant-baseline="ideographic">Data Compliance</tspan></text></g></g></g><g id="g-root-tx_automati_13zvpxu14vche5-fill" data-item-order="0" transform="translate(524, 770)"><g id="tx_automati_13zvpxu14vche5-fill-merged" stroke="none" fill="#f4f4f4" fill-opacity="1"><g><text style="font: 15px Roboto, sans-serif; white-space: pre;" transform="translate(100, 28)" font-size="15px" font-family="Roboto, sans-serif"><tspan x="-85.87" y="-0.5" dominant-baseline="ideographic">Automation ensures data </tspan><tspan x="-40.63" y="17.5" dominant-baseline="ideographic">compliance</tspan></text></g></g></g><g id="g-root-cp_1_text-1_94mw4214vb2f7-stroke" data-item-order="-552948" transform="translate(74, 122)"><g id="cp_1_text-1_94mw4214vb2f7-stroke" fill="none" stroke-linecap="round" stroke-linejoin="round" stroke-miterlimit="4" stroke="#8769fd" stroke-width="2" stroke-opacity="1"><g><path d="M 14.5903 81.0819C 8.4699 74.9616 8.4699 65.0384 14.5903 58.9181L 58.9181 14.5903C 65.0384 8.4699 74.9616 8.4699 81.0819 14.5903L 125.4097 58.9181C 131.5301 65.0384 131.5301 74.9616 125.4097 81.0819L 81.0819 125.4097C 74.9616 131.5301 65.0384 131.5301 58.9181 125.4097L 14.5903 81.0819ZM 71.7123 45C 75.4661 45.0001 78.7058 45.7472 81.4313 47.2413C 84.1733 48.7188 86.2873 50.7856 87.7725 53.4418C 89.2576 56.0814 90 59.1527 90 62.6555C 90 66.175 89.2413 69.2549 87.7234 71.8946C 86.2219 74.5175 84.0751 76.551 81.2842 77.9953C 78.4933 79.4395 75.1803 80.1622 71.3449 80.1622L 63 80L 63 94C 63 95.1065 62.0879 96 61 96L 52.9698 96C 51.8819 96 51 95.103 51 93.9964L 51 47.0036C 51 45.897 51.8819 45 52.9698 45L 71.7123 45ZM 63 70.5L 69 70.5C 70.8279 70.5 72.4465 70.1265 73.6706 69.4791C 74.911 68.8317 75.8492 67.9264 76.4858 66.7643C 77.1223 65.5856 77.4408 64.216 77.4408 62.6555C 77.4408 61.0783 77.1223 59.7165 76.4858 58.571C 75.8492 57.4091 74.9109 56.5125 73.6706 55.8817C 72.4302 55.2509 70.9056 55 69.094 55L 63 55L 63 70.5Z"></path></g></g></g><g id="g-root-cp_2_text-2_8zvv614vb37w-stroke" data-item-order="-552938" transform="translate(314, 182)"><g id="cp_2_text-2_8zvv614vb37w-stroke" fill="none" stroke-linecap="round" stroke-linejoin="round" stroke-miterlimit="4" stroke="#43dd93" stroke-width="2" stroke-opacity="1"><g><path d="M 14.5903 81.0819C 8.4699 74.9616 8.4699 65.0384 14.5903 58.9181L 58.9181 14.5903C 65.0384 8.4699 74.9616 8.4699 81.0819 14.5903L 125.4097 58.9181C 131.5301 65.0384 131.5301 74.9616 125.4097 81.0819L 81.0819 125.4097C 74.9616 131.5301 65.0384 131.5301 58.9181 125.4097L 14.5903 81.0819ZM 54 95.9091C 52.8954 95.9091 52 95.0137 52 93.9091L 52 47C 52 45.8954 52.8954 45 54 45L 85.4972 45C 86.6017 45 87.4972 45.8954 87.4972 47L 87.4972 52.9929C 87.4972 54.0975 86.6017 54.9929 85.4972 54.9929L 64.3047 54.9929L 64.3047 65.4332L 83.6825 65.4332C 84.7871 65.4332 85.6825 66.3287 85.6825 67.4332L 85.6825 73.451C 85.6825 74.5556 84.7871 75.451 83.6825 75.451L 64.3047 75.451L 64.3047 85.9162L 85.4972 85.9162C 86.6017 85.9162 87.4972 86.8116 87.4972 87.9162L 87.4972 93.9091C 87.4972 95.0137 86.6017 95.9091 85.4972 95.9091L 54 95.9091Z"></path></g></g></g><g id="g-root-cp_3_text-3_1uuafpu14vb3t1-stroke" data-item-order="-552928" transform="translate(554, 242)"><g id="cp_3_text-3_1uuafpu14vb3t1-stroke" fill="none" stroke-linecap="round" stroke-linejoin="round" stroke-miterlimit="4" stroke="#4f91fc" stroke-width="2" stroke-opacity="1"><g><path d="M 14.5903 81.0819C 8.4699 74.9616 8.4699 65.0384 14.5903 58.9181L 58.9181 14.5903C 65.0384 8.4699 74.9616 8.4699 81.0819 14.5903L 125.4097 58.9181C 131.5301 65.0384 131.5301 74.9616 125.4097 81.0819L 81.0819 125.4097C 74.9616 131.5301 65.0384 131.5301 58.9181 125.4097L 14.5903 81.0819ZM 80.031006 60.9588C 78.996506 60.9588 78.174706 60.1496 77.815106 59.1797C 77.446706 58.1859 76.839106 57.362 75.992206 56.7081C 74.699506 55.6806 72.851806 55.1669 70.448806 55.1669C 68.857906 55.1669 67.532206 55.3741 66.471606 55.7883C 65.411006 56.2026 64.615506 56.7744 64.085206 57.5036C 63.554906 58.2161 63.281506 59.0365 63.264906 59.9645C 63.231706 60.7268 63.380906 61.398 63.712306 61.978C 64.060306 62.558 64.557506 63.0717 65.203806 63.5192C 65.866706 63.95 66.662106 64.3312 67.590206 64.6626C 68.518206 64.9941 69.562206 65.2841 70.722306 65.5327L 75.097306 66.527C 77.616206 67.0739 79.836906 67.803 81.759206 68.7145C 83.698106 69.6259 85.322206 70.7114 86.631406 71.9709C 87.957106 73.2304 88.959706 74.6804 89.639206 76.321C 90.318606 77.9616 90.666606 79.8011 90.683206 81.8395C 90.666606 85.0545 89.854606 87.8137 88.247106 90.1172C 86.639606 92.4207 84.327906 94.1856 81.311806 95.4119C 78.312206 96.6383 74.691306 97.2514 70.448806 97.2514C 66.189806 97.2514 62.477706 96.6134 59.312506 95.3374C 56.147206 94.0613 53.686306 92.1224 51.929706 89.5206C 50.480006 87.3735 49.611606 84.7581 49.324406 81.6744C 49.221106 80.5648 50.130906 79.652 51.245306 79.652L 59.120406 79.652C 60.177906 79.652 61.020706 80.4867 61.290406 81.5093C 61.513306 82.3543 61.856606 83.1024 62.320306 83.7536C 63.099206 84.8473 64.168106 85.6759 65.527006 86.2393C 66.902406 86.8028 68.493306 87.0845 70.299706 87.0845C 71.956906 87.0845 73.365506 86.8608 74.525506 86.4133C 75.702206 85.9659 76.605306 85.3445 77.235106 84.549C 77.864806 83.7536 78.187906 82.8421 78.204506 81.8146C 78.187906 80.8535 77.889606 80.0331 77.309606 79.3537C 76.729606 78.6577 75.834706 78.0611 74.625006 77.5639C 73.431806 77.0502 71.907206 76.5779 70.051106 76.147L 64.731506 74.9041C 60.323406 73.8932 56.851506 72.2609 54.316006 70.0071C 51.780506 67.7367 50.521006 64.6709 50.537606 60.8097C 50.521006 57.661 51.366206 54.9018 53.073106 52.532C 54.780006 50.1622 57.141506 48.3144 60.157606 46.9886C 63.173706 45.6629 66.612406 45 70.473706 45C 74.417806 45 77.839906 45.6712 80.740006 47.0135C 83.656706 48.3393 85.918806 50.2036 87.526306 52.6065C 88.783306 54.4857 89.559006 56.5979 89.853306 58.9433C 89.991806 60.0474 89.078906 60.9588 87.966106 60.9588L 80.031006 60.9588Z"></path></g></g></g><g id="g-root-cp_4_text-4_1lynfgy14vb4lq-stroke" data-item-order="-552916" transform="translate(74, 470)"><g id="cp_4_text-4_1lynfgy14vb4lq-stroke" fill="none" stroke-linecap="round" stroke-linejoin="round" stroke-miterlimit="4" stroke="#1ac3fb" stroke-width="2" stroke-opacity="1"><g><path d="M 14.5903 81.0819C 8.4699 74.9616 8.4699 65.0384 14.5903 58.9181L 58.9181 14.5903C 65.0384 8.4699 74.9616 8.4699 81.0819 14.5903L 125.4097 58.9181C 131.5301 65.0384 131.5301 74.9616 125.4097 81.0819L 81.0819 125.4097C 74.9616 131.5301 65.0384 131.5301 58.9181 125.4097L 14.5903 81.0819ZM 48.485443 54.9929L 48.485443 47C 48.485443 45.8954 49.380843 45 50.485443 45L 89.514543 45C 90.619143 45 91.514543 45.8954 91.514543 47L 91.514543 52.9929C 91.514543 54.0975 90.619143 54.9929 89.514543 54.9929L 76.077743 54.9929L 76.077743 93.9091C 76.077743 95.0137 75.182343 95.9091 74.077743 95.9091L 65.947143 95.9091C 64.842543 95.9091 63.947143 95.0137 63.947143 93.9091L 63.947143 54.9929L 48.485443 54.9929Z"></path></g></g></g><g id="g-root-cp_5_text-5_1lynfgy14vb4lr-stroke" data-item-order="-552906" transform="translate(314, 530)"><g id="cp_5_text-5_1lynfgy14vb4lr-stroke" fill="none" stroke-linecap="round" stroke-linejoin="round" stroke-miterlimit="4" stroke="#a6da37" stroke-width="2" stroke-opacity="1"><g><path d="M 14.5903 81.0819C 8.4699 74.9616 8.4699 65.0384 14.5903 58.9181L 58.9181 14.5903C 65.0384 8.4699 74.9616 8.4699 81.0819 14.5903L 125.4097 58.9181C 131.5301 65.0384 131.5301 74.9616 125.4097 81.0819L 81.0819 125.4097C 74.9616 131.5301 65.0384 131.5301 58.9181 125.4097L 14.5903 81.0819ZM 54 95.9091C 52.8954 95.9091 52 95.0137 52 93.9091L 52 47C 52 45.8954 52.8954 45 54 45L 85.4972 45C 86.6017 45 87.4972 45.8954 87.4972 47L 87.4972 52.9929C 87.4972 54.0975 86.6017 54.9929 85.4972 54.9929L 64.3047 54.9929L 64.3047 65.4332L 83.6825 65.4332C 84.7871 65.4332 85.6825 66.3287 85.6825 67.4332L 85.6825 73.451C 85.6825 74.5556 84.7871 75.451 83.6825 75.451L 64.3047 75.451L 64.3047 85.9162L 85.4972 85.9162C 86.6017 85.9162 87.4972 86.8116 87.4972 87.9162L 87.4972 93.9091C 87.4972 95.0137 86.6017 95.9091 85.4972 95.9091L 54 95.9091Z"></path></g></g></g><g id="g-root-cp_6_text-6_1hitxci14vb5e0-stroke" data-item-order="-552896" transform="translate(554, 590)"><g id="cp_6_text-6_1hitxci14vb5e0-stroke" fill="none" stroke-linecap="round" stroke-linejoin="round" stroke-miterlimit="4" stroke="#f79438" stroke-width="2" stroke-opacity="1"><g><path d="M 14.5903 81.0819C 8.4699 74.9616 8.4699 65.0384 14.5903 58.9181L 58.9181 14.5903C 65.0384 8.4699 74.9616 8.4699 81.0819 14.5903L 125.4097 58.9181C 131.5301 65.0384 131.5301 74.9616 125.4097 81.0819L 81.0819 125.4097C 74.9616 131.5301 65.0384 131.5301 58.9181 125.4097L 14.5903 81.0819ZM 55.258179 95.9091C 54.153579 95.9091 53.258179 95.0137 53.258179 93.9091L 53.258179 47C 53.258179 45.8954 54.153579 45 55.258179 45L 63.562879 45C 64.667479 45 65.562879 45.8954 65.562879 47L 65.562879 85.9162L 84.741879 85.9162C 85.846379 85.9162 86.741879 86.8116 86.741879 87.9162L 86.741879 93.9091C 86.741879 95.0137 85.846379 95.9091 84.741879 95.9091L 55.258179 95.9091Z"></path></g></g></g><g id="g-root-tx_stacklen_1hitxci14vb5e1-stroke" data-item-order="0" transform="translate(242, 38)"></g><g id="g-root-tx_automati_147zw2a14vb3t6-stroke" data-item-order="0" transform="translate(44, 266)"></g><g id="g-root-tx_governme_qwjdoy14vb5e3-stroke" data-item-order="0" transform="translate(50, 302)"></g><g id="g-root-tx_costredu_m7cr9u14vchl0-stroke" data-item-order="0" transform="translate(302, 326)"></g><g id="g-root-tx_automati_dbpr0y14vcidp-stroke" data-item-order="0" transform="translate(302, 362)"></g><g id="g-root-tx_realtime_8vw8wi14vcj5y-stroke" data-item-order="0" transform="translate(524, 386)"></g><g id="g-root-tx_instantv_8vw8wi14vcj5z-stroke" data-item-order="0" transform="translate(524, 422)"></g><g id="g-root-tx_aipredic_4g2qs214vcjy8-stroke" data-item-order="0" transform="translate(74, 614)"></g><g id="g-root-tx_mlpipeli_1um69le14vche1-stroke" data-item-order="0" transform="translate(62, 650)"></g><g id="g-root-tx_resource_1q6crgy14vci6a-stroke" data-item-order="0" transform="translate(284, 674)"></g><g id="g-root-tx_automati_1hapr8214vciyz-stroke" data-item-order="0" transform="translate(296, 710)"></g><g id="g-root-tx_datacomp_1cuw93m14vcjr8-stroke" data-item-order="0" transform="translate(530, 734)"></g><g id="g-root-tx_automati_13zvpxu14vche5-stroke" data-item-order="0" transform="translate(524, 770)"></g></g></g></svg>