<?xml version="1.0" encoding="utf-8" standalone="yes"?>
<!DOCTYPE svg PUBLIC "-//W3C//DTD SVG 1.1//EN" "http://www.w3.org/Graphics/SVG/1.1/DTD/svg11.dtd">
<svg style="fill:none;stroke:none;fill-rule:evenodd;clip-rule:evenodd;stroke-linecap:round;stroke-linejoin:round;stroke-miterlimit:1.5;" version="1.1" xmlns="http://www.w3.org/2000/svg" xmlns:xlink="http://www.w3.org/1999/xlink" width="540" height="492" viewBox="0 0 540 492"><style class="text-font-style fontImports" data-font-family="Roboto">@import url(https://fonts.googleapis.com/css2?family=Roboto:wght@400;700&amp;amp;display=block);</style><g id="items" style="isolation: isolate"><g id="blend" style="mix-blend-mode: normal"><g id="g-root-cp_0_g-0_91ip2a141dr0o-fill" data-item-order="-194821" transform="translate(20.0013427734375, 254)"></g><g id="g-root-sy_0_Vector_4lp6xu141drsx-fill" data-item-order="-194817" transform="translate(442, 254)"></g><g id="g-root-cp_1_g-1_4lp6xu141drsy-fill" data-item-order="-194813" transform="translate(77, 251)"></g><g id="g-root-cp_2_g-2_1urspr6141dp8r-fill" data-item-order="-194809" transform="translate(137, 251)"></g><g id="g-root-cp_3_g-3_1urspr6141dp8s-fill" data-item-order="-194805" transform="translate(197, 251)"></g><g id="g-root-cp_6_g-6_1urspr6141dp8t-fill" data-item-order="-194801" transform="translate(377, 251)"></g><g id="g-root-cp_5_g-5_1qbz7mq141dq12-fill" data-item-order="-194797" transform="translate(317, 251)"></g><g id="g-root-cp_7_g-7_1qbz7mq141dq13-fill" data-item-order="-194793" transform="translate(437, 251)"></g><g id="g-root-cp_4_g-4_1lw5pia141dqtc-fill" data-item-order="-194789" transform="translate(257, 251)"></g><g id="g-root-ic_cog_1lr5zz61416oem-fill" data-item-order="0" transform="translate(62, 206)"></g><g id="g-root-ic_1_1q6zi3m14114hx-fill" data-item-order="0" transform="translate(182, 206)"></g><g id="g-root-ic_jasm_92rqea140wufc-fill" data-item-order="0" transform="translate(302, 206)"></g><g id="g-root-ic_clou_zrk38i141dp1e-fill" data-item-order="0" transform="translate(422, 206)"></g><g id="g-root-tx_scikitle_1qclrvm1419jwr-fill" data-item-order="0" transform="translate(212, 386)"><g id="tx_scikitle_1qclrvm1419jwr-fill-merged" stroke="none" fill="#f4f4f4" fill-opacity="1"><g><text style="font: 10px Roboto, sans-serif; white-space: pre;" transform="translate(58, 34)" font-size="10px" font-family="Roboto, sans-serif"><tspan x="-45.28" y="-12" dominant-baseline="ideographic">Scikit-learn, Pandas, </tspan><tspan x="-34.79" y="0" dominant-baseline="ideographic">and NumPy are </tspan><tspan x="-27.36" y="12" dominant-baseline="ideographic">used for ML </tspan><tspan x="-29.28" y="24" dominant-baseline="ideographic">functionality.</tspan></text></g></g></g><g id="g-root-tx_datapers_1lynp0i1419jpc-fill" data-item-order="0" transform="translate(146, 86)"><g id="tx_datapers_1lynp0i1419jpc-fill-merged" stroke="none" fill="#43dd93" fill-opacity="1"><g><text style="font: bold 12px Roboto, sans-serif; white-space: pre;" transform="translate(64, 28)" font-weight="bold" font-size="12px" font-family="Roboto, sans-serif"><tspan x="-47.55" y="-0.4" dominant-baseline="ideographic">Data/Persistence </tspan><tspan x="-15.78" y="14" dominant-baseline="ideographic">Layer</tspan></text></g></g></g><g id="g-root-tx_googlege_1q6d10i141awhx-fill" data-item-order="0" transform="translate(392, 128)"><g id="tx_googlege_1q6d10i141awhx-fill-merged" stroke="none" fill="#f4f4f4" fill-opacity="1"><g><text style="font: 10px Roboto, sans-serif; white-space: pre;" transform="translate(58, 34)" font-size="10px" font-family="Roboto, sans-serif"><tspan x="-42.92" y="-12" dominant-baseline="ideographic">Google Gemini API </tspan><tspan x="-36.3" y="0" dominant-baseline="ideographic">is integrated for </tspan><tspan x="-28.84" y="12" dominant-baseline="ideographic">enhanced AI </tspan><tspan x="-29.79" y="24" dominant-baseline="ideographic">suggestions.</tspan></text></g></g></g><g id="g-root-tx_jobliban_hrjioy141awoz-fill" data-item-order="0" transform="translate(272, 128)"><g id="tx_jobliban_hrjioy141awoz-fill-merged" stroke="none" fill="#f4f4f4" fill-opacity="1"><g><text style="font: 10px Roboto, sans-serif; white-space: pre;" transform="translate(58, 34)" font-size="10px" font-family="Roboto, sans-serif"><tspan x="-39.07" y="-12" dominant-baseline="ideographic">Joblib and Pickle </tspan><tspan x="-43.55" y="0" dominant-baseline="ideographic">are used for saving </tspan><tspan x="-35.48" y="12" dominant-baseline="ideographic">and loading ML </tspan><tspan x="-19.07" y="24" dominant-baseline="ideographic">models.</tspan></text></g></g></g><g id="g-root-tx_sqlalche_18ntnqa1419i4h-fill" data-item-order="0" transform="translate(146, 128)"><g id="tx_sqlalche_18ntnqa1419i4h-fill-merged" stroke="none" fill="#f4f4f4" fill-opacity="1"><g><text style="font: 10px Roboto, sans-serif; white-space: pre;" transform="translate(64, 34)" font-size="10px" font-family="Roboto, sans-serif"><tspan x="-38.79" y="-12" dominant-baseline="ideographic">SQLAlchemy and </tspan><tspan x="-46.15" y="0" dominant-baseline="ideographic">SQLite are set up for </tspan><tspan x="-21.5" y="12" dominant-baseline="ideographic">database </tspan><tspan x="-28.41" y="24" dominant-baseline="ideographic">interactions.</tspan></text></g></g></g><g id="g-root-tx_python3x_4otnj61419hjb-fill" data-item-order="0" transform="translate(26, 128)"><g id="tx_python3x_4otnj61419hjb-fill-merged" stroke="none" fill="#f4f4f4" fill-opacity="1"><g><text style="font: 10px Roboto, sans-serif; white-space: pre;" transform="translate(64, 34)" font-size="10px" font-family="Roboto, sans-serif"><tspan x="-46.75" y="-12" dominant-baseline="ideographic">Python 3.x and Flask </tspan><tspan x="-33.57" y="0" dominant-baseline="ideographic">application are </tspan><tspan x="-31.96" y="12" dominant-baseline="ideographic">configured for </tspan><tspan x="-32.88" y="24" dominant-baseline="ideographic">backend logic.</tspan></text></g></g></g><g id="g-root-tx_aiintegr_4g30bm141ay9w-fill" data-item-order="0" transform="translate(398, 98)"><g id="tx_aiintegr_4g30bm141ay9w-fill-merged" stroke="none" fill="#fb6762" fill-opacity="1"><g><text style="font: bold 12px Roboto, sans-serif; white-space: pre;" transform="translate(52, 22)" font-weight="bold" font-size="12px" font-family="Roboto, sans-serif"><tspan x="-36.78" y="6.8" dominant-baseline="ideographic">AI Integration</tspan></text></g></g></g><g id="g-root-tx_initialt_1d0ip9e141drm1-fill" data-item-order="0" transform="translate(104, 38)"><g id="tx_initialt_1d0ip9e141drm1-fill-merged" stroke="none" fill="#f4f4f4" fill-opacity="1"><g><text style="font: bold 20px Roboto, sans-serif; white-space: pre;" transform="translate(166, 22)" font-weight="bold" font-size="20px" font-family="Roboto, sans-serif"><tspan x="-150.77" y="11.5" dominant-baseline="ideographic">Initial Tech Stack Implementation</tspan></text></g></g></g><g id="g-root-ic_chai_1hiu6w2140y9s2-fill" data-item-order="0" transform="translate(242, 266)"></g><g id="g-root-ic_hori_40cpu140vhfq-fill" data-item-order="0" transform="translate(362, 266)"></g><g id="g-root-tx_backendc_940oki1419jwu-fill" data-item-order="0" transform="translate(38, 86)"><g id="tx_backendc_940oki1419jwu-fill-merged" stroke="none" fill="#4f91fc" fill-opacity="1"><g><text style="font: bold 12px Roboto, sans-serif; white-space: pre;" transform="translate(52, 28)" font-weight="bold" font-size="12px" font-family="Roboto, sans-serif"><tspan x="-38.98" y="-0.4" dominant-baseline="ideographic">Backend Core </tspan><tspan x="-17.2" y="14" dominant-baseline="ideographic">Setup</tspan></text></g></g></g><g id="g-root-tx_frontend_1ur6btu1419hq8-fill" data-item-order="0" transform="translate(98, 332)"><g id="tx_frontend_1ur6btu1419hq8-fill-merged" stroke="none" fill="#1ac3fb" fill-opacity="1"><g><text style="font: bold 12px Roboto, sans-serif; white-space: pre;" transform="translate(52, 28)" font-weight="bold" font-size="12px" font-family="Roboto, sans-serif"><tspan x="-32.02" y="-0.4" dominant-baseline="ideographic">Frontend/UI </tspan><tspan x="-35.53" y="14" dominant-baseline="ideographic">Development</tspan></text></g></g></g><g id="g-root-tx_machinel_4my89u1419iiy-fill" data-item-order="0" transform="translate(212, 332)"><g id="tx_machinel_4my89u1419iiy-fill-merged" stroke="none" fill="#a6da37" fill-opacity="1"><g><text style="font: bold 12px Roboto, sans-serif; white-space: pre;" transform="translate(58, 34)" font-weight="bold" font-size="12px" font-family="Roboto, sans-serif"><tspan x="-23.14" y="-7.6" dominant-baseline="ideographic">Machine </tspan><tspan x="-23.64" y="6.8" dominant-baseline="ideographic">Learning </tspan><tspan x="-42.57" y="21.2" dominant-baseline="ideographic">Implementation</tspan></text></g></g></g><g id="g-root-tx_asynchro_18ly8gy1419j44-fill" data-item-order="0" transform="translate(332, 332)"><g id="tx_asynchro_18ly8gy1419j44-fill-merged" stroke="none" fill="#f79438" fill-opacity="1"><g><text style="font: bold 12px Roboto, sans-serif; white-space: pre;" transform="translate(58, 28)" font-weight="bold" font-size="12px" font-family="Roboto, sans-serif"><tspan x="-40.17" y="-0.4" dominant-baseline="ideographic">Asynchronous </tspan><tspan x="-31.77" y="14" dominant-baseline="ideographic">Processing</tspan></text></g></g></g><g id="g-root-tx_jinja2bo_v98rxe1419iix-fill" data-item-order="0" transform="translate(86, 374)"><g id="tx_jinja2bo_v98rxe1419iix-fill-merged" stroke="none" fill="#f4f4f4" fill-opacity="1"><g><text style="font: 10px Roboto, sans-serif; white-space: pre;" transform="translate(64, 34)" font-size="10px" font-family="Roboto, sans-serif"><tspan x="-49.25" y="-12" dominant-baseline="ideographic">Jinja2, Bootstrap, and </tspan><tspan x="-49.15" y="0" dominant-baseline="ideographic">Vanilla JavaScript are </tspan><tspan x="-25.42" y="12" dominant-baseline="ideographic">used for UI </tspan><tspan x="-31.35" y="24" dominant-baseline="ideographic">development.</tspan></text></g></g></g><g id="g-root-tx_pythonth_vb476q1419hj9-fill" data-item-order="0" transform="translate(326, 374)"><g id="tx_pythonth_vb476q1419hj9-fill-merged" stroke="none" fill="#f4f4f4" fill-opacity="1"><g><text style="font: 10px Roboto, sans-serif; white-space: pre;" transform="translate(64, 28)" font-size="10px" font-family="Roboto, sans-serif"><tspan x="-44.1" y="-6" dominant-baseline="ideographic">Python Threading is </tspan><tspan x="-50.89" y="6" dominant-baseline="ideographic">used for handling long-</tspan><tspan x="-28.75" y="18" dominant-baseline="ideographic">running jobs.</tspan></text></g></g></g><g id="g-root-tx_modelper_vcd5cy1419jpe-fill" data-item-order="0" transform="translate(284, 86)"><g id="tx_modelper_vcd5cy1419jpe-fill-merged" stroke="none" fill="#ffe711" fill-opacity="1"><g><text style="font: bold 12px Roboto, sans-serif; white-space: pre;" transform="translate(46, 28)" font-weight="bold" font-size="12px" font-family="Roboto, sans-serif"><tspan x="-16.85" y="-0.4" dominant-baseline="ideographic">Model </tspan><tspan x="-32.03" y="14" dominant-baseline="ideographic">Persistence</tspan></text></g></g></g><g id="g-root-ic_soft_4ikwo21413wud-fill" data-item-order="0" transform="translate(122, 266)"></g><g id="g-root-cp_0_g-0_91ip2a141dr0o-stroke" data-item-order="-194821" transform="translate(20.0013427734375, 254)"><g id="cp_0_g-0_91ip2a141dr0o-stroke" fill="none" stroke-linecap="round" stroke-linejoin="round" stroke-miterlimit="4" stroke="#f4f4f4" stroke-width="2" stroke-opacity="1"><g><path d="M 67 10L 10 10M 127.0307 10L 72.9706 10M 187 10L 133 10M 247 10L 192.9701 10M 307 10L 252.9703 10M 367.0306 10L 312.9701 10M 427.0299 10L 373 10"></path></g></g></g><g id="g-root-sy_0_Vector_4lp6xu141drsx-stroke" data-item-order="-194817" transform="translate(442, 254)"><g id="sy_0_Vector_4lp6xu141drsx-stroke" fill="none" stroke-linecap="round" stroke-linejoin="round" stroke-miterlimit="4" stroke="#f4f4f4" stroke-width="2" stroke-opacity="1"><g><path d="M 65 10L 10 10"></path><path d="M 59 16.5L 65.5 10L 59 3.5" stroke-dasharray="none"></path></g></g></g><g id="g-root-cp_1_g-1_4lp6xu141drsy-stroke" data-item-order="-194813" transform="translate(77, 251)"><g id="cp_1_g-1_4lp6xu141drsy-stroke" fill="none" stroke-linecap="round" stroke-linejoin="round" stroke-miterlimit="4" stroke="#f4f4f4" stroke-width="2" stroke-opacity="1"><g><path d="M 16 13C 16 14.6569 14.6569 16 13 16C 11.3432 16 10 14.6569 10 13C 10 11.3431 11.3432 10 13 10C 14.6569 10 16 11.3431 16 13Z"></path></g></g></g><g id="g-root-cp_2_g-2_1urspr6141dp8r-stroke" data-item-order="-194809" transform="translate(137, 251)"><g id="cp_2_g-2_1urspr6141dp8r-stroke" fill="none" stroke-linecap="round" stroke-linejoin="round" stroke-miterlimit="4" stroke="#f4f4f4" stroke-width="2" stroke-opacity="1"><g><path d="M 16 13C 16 14.6569 14.6568 16 13 16C 11.3431 16 10 14.6569 10 13C 10 11.3431 11.3431 10 13 10C 14.6568 10 16 11.3431 16 13Z"></path></g></g></g><g id="g-root-cp_3_g-3_1urspr6141dp8s-stroke" data-item-order="-194805" transform="translate(197, 251)"><g id="cp_3_g-3_1urspr6141dp8s-stroke" fill="none" stroke-linecap="round" stroke-linejoin="round" stroke-miterlimit="4" stroke="#f4f4f4" stroke-width="2" stroke-opacity="1"><g><path d="M 16 13C 16 14.6569 14.6568 16 13 16C 11.3431 16 10 14.6569 10 13C 10 11.3431 11.3431 10 13 10C 14.6568 10 16 11.3431 16 13Z"></path></g></g></g><g id="g-root-cp_6_g-6_1urspr6141dp8t-stroke" data-item-order="-194801" transform="translate(377, 251)"><g id="cp_6_g-6_1urspr6141dp8t-stroke" fill="none" stroke-linecap="round" stroke-linejoin="round" stroke-miterlimit="4" stroke="#f4f4f4" stroke-width="2" stroke-opacity="1"><g><path d="M 16 13C 16 14.6569 14.6569 16 13 16C 11.3431 16 10 14.6569 10 13C 10 11.3431 11.3431 10 13 10C 14.6569 10 16 11.3431 16 13Z"></path></g></g></g><g id="g-root-cp_5_g-5_1qbz7mq141dq12-stroke" data-item-order="-194797" transform="translate(317, 251)"><g id="cp_5_g-5_1qbz7mq141dq12-stroke" fill="none" stroke-linecap="round" stroke-linejoin="round" stroke-miterlimit="4" stroke="#f4f4f4" stroke-width="2" stroke-opacity="1"><g><path d="M 16 13C 16 14.6569 14.6568 16 13 16C 11.3431 16 10 14.6569 10 13C 10 11.3431 11.3431 10 13 10C 14.6568 10 16 11.3431 16 13Z"></path></g></g></g><g id="g-root-cp_7_g-7_1qbz7mq141dq13-stroke" data-item-order="-194793" transform="translate(437, 251)"><g id="cp_7_g-7_1qbz7mq141dq13-stroke" fill="none" stroke-linecap="round" stroke-linejoin="round" stroke-miterlimit="4" stroke="#f4f4f4" stroke-width="2" stroke-opacity="1"><g><path d="M 16 13C 16 14.6569 14.6569 16 13 16C 11.3432 16 10 14.6569 10 13C 10 11.3431 11.3432 10 13 10C 14.6569 10 16 11.3431 16 13Z"></path></g></g></g><g id="g-root-cp_4_g-4_1lw5pia141dqtc-stroke" data-item-order="-194789" transform="translate(257, 251)"><g id="cp_4_g-4_1lw5pia141dqtc-stroke" fill="none" stroke-linecap="round" stroke-linejoin="round" stroke-miterlimit="4" stroke="#f4f4f4" stroke-width="2" stroke-opacity="1"><g><path d="M 16 13C 16 14.6569 14.6568 16 13 16C 11.3431 16 10 14.6569 10 13C 10 11.3431 11.3431 10 13 10C 14.6568 10 16 11.3431 16 13Z"></path></g></g></g><g id="g-root-ic_cog_1lr5zz61416oem-stroke" data-item-order="0" transform="translate(62, 206)"><g id="ic_cog_1lr5zz61416oem-stroke" fill="none" stroke-linecap="round" stroke-linejoin="round" stroke-miterlimit="4" stroke="#f4f4f4" stroke-width="2" stroke-opacity="1"><g><path d="M 25.1245 35.772999L 25.1245 23.123499C 25.1245 21.852692 26.154694 20.8225 27.425499 20.8225L 32.024498 20.8225M 22.825001 27.7225L 28.574501 27.7225M 25.771 13.3375C 26.339897 13.969049 27.15 14.329626 28 14.329626C 28.85 14.329626 29.660103 13.969049 30.229 13.3375L 31.6705 11.7415C 32.520176 10.792525 33.87648 10.483569 35.053337 10.970917C 36.230194 11.458264 36.970993 12.635651 36.901001 13.9075L 36.7915 16.0555C 36.747925 16.903542 37.065781 17.730326 37.666225 18.330772C 38.266674 18.931221 39.09346 19.249077 39.941502 19.2055L 42.099998 19.098999C 43.371849 19.029009 44.549236 19.769806 45.036583 20.946663C 45.523933 22.12352 45.214973 23.479826 44.265999 24.3295L 42.670002 25.771C 42.038452 26.339897 41.677876 27.15 41.677876 28C 41.677876 28.85 42.038452 29.660103 42.670002 30.229L 44.265999 31.6705C 45.214973 32.520176 45.523933 33.87648 45.036583 35.053337C 44.549236 36.230194 43.371849 36.970993 42.099998 36.901001L 39.952 36.7915C 39.103958 36.747925 38.277176 37.065781 37.676727 37.666225C 37.076279 38.266674 36.758423 39.09346 36.802002 39.941502L 36.911499 42.0895C 36.981491 43.361351 36.240692 44.538734 35.063835 45.026081C 33.886978 45.513432 32.530674 45.204475 31.681 44.255501L 30.2395 42.6595C 29.670603 42.02795 28.8605 41.667374 28.0105 41.667374C 27.1605 41.667374 26.350397 42.02795 25.7815 42.6595L 24.34 44.255501C 23.493265 45.211338 22.134268 45.526432 20.9533 45.040726C 19.772333 44.555027 19.02825 43.374985 19.098999 42.099998L 19.2085 39.952C 19.252077 39.103958 18.934219 38.277176 18.333773 37.676727C 17.733326 37.076279 16.906542 36.758423 16.0585 36.802002L 13.910501 36.911499C 12.638651 36.981491 11.461265 36.240692 10.973917 35.063835C 10.486569 33.886978 10.795525 32.530674 11.7445 31.681L 13.3405 30.2395C 13.97205 29.670603 14.332626 28.8605 14.332626 28.0105C 14.332626 27.1605 13.97205 26.350397 13.3405 25.7815L 11.7415 24.3295C 10.792525 23.479826 10.483569 22.12352 10.970917 20.946663C 11.458264 19.769806 12.635651 19.029009 13.9075 19.098999L 16.0555 19.2085C 16.903542 19.252077 17.730326 18.934219 18.330772 18.333773C 18.931221 17.733326 19.249077 16.906542 19.2055 16.0585L 19.098999 13.9075C 19.029009 12.635651 19.769806 11.458264 20.946663 10.970917C 22.12352 10.483569 23.479826 10.792525 24.3295 11.7415Z"></path></g></g></g><g id="g-root-ic_1_1q6zi3m14114hx-stroke" data-item-order="0" transform="translate(182, 206)"><g id="ic_1_1q6zi3m14114hx-stroke" fill="none" stroke-linecap="round" stroke-linejoin="round" stroke-miterlimit="4" stroke="#f4f4f4" stroke-width="2" stroke-opacity="1"><g><path d="M 12.25 10.756L 43.75 10.756C 43.75 10.756 45.25 10.756 45.25 12.256L 45.25 43.756001C 45.25 43.756001 45.25 45.256001 43.75 45.256001L 12.25 45.256001C 12.25 45.256001 10.75 45.256001 10.75 43.756001L 10.75 12.256C 10.75 12.256 10.75 10.756 12.25 10.756M 22.75 27.2365L 19.531 27.2365C 18.245129 27.241089 17.130075 28.126644 16.834427 29.378075C 16.538776 30.629505 17.139631 31.920443 18.2875 32.5L 21.2125 33.962502C 22.365597 34.539513 22.970835 35.833469 22.674614 37.08839C 22.378391 38.343315 21.25841 39.230034 19.969 39.230503L 16.75 39.230499M 31.712502 35.468498C 31.712502 37.125351 30.369354 38.468498 28.712502 38.468498C 27.055647 38.468498 25.712502 37.125351 25.712502 35.468498L 25.712502 30.2185C 25.712502 28.561646 27.055647 27.2185 28.712502 27.2185C 30.369354 27.2185 31.712502 28.561646 31.712502 30.2185ZM 31.712502 40.718498L 27.174999 38.043999M 34.712502 27.2185L 34.712502 36.968498C 34.712502 38.211143 35.71986 39.218498 36.962502 39.218498L 40.712502 39.218498"></path></g></g></g><g id="g-root-ic_jasm_92rqea140wufc-stroke" data-item-order="0" transform="translate(302, 206)"><g id="ic_jasm_92rqea140wufc-stroke" fill="none" stroke-linecap="round" stroke-linejoin="round" stroke-miterlimit="4" stroke="#f4f4f4" stroke-width="2" stroke-opacity="1"><g><path d="M 10.75 28C 10.75 37.526913 18.473087 45.25 28 45.25C 37.526913 45.25 45.25 37.526913 45.25 28C 45.25 18.473087 37.526913 10.75 28 10.75C 18.473087 10.75 10.75 18.473087 10.75 28M 28 16.75L 28 23.5M 17.300501 24.523001L 23.720501 26.609501M 21.388 37.102001L 25.355501 31.640499M 34.612 37.102001L 30.644499 31.640499M 38.699501 24.523001L 32.279499 26.609501M 28 39.25L 28 37M 38.699501 31.476999L 36.558998 30.781M 34.612 18.898001L 33.290501 20.719M 21.388 18.898001L 22.709499 20.719M 17.300501 31.476999L 19.441 30.781"></path></g></g></g><g id="g-root-ic_clou_zrk38i141dp1e-stroke" data-item-order="0" transform="translate(422, 206)"><g id="ic_clou_zrk38i141dp1e-stroke" fill="none" stroke-linecap="round" stroke-linejoin="round" stroke-miterlimit="4" stroke="#f4f4f4" stroke-width="2" stroke-opacity="1"><g><path d="M 39.650501 45.049L 39.650501 35.248001M 37.689999 35.248001L 41.611 35.248001M 37.689999 45.049L 41.611 45.049M 26.678501 45.049L 26.678501 41.128002M 26.678501 41.128002L 29.619999 41.128002C 31.243559 41.127777 32.559593 39.811558 32.559593 38.188C 32.559593 36.564442 31.243559 35.248222 29.619999 35.248001L 26.678501 35.248001ZM 13.7065 45.049L 14.8135 37.670502C 15.035271 36.288483 16.227798 35.272057 17.627501 35.272057C 19.027203 35.272057 20.21973 36.288483 20.4415 37.670502L 21.549999 45.049M 14.221 41.6185L 21.034 41.6185M 45.25 24.451C 45.251884 22.415213 44.424461 20.466484 42.95845 19.053957C 41.492432 17.641432 39.514309 16.886984 37.48 16.9645C 35.437531 12.627551 30.71344 10.228528 26.006676 11.13803C 21.299913 12.047533 17.809681 16.033834 17.530001 20.8195C 15.871469 20.472103 14.144699 20.890684 12.829344 21.958975C 11.513988 23.027266 10.750148 24.631477 10.75 26.326C 10.75 32.041 16.75 31.951 16.75 31.951L 38.5 31.951C 38.5 31.951 45.25 31.072001 45.25 24.451Z"></path></g></g></g><g id="g-root-tx_scikitle_1qclrvm1419jwr-stroke" data-item-order="0" transform="translate(212, 386)"></g><g id="g-root-tx_datapers_1lynp0i1419jpc-stroke" data-item-order="0" transform="translate(146, 86)"></g><g id="g-root-tx_googlege_1q6d10i141awhx-stroke" data-item-order="0" transform="translate(392, 128)"></g><g id="g-root-tx_jobliban_hrjioy141awoz-stroke" data-item-order="0" transform="translate(272, 128)"></g><g id="g-root-tx_sqlalche_18ntnqa1419i4h-stroke" data-item-order="0" transform="translate(146, 128)"></g><g id="g-root-tx_python3x_4otnj61419hjb-stroke" data-item-order="0" transform="translate(26, 128)"></g><g id="g-root-tx_aiintegr_4g30bm141ay9w-stroke" data-item-order="0" transform="translate(398, 98)"></g><g id="g-root-tx_initialt_1d0ip9e141drm1-stroke" data-item-order="0" transform="translate(104, 38)"></g><g id="g-root-ic_chai_1hiu6w2140y9s2-stroke" data-item-order="0" transform="translate(242, 266)"><g id="ic_chai_1hiu6w2140y9s2-stroke" fill="none" stroke-linecap="round" stroke-linejoin="round" stroke-miterlimit="4" stroke="#f4f4f4" stroke-width="2" stroke-opacity="1"><g><path d="M 30.625 43.375C 30.625 44.275002 30.025002 44.875 29.125 44.875L 22.375 44.875C 21.475 44.875 20.875 44.275002 20.875 43.375L 20.875 36.625C 20.875 35.724998 21.475 35.125 22.375 35.125L 29.125 35.125C 30.025002 35.125 30.625 35.724998 30.625 36.625L 30.625 43.375ZM 44.875 43.375C 44.875 44.275002 44.275002 44.875 43.375 44.875L 36.625 44.875C 35.724998 44.875 35.125 44.275002 35.125 43.375L 35.125 36.625C 35.125 35.724998 35.724998 35.125 36.625 35.125L 43.375 35.125C 44.275002 35.125 44.875 35.724998 44.875 36.625L 44.875 43.375ZM 30.625 40.074997L 35.125 40.074997M 22.824986 21.325001C 29.286699 21.325001 34.525002 19.041655 34.525002 16.225C 34.525002 13.408345 29.286699 11.125 22.824986 11.125C 16.363255 11.125 11.125 13.408345 11.125 16.225C 11.125 19.041655 16.363255 21.325001 22.824986 21.325001ZM 11.125 16.22485L 11.125 24.024851C 11.125 26.874849 16.374985 29.124849 22.824986 29.124849C 29.275002 29.124849 34.525002 26.874849 34.525002 24.024851L 34.525002 16.22485M 34.525002 30.625L 34.525002 24.024971M 11.125 24.024971L 11.125 31.825001C 11.125 33.625 13.07497 35.125 15.92497 36.025002"></path></g></g></g><g id="g-root-ic_hori_40cpu140vhfq-stroke" data-item-order="0" transform="translate(362, 266)"><g id="ic_hori_40cpu140vhfq-stroke" fill="none" stroke-linecap="round" stroke-linejoin="round" stroke-miterlimit="4" stroke="#f4f4f4" stroke-width="2" stroke-opacity="1"><g><path d="M 28 21.243999L 28 10.75M 28 45.25L 28 36.25M 19 30.25L 37 30.25C 37 30.25 38.5 30.25 38.5 31.75L 38.5 34.75C 38.5 34.75 38.5 36.25 37 36.25L 19 36.25C 19 36.25 17.5 36.25 17.5 34.75L 17.5 31.75C 17.5 31.75 17.5 30.25 19 30.25M 22 21.25L 34 21.25C 34 21.25 35.5 21.25 35.5 22.75L 35.5 25.75C 35.5 25.75 35.5 27.25 34 27.25L 22 27.25C 22 27.25 20.5 27.25 20.5 25.75L 20.5 22.75C 20.5 22.75 20.5 21.25 22 21.25M 41.5 13.75L 32.5 13.75M 35.5 16.75L 32.5 13.75L 35.5 10.75M 14.5 42.25L 23.5 42.25M 20.5 39.25L 23.5 42.25L 20.5 45.25M 28 27.25L 28 30.25"></path></g></g></g><g id="g-root-tx_backendc_940oki1419jwu-stroke" data-item-order="0" transform="translate(38, 86)"></g><g id="g-root-tx_frontend_1ur6btu1419hq8-stroke" data-item-order="0" transform="translate(98, 332)"></g><g id="g-root-tx_machinel_4my89u1419iiy-stroke" data-item-order="0" transform="translate(212, 332)"></g><g id="g-root-tx_asynchro_18ly8gy1419j44-stroke" data-item-order="0" transform="translate(332, 332)"></g><g id="g-root-tx_jinja2bo_v98rxe1419iix-stroke" data-item-order="0" transform="translate(86, 374)"></g><g id="g-root-tx_pythonth_vb476q1419hj9-stroke" data-item-order="0" transform="translate(326, 374)"></g><g id="g-root-tx_modelper_vcd5cy1419jpe-stroke" data-item-order="0" transform="translate(284, 86)"></g><g id="g-root-ic_soft_4ikwo21413wud-stroke" data-item-order="0" transform="translate(122, 266)"><g id="ic_soft_4ikwo21413wud-stroke" fill="none" stroke-linecap="round" stroke-linejoin="round" stroke-miterlimit="4" stroke="#f4f4f4" stroke-width="2" stroke-opacity="1"><g><path d="M 10 10M 28 22L 22 28L 29.275002 35.275002C 30.529905 36.527214 31.23513 38.2272 31.23513 40C 31.23513 41.7728 30.529905 43.472786 29.275 44.724998C 28.568163 45.422676 27.431839 45.422676 26.725 44.725002L 11.275 29.275002C 10.577324 28.568163 10.577324 27.431839 11.275 26.725L 26.724998 11.275C 27.064392 10.939092 27.522488 10.750464 28.000002 10.75M 10 10M 28 34L 34 28L 26.724998 20.725C 25.470095 19.472786 24.76487 17.772802 24.76487 16C 24.76487 14.227198 25.470095 12.527214 26.724998 11.275C 27.431839 10.577324 28.568163 10.577324 29.275002 11.275L 44.724998 26.724998C 45.422676 27.431839 45.422676 28.568163 44.725002 29.275002L 29.275002 44.724998C 28.93561 45.060909 28.477516 45.249535 28.000002 45.250004"></path></g></g></g></g></g></svg>