<?xml version="1.0" encoding="utf-8" standalone="yes"?>
<!DOCTYPE svg PUBLIC "-//W3C//DTD SVG 1.1//EN" "http://www.w3.org/Graphics/SVG/1.1/DTD/svg11.dtd">
<svg style="fill:none;stroke:none;fill-rule:evenodd;clip-rule:evenodd;stroke-linecap:round;stroke-linejoin:round;stroke-miterlimit:1.5;" version="1.1" xmlns="http://www.w3.org/2000/svg" xmlns:xlink="http://www.w3.org/1999/xlink" width="744" height="594" viewBox="0 0 744 594"><style class="text-font-style fontImports" data-font-family="Roboto">@import url(https://fonts.googleapis.com/css2?family=Roboto:wght@400;700&amp;amp;display=block);</style><g id="items" style="isolation: isolate"><g id="blend" style="mix-blend-mode: normal"><g id="g-root-cp_0_g-0_144894i15f4nif-fill" data-item-order="-346598" transform="translate(47, 98)"><g id="cp_0_g-0_144894i15f4nif-fill-merged" stroke="none" fill="#f4f4f4" fill-opacity="1"><g><path d="M48.5 83.5L10 124.5L27.5 156.5L37 151L23.5 125.5L48.5 99 V83.5"></path></g></g><g id="cp_0_g-0_144894i15f4nif-fill-merged" stroke="none" fill="#f4f4f4" fill-opacity="1"><g><path d="M96.5 83.5L135 124.5L117.5 156.5L108 151L121.5 125.5L96.5 99 V83.5"></path></g></g><g id="cp_0_g-0_144894i15f4nif-fill-merged" stroke="none" fill="#f4f4f4" fill-opacity="1"><g><path d="M59.5 106C59.5 113.18 65.32 119 72.5 119C79.68 119 85.5 113.18 85.5 106 H78.5C78.5 109.314 75.814 112 72.5 112C69.186 112 66.5 109.314 66.5 106 H59.5"></path></g></g><g id="cp_0_g-0_144894i15f4nif-fill-merged" stroke="none" fill="#f4f4f4" fill-opacity="1"><g><path d="M216 83.5L177.5 124.5L195 156.5L204.5 151L191 125.5L216 99 V83.5"></path></g></g><g id="cp_0_g-0_144894i15f4nif-fill-merged" stroke="none" fill="#f4f4f4" fill-opacity="1"><g><path d="M264 83.5L302.5 124.5L285 156.5L275.5 151L289 125.5L264 99 V83.5"></path></g></g><g id="cp_0_g-0_144894i15f4nif-fill-merged" stroke="none" fill="#f4f4f4" fill-opacity="1"><g><path d="M227 106C227 113.18 232.82 119 240 119C247.18 119 253 113.18 253 106 H246C246 109.314 243.314 112 240 112C236.686 112 234 109.314 234 106 H227"></path></g></g><g id="cp_0_g-0_144894i15f4nif-fill-merged" stroke="none" fill="#f4f4f4" fill-opacity="1"><g><path d="M383.5 83.5L345 124.5L362.5 156.5L372 151L358.5 125.5L383.5 99 V83.5"></path></g></g><g id="cp_0_g-0_144894i15f4nif-fill-merged" stroke="none" fill="#f4f4f4" fill-opacity="1"><g><path d="M431.5 83.5L470 124.5L452.5 156.5L443 151L456.5 125.5L431.5 99 V83.5"></path></g></g><g id="cp_0_g-0_144894i15f4nif-fill-merged" stroke="none" fill="#f4f4f4" fill-opacity="1"><g><path d="M394.5 106C394.5 113.18 400.32 119 407.5 119C414.68 119 420.5 113.18 420.5 106 H413.5C413.5 109.314 410.814 112 407.5 112C404.186 112 401.5 109.314 401.5 106 H394.5"></path></g></g><g id="cp_0_g-0_144894i15f4nif-fill-merged" stroke="none" fill="#f4f4f4" fill-opacity="1"><g><path d="M551 83.5L512.5 124.5L530 156.5L539.5 151L526 125.5L551 99 V83.5"></path></g></g><g id="cp_0_g-0_144894i15f4nif-fill-merged" stroke="none" fill="#f4f4f4" fill-opacity="1"><g><path d="M599 83.5L637.5 124.5L620 156.5L610.5 151L624 125.5L599 99 V83.5"></path></g></g><g id="cp_0_g-0_144894i15f4nif-fill-merged" stroke="none" fill="#f4f4f4" fill-opacity="1"><g><path d="M562 106C562 113.18 567.82 119 575 119C582.18 119 588 113.18 588 106 H581C581 109.314 578.314 112 575 112C571.686 112 569 109.314 569 106 H562"></path></g></g></g><g id="g-root-cp_1_g-1_zoer0215f4oao-fill" data-item-order="-346564" transform="translate(73.5, 122)"><g id="cp_1_g-1_zoer0215f4oao-fill-merged" stroke="none" fill="#ffe711" fill-opacity="1"><g><path d="M22 10 H70 V82 H22 V10 M10 136C10 155.882 26.118 172 46 172C65.882 172 82 155.882 82 136C82 116.118 65.882 100 46 100C26.118 100 10 116.118 10 136"></path></g></g><g id="cp_1_g-1_zoer0215f4oao-fill-merged" stroke="none" fill="#ffe711" fill-opacity="1"><g><path d="M40 82C40 85.314 42.686 88 46 88C49.314 88 52 85.314 52 82 H40"></path></g></g></g><g id="g-root-cp_2_g-2_qsrqr615f4p3d-fill" data-item-order="-346556" transform="translate(241, 122)"><g id="cp_2_g-2_qsrqr615f4p3d-fill-merged" stroke="none" fill="#f79438" fill-opacity="1"><g><path d="M22 10 H70 V82 H22 V10 M10 136C10 155.882 26.118 172 46 172C65.882 172 82 155.882 82 136C82 116.118 65.882 100 46 100C26.118 100 10 116.118 10 136"></path></g></g><g id="cp_2_g-2_qsrqr615f4p3d-fill-merged" stroke="none" fill="#f79438" fill-opacity="1"><g><path d="M40 82C40 85.314 42.686 88 46 88C49.314 88 52 85.314 52 82 H40"></path></g></g></g><g id="g-root-cp_3_g-3_qsrqr615f4p3e-fill" data-item-order="-346548" transform="translate(408.5, 122)"><g id="cp_3_g-3_qsrqr615f4p3e-fill-merged" stroke="none" fill="#fb6762" fill-opacity="1"><g><path d="M22 10 H70 V82 H22 V10 M10 136C10 155.882 26.118 172 46 172C65.882 172 82 155.882 82 136C82 116.118 65.882 100 46 100C26.118 100 10 116.118 10 136"></path></g></g><g id="cp_3_g-3_qsrqr615f4p3e-fill-merged" stroke="none" fill="#fb6762" fill-opacity="1"><g><path d="M40 82C40 85.314 42.686 88 46 88C49.314 88 52 85.314 52 82 H40"></path></g></g></g><g id="g-root-cp_4_g-4_mcy8mq15f4pvn-fill" data-item-order="-346540" transform="translate(576, 122)"><g id="cp_4_g-4_mcy8mq15f4pvn-fill-merged" stroke="none" fill="#f366bb" fill-opacity="1"><g><path d="M22 10 H70 V82 H22 V10 M10 136C10 155.882 26.118 172 46 172C65.882 172 82 155.882 82 136C82 116.118 65.882 100 46 100C26.118 100 10 116.118 10 136"></path></g></g><g id="cp_4_g-4_mcy8mq15f4pvn-fill-merged" stroke="none" fill="#f366bb" fill-opacity="1"><g><path d="M40 82C40 85.314 42.686 88 46 88C49.314 88 52 85.314 52 82 H40"></path></g></g></g><g id="g-root-tx_technica_dhxpgy15f4nik-fill" data-item-order="0" transform="translate(236, 38)"><g id="tx_technica_dhxpgy15f4nik-fill-merged" stroke="none" fill="#f4f4f4" fill-opacity="1"><g><text style="font: bold 25px Roboto, sans-serif; white-space: pre;" transform="translate(136, 28)" font-weight="bold" font-size="25px" font-family="Roboto, sans-serif"><tspan x="-123.49" y="14.5" dominant-baseline="ideographic">Initial Technical Stack</tspan></text></g></g></g><g id="g-root-ic_chec_1lwr7si15f4nbh-fill" data-item-order="0" transform="translate(85.5, 224)"></g><g id="g-root-ic_moni_dg2a7m15f62o7-fill" data-item-order="0" transform="translate(253.5, 224)"></g><g id="g-root-ic_data_4hawj615f7gga-fill" data-item-order="0" transform="translate(421.5, 224)"></g><g id="g-root-ic_neur_4njnea15f7i0z-fill" data-item-order="0" transform="translate(589.5, 224)"></g><g id="g-root-tx_backendc_4lrua15f8v0s-fill" data-item-order="0" transform="translate(44, 296)"><g id="tx_backendc_4lrua15f8v0s-fill-merged" stroke="none" fill="#ffe711" fill-opacity="1"><g><text style="font: bold 20px Roboto, sans-serif; white-space: pre;" transform="translate(76, 22)" font-weight="bold" font-size="20px" font-family="Roboto, sans-serif"><tspan x="-62.48" y="11.5" dominant-baseline="ideographic">Backend Core</tspan></text></g></g></g><g id="g-root-tx_frontend_143ls1e15f8vly-fill" data-item-order="0" transform="translate(218, 296)"><g id="tx_frontend_143ls1e15f8vly-fill-merged" stroke="none" fill="#f79438" fill-opacity="1"><g><text style="font: bold 20px Roboto, sans-serif; white-space: pre;" transform="translate(70, 22)" font-weight="bold" font-size="20px" font-family="Roboto, sans-serif"><tspan x="-53.37" y="11.5" dominant-baseline="ideographic">Frontend/UI</tspan></text></g></g></g><g id="g-root-tx_datapers_qs59o215f8x6w-fill" data-item-order="0" transform="translate(362, 296)"><g id="tx_datapers_qs59o215f8x6w-fill-merged" stroke="none" fill="#fb6762" fill-opacity="1"><g><text style="font: bold 20px Roboto, sans-serif; white-space: pre;" transform="translate(94, 22)" font-weight="bold" font-size="20px" font-family="Roboto, sans-serif"><tspan x="-77.68" y="11.5" dominant-baseline="ideographic">Data/Persistence</tspan></text></g></g></g><g id="g-root-tx_mlai_dhb8du15f8vm2-fill" data-item-order="0" transform="translate(584, 296)"><g id="tx_mlai_dhb8du15f8vm2-fill-merged" stroke="none" fill="#f366bb" fill-opacity="1"><g><text style="font: bold 20px Roboto, sans-serif; white-space: pre;" transform="translate(40, 22)" font-weight="bold" font-size="20px" font-family="Roboto, sans-serif"><tspan x="-27.52" y="11.5" dominant-baseline="ideographic">ML/AI</tspan></text></g></g></g><g id="g-root-tx_jinja2te_v7yrsi15f8wen-fill" data-item-order="0" transform="translate(206, 332)"><g id="tx_jinja2te_v7yrsi15f8wen-fill-merged" stroke="none" fill="#f4f4f4" fill-opacity="1"><g><text style="font: 15px Roboto, sans-serif; white-space: pre;" transform="translate(82, 76)" font-size="15px" font-family="Roboto, sans-serif"><tspan x="-56.43" y="-45.5" dominant-baseline="ideographic">Jinja2 templates </tspan><tspan x="-69.05" y="-27.5" dominant-baseline="ideographic">with Bootstrap/JS in </tspan><tspan x="-56.91" y="-9.5" dominant-baseline="ideographic">the legacy stack. </tspan><tspan x="-52.78" y="8.5" dominant-baseline="ideographic">React 18 + Vite, </tspan><tspan x="-45.7" y="26.5" dominant-baseline="ideographic">Tailwind CSS, </tspan><tspan x="-58.09" y="44.5" dominant-baseline="ideographic">shadcn/ui for the </tspan><tspan x="-46.56" y="62.5" dominant-baseline="ideographic">current stack.</tspan></text></g></g></g><g id="g-root-tx_sqlalche_mcy8mq15f8utd-fill" data-item-order="0" transform="translate(374, 332)"><g id="tx_sqlalche_mcy8mq15f8utd-fill-merged" stroke="none" fill="#f4f4f4" fill-opacity="1"><g><text style="font: 15px Roboto, sans-serif; white-space: pre;" transform="translate(82, 76)" font-size="15px" font-family="Roboto, sans-serif"><tspan x="-49.17" y="-45.5" dominant-baseline="ideographic">SQLAlchemy / </tspan><tspan x="-65.16" y="-27.5" dominant-baseline="ideographic">SQLite (default) for </tspan><tspan x="-64.92" y="-9.5" dominant-baseline="ideographic">data persistence in </tspan><tspan x="-57.58" y="8.5" dominant-baseline="ideographic">the legacy stack. </tspan><tspan x="-67.34" y="26.5" dominant-baseline="ideographic">SQLite/Drizzle ORM </tspan><tspan x="-68.38" y="44.5" dominant-baseline="ideographic">for data persistence </tspan><tspan x="-67.48" y="62.5" dominant-baseline="ideographic">in the current stack.</tspan></text></g></g></g><g id="g-root-tx_python3x_1lu9bg215f8wel-fill" data-item-order="0" transform="translate(38, 332)"><g id="tx_python3x_1lu9bg215f8wel-fill-merged" stroke="none" fill="#f4f4f4" fill-opacity="1"><g><text style="font: 15px Roboto, sans-serif; white-space: pre;" transform="translate(82, 94)" font-size="15px" font-family="Roboto, sans-serif"><tspan x="-60.91" y="-63.5" dominant-baseline="ideographic">Python 3.x / Flask </tspan><tspan x="-65.9" y="-45.5" dominant-baseline="ideographic">Application for web </tspan><tspan x="-49.66" y="-27.5" dominant-baseline="ideographic">server and API </tspan><tspan x="-48.62" y="-9.5" dominant-baseline="ideographic">provider in the </tspan><tspan x="-44.8" y="8.5" dominant-baseline="ideographic">legacy stack. </tspan><tspan x="-68.74" y="26.5" dominant-baseline="ideographic">Node.js + Express.js </tspan><tspan x="-66.24" y="44.5" dominant-baseline="ideographic">/ TypeScript for API </tspan><tspan x="-66.26" y="62.5" dominant-baseline="ideographic">Server and services </tspan><tspan x="-67.13" y="80.5" dominant-baseline="ideographic">in the current stack.</tspan></text></g></g></g><g id="g-root-tx_scikitle_91hq9e15f8web-fill" data-item-order="0" transform="translate(542, 332)"><g id="tx_scikitle_91hq9e15f8web-fill-merged" stroke="none" fill="#f4f4f4" fill-opacity="1"><g><text style="font: 15px Roboto, sans-serif; white-space: pre;" transform="translate(82, 100)" font-size="15px" font-family="Roboto, sans-serif"><tspan x="-38.78" y="-72.5" dominant-baseline="ideographic">Scikit-learn </tspan><tspan x="-54.95" y="-54.5" dominant-baseline="ideographic">(RandomForest, </tspan><tspan x="-64.6" y="-36.5" dominant-baseline="ideographic">prediction), Gemini </tspan><tspan x="-66.14" y="-18.5" dominant-baseline="ideographic">fallback (via API) in </tspan><tspan x="-57.82" y="-0.5" dominant-baseline="ideographic">the legacy stack. </tspan><tspan x="-64.38" y="17.5" dominant-baseline="ideographic">Google Gemini API </tspan><tspan x="-68.04" y="35.5" dominant-baseline="ideographic">(AI Engine), Existing </tspan><tspan x="-47.65" y="53.5" dominant-baseline="ideographic">ML prediction </tspan><tspan x="-48.1" y="71.5" dominant-baseline="ideographic">pipeline in the </tspan><tspan x="-47.48" y="89.5" dominant-baseline="ideographic">current stack.</tspan></text></g></g></g><g id="g-root-cp_0_g-0_144894i15f4nif-stroke" data-item-order="-346598" transform="translate(47, 98)"><g id="cp_0_g-0_144894i15f4nif-stroke" fill="none" stroke-linecap="round" stroke-linejoin="round" stroke-miterlimit="4" stroke="#f4f4f4" stroke-width="2" stroke-opacity="1"><g><path d="M 48.5 83.5L 10 124.5L 27.5 156.5L 37 151L 23.5 125.5L 48.5 99L 48.5 83.5Z"></path></g></g><g id="cp_0_g-0_144894i15f4nif-stroke" fill="none" stroke-linecap="round" stroke-linejoin="round" stroke-miterlimit="4" stroke="#f4f4f4" stroke-width="2" stroke-opacity="1"><g><path d="M 96.5 83.5L 135 124.5L 117.5 156.5L 108 151L 121.5 125.5L 96.5 99L 96.5 83.5Z"></path></g></g><g id="cp_0_g-0_144894i15f4nif-stroke" fill="none" stroke-linecap="round" stroke-linejoin="round" stroke-miterlimit="4" stroke="#f4f4f4" stroke-width="2" stroke-opacity="1"><g><path d="M 59.5 106C 59.5 113.1797 65.3203 119 72.5 119C 79.6797 119 85.5 113.1797 85.5 106L 78.5 106C 78.5 109.3137 75.8137 112 72.5 112C 69.1863 112 66.5 109.3137 66.5 106L 59.5 106ZM 72.5 34L 72.5 10"></path></g></g><g id="cp_0_g-0_144894i15f4nif-stroke" fill="none" stroke-linecap="round" stroke-linejoin="round" stroke-miterlimit="4" stroke="#f4f4f4" stroke-width="2" stroke-opacity="1"><g><path d="M 216 83.5L 177.5 124.5L 195 156.5L 204.5 151L 191 125.5L 216 99L 216 83.5Z"></path></g></g><g id="cp_0_g-0_144894i15f4nif-stroke" fill="none" stroke-linecap="round" stroke-linejoin="round" stroke-miterlimit="4" stroke="#f4f4f4" stroke-width="2" stroke-opacity="1"><g><path d="M 264 83.5L 302.5 124.5L 285 156.5L 275.5 151L 289 125.5L 264 99L 264 83.5Z"></path></g></g><g id="cp_0_g-0_144894i15f4nif-stroke" fill="none" stroke-linecap="round" stroke-linejoin="round" stroke-miterlimit="4" stroke="#f4f4f4" stroke-width="2" stroke-opacity="1"><g><path d="M 227 106C 227 113.1797 232.8203 119 240 119C 247.1797 119 253 113.1797 253 106L 246 106C 246 109.3137 243.3137 112 240 112C 236.6863 112 234 109.3137 234 106L 227 106ZM 240 34L 240 10"></path></g></g><g id="cp_0_g-0_144894i15f4nif-stroke" fill="none" stroke-linecap="round" stroke-linejoin="round" stroke-miterlimit="4" stroke="#f4f4f4" stroke-width="2" stroke-opacity="1"><g><path d="M 383.5 83.5L 345 124.5L 362.5 156.5L 372 151L 358.5 125.5L 383.5 99L 383.5 83.5Z"></path></g></g><g id="cp_0_g-0_144894i15f4nif-stroke" fill="none" stroke-linecap="round" stroke-linejoin="round" stroke-miterlimit="4" stroke="#f4f4f4" stroke-width="2" stroke-opacity="1"><g><path d="M 431.5 83.5L 470 124.5L 452.5 156.5L 443 151L 456.5 125.5L 431.5 99L 431.5 83.5Z"></path></g></g><g id="cp_0_g-0_144894i15f4nif-stroke" fill="none" stroke-linecap="round" stroke-linejoin="round" stroke-miterlimit="4" stroke="#f4f4f4" stroke-width="2" stroke-opacity="1"><g><path d="M 394.5 106C 394.5 113.1797 400.3203 119 407.5 119C 414.6797 119 420.5 113.1797 420.5 106L 413.5 106C 413.5 109.3137 410.8137 112 407.5 112C 404.1863 112 401.5 109.3137 401.5 106L 394.5 106Z"></path></g></g><g id="cp_0_g-0_144894i15f4nif-stroke" fill="none" stroke-linecap="round" stroke-linejoin="round" stroke-miterlimit="4" stroke="#f4f4f4" stroke-width="2" stroke-opacity="1"><g><path d="M 551 83.5L 512.5 124.5L 530 156.5L 539.5 151L 526 125.5L 551 99L 551 83.5Z"></path></g></g><g id="cp_0_g-0_144894i15f4nif-stroke" fill="none" stroke-linecap="round" stroke-linejoin="round" stroke-miterlimit="4" stroke="#f4f4f4" stroke-width="2" stroke-opacity="1"><g><path d="M 599 83.5L 637.5 124.5L 620 156.5L 610.5 151L 624 125.5L 599 99L 599 83.5Z"></path></g></g><g id="cp_0_g-0_144894i15f4nif-stroke" fill="none" stroke-linecap="round" stroke-linejoin="round" stroke-miterlimit="4" stroke="#f4f4f4" stroke-width="2" stroke-opacity="1"><g><path d="M 562 106C 562 113.1797 567.8203 119 575 119C 582.1797 119 588 113.1797 588 106L 581 106C 581 109.3137 578.3137 112 575 112C 571.6863 112 569 109.3137 569 106L 562 106ZM 407.5 34L 407.5 10M 575 34L 575 10"></path></g></g></g><g id="g-root-cp_1_g-1_zoer0215f4oao-stroke" data-item-order="-346564" transform="translate(73.5, 122)"><g id="cp_1_g-1_zoer0215f4oao-stroke" fill="none" stroke-linecap="round" stroke-linejoin="round" stroke-miterlimit="4" stroke="#2c2c2c" stroke-width="2" stroke-opacity="1"><g><path d="M 22 10L 70 10L 70 82L 22 82ZM 10 136C 10 155.882251 26.117749 172 46 172C 65.882251 172 82 155.882251 82 136C 82 116.117749 65.882251 100 46 100C 26.117749 100 10 116.117749 10 136"></path></g></g><g id="cp_1_g-1_zoer0215f4oao-stroke" fill="none" stroke-linecap="round" stroke-linejoin="round" stroke-miterlimit="4" stroke="#2c2c2c" stroke-width="2" stroke-opacity="1"><g><path d="M 40 82C 40 85.3137 42.6863 88 46 88C 49.3137 88 52 85.3137 52 82L 40 82Z"></path></g></g></g><g id="g-root-cp_2_g-2_qsrqr615f4p3d-stroke" data-item-order="-346556" transform="translate(241, 122)"><g id="cp_2_g-2_qsrqr615f4p3d-stroke" fill="none" stroke-linecap="round" stroke-linejoin="round" stroke-miterlimit="4" stroke="#2c2c2c" stroke-width="2" stroke-opacity="1"><g><path d="M 22 10L 70 10L 70 82L 22 82ZM 10 136C 10 155.882251 26.117749 172 46 172C 65.882251 172 82 155.882251 82 136C 82 116.117749 65.882251 100 46 100C 26.117749 100 10 116.117749 10 136"></path></g></g><g id="cp_2_g-2_qsrqr615f4p3d-stroke" fill="none" stroke-linecap="round" stroke-linejoin="round" stroke-miterlimit="4" stroke="#2c2c2c" stroke-width="2" stroke-opacity="1"><g><path d="M 40 82C 40 85.3137 42.6863 88 46 88C 49.3137 88 52 85.3137 52 82L 40 82Z"></path></g></g></g><g id="g-root-cp_3_g-3_qsrqr615f4p3e-stroke" data-item-order="-346548" transform="translate(408.5, 122)"><g id="cp_3_g-3_qsrqr615f4p3e-stroke" fill="none" stroke-linecap="round" stroke-linejoin="round" stroke-miterlimit="4" stroke="#2c2c2c" stroke-width="2" stroke-opacity="1"><g><path d="M 22 10L 70 10L 70 82L 22 82ZM 10 136C 10 155.882251 26.117749 172 46 172C 65.882251 172 82 155.882251 82 136C 82 116.117749 65.882251 100 46 100C 26.117749 100 10 116.117749 10 136"></path></g></g><g id="cp_3_g-3_qsrqr615f4p3e-stroke" fill="none" stroke-linecap="round" stroke-linejoin="round" stroke-miterlimit="4" stroke="#2c2c2c" stroke-width="2" stroke-opacity="1"><g><path d="M 40 82C 40 85.3137 42.6863 88 46 88C 49.3137 88 52 85.3137 52 82L 40 82Z"></path></g></g></g><g id="g-root-cp_4_g-4_mcy8mq15f4pvn-stroke" data-item-order="-346540" transform="translate(576, 122)"><g id="cp_4_g-4_mcy8mq15f4pvn-stroke" fill="none" stroke-linecap="round" stroke-linejoin="round" stroke-miterlimit="4" stroke="#2c2c2c" stroke-width="2" stroke-opacity="1"><g><path d="M 22 10L 70 10L 70 82L 22 82ZM 10 136C 10 155.882251 26.117749 172 46 172C 65.882251 172 82 155.882251 82 136C 82 116.117749 65.882251 100 46 100C 26.117749 100 10 116.117749 10 136"></path></g></g><g id="cp_4_g-4_mcy8mq15f4pvn-stroke" fill="none" stroke-linecap="round" stroke-linejoin="round" stroke-miterlimit="4" stroke="#2c2c2c" stroke-width="2" stroke-opacity="1"><g><path d="M 40 82C 40 85.3137 42.6863 88 46 88C 49.3137 88 52 85.3137 52 82L 40 82Z"></path></g></g></g><g id="g-root-tx_technica_dhxpgy15f4nik-stroke" data-item-order="0" transform="translate(236, 38)"></g><g id="g-root-ic_chec_1lwr7si15f4nbh-stroke" data-item-order="0" transform="translate(85.5, 224)"><g id="ic_chec_1lwr7si15f4nbh-stroke" fill="none" stroke-linecap="round" stroke-linejoin="round" stroke-miterlimit="4" stroke="#2c2c2c" stroke-width="2" stroke-opacity="1"><g><path d="M 45.900002 24.400139L 21.900021 24.400139L 21.900021 56.4002L 45.900002 56.4002L 45.900002 24.400139ZM 49.900002 35.5998L 56.299999 35.5998M 49.900002 43.5998L 56.299999 43.5998M 49.900002 51.5998L 54.299999 51.5998C 55.5 51.5998 56.299999 50.799801 56.299999 49.5998L 56.299999 29.599859C 56.299999 28.39986 55.5 27.599859 54.299999 27.599859L 49.900002 27.599859M 22.900021 34.999802L 45.900002 34.999802M 22.900021 45.999802L 45.900002 45.999802M 17.899981 35.5998L 11.5 35.5998M 17.899981 43.5998L 11.5 43.5998M 17.9 51.5998L 13.5 51.5998C 12.3 51.5998 11.5 50.799801 11.5 49.5998L 11.5 29.599859C 11.5 28.39986 12.3 27.599859 13.5 27.599859L 17.9 27.599859M 10 10M 30.9 13.59986L 33.900002 16.399839L 38.900002 11.599854"></path></g></g></g><g id="g-root-ic_moni_dg2a7m15f62o7-stroke" data-item-order="0" transform="translate(253.5, 224)"><g id="ic_moni_dg2a7m15f62o7-stroke" fill="none" stroke-linecap="round" stroke-linejoin="round" stroke-miterlimit="4" stroke="#2c2c2c" stroke-width="2" stroke-opacity="1"><g><path d="M 40.440002 56L 29.360001 56C 31.133989 53.689739 32.184761 50.906239 32.380001 48L 37.379997 48C 37.591537 50.909462 38.655876 53.692051 40.439999 56ZM 26 56L 43.82 56M 55 48L 13 48C 11.895431 48 11 47.104568 11 46L 11 14C 11 12.895431 11.895431 12 13 12L 55 12C 56.104568 12 57 12.895431 57 14L 57 46C 57 47.104568 56.104568 48 55 48ZM 11 42L 57 42M 22 37L 22 24.48C 21.998402 24.175037 22.138868 23.886711 22.380001 23.700001L 25.799999 18.220001C 25.973419 18.074379 26.193581 17.996258 26.42 18L 41.580002 18C 41.806419 17.996258 42.026581 18.074379 42.200001 18.220001L 45.619999 23.700001C 45.861134 23.886711 46.001598 24.175037 46 24.48L 46 37M 45.880001 24L 22.119999 24M 34 18L 34 24M 35 32L 41 32C 41 32 42 32 42 33L 42 35C 42 35 42 36 41 36L 35 36C 35 36 34 36 34 35L 34 33C 34 33 34 32 35 32"></path></g></g></g><g id="g-root-ic_data_4hawj615f7gga-stroke" data-item-order="0" transform="translate(421.5, 224)"><g id="ic_data_4hawj615f7gga-stroke" fill="none" stroke-linecap="round" stroke-linejoin="round" stroke-miterlimit="4" stroke="#2c2c2c" stroke-width="2" stroke-opacity="1"><g><path d="M 16 18C 16 21.865993 24.058876 25 34 25C 43.941124 25 52 21.865993 52 18C 52 14.134007 43.941124 11 34 11C 24.058876 11 16 14.134007 16 18M 16 18L 16 50C 16 53.866001 24.057999 57 34 57C 43.942001 57 52 53.866001 52 50L 52 18M 52 25C 52 28.865999 43.942001 32 34 32C 24.057999 32 16 28.865999 16 25M 52 32C 52 35.865997 43.942001 39 34 39C 24.057999 39 16 35.865997 16 32"></path></g></g></g><g id="g-root-ic_neur_4njnea15f7i0z-stroke" data-item-order="0" transform="translate(589.5, 224)"><g id="ic_neur_4njnea15f7i0z-stroke" fill="none" stroke-linecap="round" stroke-linejoin="round" stroke-miterlimit="4" stroke="#2c2c2c" stroke-width="2" stroke-opacity="1"><g><path d="M 39.32 27.976C 40.610138 27.976 41.655998 26.930138 41.655998 25.639999L 41.655998 23.472C 41.655998 22.851067 41.903206 22.25568 42.343025 21.817364C 42.782841 21.379047 43.37907 21.133873 44 21.136L 51.818001 21.136M 27.257999 27.983999L 46.164001 27.983999M 51.810001 21.136C 51.810001 22.516712 52.929287 23.636002 54.310001 23.636002C 55.690712 23.636002 56.810001 22.516712 56.810001 21.136002C 56.810001 19.755287 55.690712 18.636002 54.310001 18.636002C 52.929287 18.636002 51.810001 19.755287 51.810001 21.136002M 46.529999 13.5C 46.529999 14.880713 47.649288 16 49.029999 16C 50.410713 16 51.529999 14.880713 51.529999 13.5C 51.529999 12.119288 50.410713 11 49.029999 11C 47.649288 11 46.529999 12.119288 46.529999 13.5M 39.32 27.976C 40.610138 27.976 41.655998 29.021862 41.655998 30.312L 41.655998 32.48C 41.655998 33.100937 41.903206 33.69632 42.343025 34.134636C 42.782841 34.572952 43.37907 34.818127 44 34.816002L 51.818001 34.816002M 51.810001 34.816002C 51.810001 36.196712 52.929287 37.316002 54.310001 37.316002C 55.690712 37.316002 56.810001 36.196712 56.810001 34.816002C 56.810001 33.435287 55.690712 32.316002 54.310001 32.316002C 52.929287 32.316002 51.810001 33.435287 51.810001 34.816002M 46.164001 27.983999C 46.164001 29.364712 47.283287 30.484001 48.664001 30.484001C 50.044712 30.484001 51.164001 29.364712 51.164001 27.984001C 51.164001 26.603289 50.044712 25.484001 48.664001 25.484001C 47.283287 25.484001 46.164001 26.603289 46.164001 27.984001M 45.57 41.41C 44.39933 44.01041 42.573826 46.262489 40.272003 47.945999L 40.271999 57M 23.472 57L 23.472 51.959999L 21.799999 51.959999C 19.016485 51.959999 16.76 49.703514 16.76 46.920002L 16.76 41.877998L 12.03 41.877998C 11.761297 41.878189 11.508718 41.749825 11.350487 41.532654C 11.192255 41.315479 11.14747 41.035713 11.23 40.779999C 14.71 30 17.130001 18.358 30.612 18.358M 35.400002 27.983999L 38 16.612C 38.414459 14.791643 40.033058 13.500087 41.900002 13.5L 46.535999 13.5"></path></g></g></g><g id="g-root-tx_backendc_4lrua15f8v0s-stroke" data-item-order="0" transform="translate(44, 296)"></g><g id="g-root-tx_frontend_143ls1e15f8vly-stroke" data-item-order="0" transform="translate(218, 296)"></g><g id="g-root-tx_datapers_qs59o215f8x6w-stroke" data-item-order="0" transform="translate(362, 296)"></g><g id="g-root-tx_mlai_dhb8du15f8vm2-stroke" data-item-order="0" transform="translate(584, 296)"></g><g id="g-root-tx_jinja2te_v7yrsi15f8wen-stroke" data-item-order="0" transform="translate(206, 332)"></g><g id="g-root-tx_sqlalche_mcy8mq15f8utd-stroke" data-item-order="0" transform="translate(374, 332)"></g><g id="g-root-tx_python3x_1lu9bg215f8wel-stroke" data-item-order="0" transform="translate(38, 332)"></g><g id="g-root-tx_scikitle_91hq9e15f8web-stroke" data-item-order="0" transform="translate(542, 332)"></g></g></g></svg>