<?xml version="1.0" encoding="utf-8" standalone="yes"?>
<!DOCTYPE svg PUBLIC "-//W3C//DTD SVG 1.1//EN" "http://www.w3.org/Graphics/SVG/1.1/DTD/svg11.dtd">
<svg style="fill:none;stroke:none;fill-rule:evenodd;clip-rule:evenodd;stroke-linecap:round;stroke-linejoin:round;stroke-miterlimit:1.5;" version="1.1" xmlns="http://www.w3.org/2000/svg" xmlns:xlink="http://www.w3.org/1999/xlink" width="984" height="744" viewBox="0 0 984 744"><style class="text-font-style fontImports" data-font-family="Roboto">@import url(https://fonts.googleapis.com/css2?family=Roboto:wght@400;700&amp;amp;display=block);</style><g id="items" style="isolation: isolate"><g id="blend" style="mix-blend-mode: normal"><g id="g-root-cp_resolution_g-resolution_1d156aa16irtoi-fill" data-item-order="-606518" transform="translate(458.0230712890625, 482)"><g id="cp_resolution_g-resolution_1d156aa16irtoi-fill-merged" stroke="none" fill="#8769fd" fill-opacity="1"><g><path d="M10 94 H237.977 V106L285.977 58L237.977 10 V22 H153.975C140.952 39.363 124.835 54.311 106.333 66.037C77.519 84.298 44.111 93.995 10 94"></path></g></g></g><g id="g-root-cp_5_g-5_145i61e16iruh7-fill" data-item-order="-606512" transform="translate(278, 352.248046875)"><g id="cp_5_g-5_145i61e16iruh7-fill-merged" stroke="none" fill="#4f91fc" fill-opacity="1"><g><path d="M15.651 88.499C21.527 111.397 31.85 132.885 46 151.752 H185.607C171.203 151.166 157.046 147.704 143.975 141.553C129.577 134.777 116.853 124.906 106.711 112.645C96.569 100.384 89.259 86.035 85.304 70.622C81.348 55.21 80.844 39.114 83.828 23.484L13.193 10C8.224 36.028 9.063 62.833 15.651 88.499"></path></g></g></g><g id="g-root-cp_4_g-4_zqb50216irs3o-fill" data-item-order="-606506" transform="translate(281.18798828125, 211.65673828125)"><g id="cp_4_g-4_zqb50216irs3o-fill-merged" stroke="none" fill="#1ac3fb" fill-opacity="1"><g><path d="M10 150.624C16.399 117.071 32.212 86.032 55.593 61.131C78.974 36.23 108.957 18.496 142.04 10L159.927 79.651C140.061 84.753 122.056 95.402 108.016 110.355C93.976 125.307 84.48 143.946 80.638 164.094L10 150.624"></path></g></g></g><g id="g-root-cp_3_g-3_zqb50216irs3p-fill" data-item-order="-606500" transform="translate(413.2769775390625, 206)"><g id="cp_3_g-3_zqb50216irs3p-fill-merged" stroke="none" fill="#43dd93" fill-opacity="1"><g><path d="M10 15.644C43.086 7.158 77.904 8.26 110.386 18.823C142.869 29.387 171.676 48.974 193.442 75.298L138.023 121.122C124.952 105.314 107.654 93.552 88.148 87.209C68.642 80.866 47.734 80.204 27.866 85.3L10 15.644"></path></g></g></g><g id="g-root-cp_2_g-2_quo4r616irswe-fill" data-item-order="-606494" transform="translate(541.2969970703125, 271.29296875)"><g id="cp_2_g-2_quo4r616irswe-fill-merged" stroke="none" fill="#f79438" fill-opacity="1"><g><path d="M65.418 10C87.185 36.323 101.013 68.296 105.287 102.185C109.561 136.073 104.104 170.478 89.554 201.382L24.494 170.75C33.231 152.193 36.508 131.533 33.941 111.183C31.375 90.833 23.071 71.633 10 55.826L65.418 10"></path></g></g></g><g id="g-root-cp_1_g-1_quo4r616irswf-fill" data-item-order="-606488" transform="translate(457.8909912109375, 432.0810546875)"><g id="cp_1_g-1_quo4r616irswf-fill-merged" stroke="none" fill="#ffe711" fill-opacity="1"><g><path d="M172.931 40.657C158.369 71.555 135.316 97.671 106.466 115.956C77.615 134.241 44.157 143.94 10 143.919 V72.008C30.554 72.021 50.646 66.197 67.97 55.217C85.295 44.237 99.138 28.554 107.882 10L172.931 40.657"></path></g></g></g><g id="g-root-cp_problem_g-problem_meummq16irtoo-fill" data-item-order="-606482" transform="translate(205, 494)"><g id="cp_problem_g-problem_meummq16irtoo-fill-merged" stroke="none" fill="#fb6762" fill-opacity="1"><g><path d="M10 10 H263 V82 H10 V10"></path></g></g></g><g id="g-root-tx_automate_v48w0i16iyvie-fill" data-item-order="0" transform="translate(182, 248)"><g id="tx_automate_v48w0i16iyvie-fill-merged" stroke="none" fill="#f4f4f4" fill-opacity="1"><g><text style="font: 15px Roboto, sans-serif; white-space: pre;" transform="translate(130, 28)" font-size="15px" font-family="Roboto, sans-serif"><tspan x="-116.38" y="-0.5" dominant-baseline="ideographic">Automated ticket </tspan><tspan x="-56.3" y="17.5" dominant-baseline="ideographic">creation</tspan></text></g></g></g><g id="g-root-ic_1_i0a2oi16iw0sq-fill" data-item-order="0" transform="translate(340, 254)"></g><g id="g-root-ic_2_v7zqj616iw1z5-fill" data-item-order="0" transform="translate(481, 223)"></g><g id="g-root-tx_comprehe_1lqjfo216iyvi9-fill" data-item-order="0" transform="translate(662, 278)"><g id="tx_comprehe_1lqjfo216iyvi9-fill-merged" stroke="none" fill="#f79438" fill-opacity="1"><g><text style="font: bold 20px Roboto, sans-serif; white-space: pre;" transform="translate(10, 34)" font-weight="bold" font-size="20px" font-family="Roboto, sans-serif"><tspan x="2" y="-0.5" dominant-baseline="ideographic">Comprehensive </tspan><tspan x="2" y="23.5" dominant-baseline="ideographic">Ingestion</tspan></text></g></g></g><g id="g-root-tx_fastaccu_4hyccy16iyvii-fill" data-item-order="0" transform="translate(626, 650)"><g id="tx_fastaccu_4hyccy16iyvii-fill-merged" stroke="none" fill="#f4f4f4" fill-opacity="1"><g><text style="font: 15px Roboto, sans-serif; white-space: pre;" transform="translate(82, 28)" font-size="15px" font-family="Roboto, sans-serif"><tspan x="-64.38" y="-0.5" dominant-baseline="ideographic">Fast, accurate, and </tspan><tspan x="-28.56" y="17.5" dominant-baseline="ideographic">efficient</tspan></text></g></g></g><g id="g-root-ic_filt_qvx2xe16iumm8-fill" data-item-order="0" transform="translate(578, 350)"></g><g id="g-root-tx_multifor_1cviwia16iyt56-fill" data-item-order="0" transform="translate(662, 338)"><g id="tx_multifor_1cviwia16iyt56-fill-merged" stroke="none" fill="#f4f4f4" fill-opacity="1"><g><text style="font: 15px Roboto, sans-serif; white-space: pre;" transform="translate(10, 22)" font-size="15px" font-family="Roboto, sans-serif"><tspan x="2" y="8.5" dominant-baseline="ideographic">Multi-format log parsing</tspan></text></g></g></g><g id="g-root-tx_continuo_m98cuq16iyt5b-fill" data-item-order="0" transform="translate(146, 350)"><g id="tx_continuo_m98cuq16iyt5b-fill-merged" stroke="none" fill="#4f91fc" fill-opacity="1"><g><text style="font: bold 20px Roboto, sans-serif; white-space: pre;" transform="translate(118, 34)" font-weight="bold" font-size="20px" font-family="Roboto, sans-serif"><tspan x="-104.85" y="-0.5" dominant-baseline="ideographic">Continuous </tspan><tspan x="-80.79" y="23.5" dominant-baseline="ideographic">Learning</tspan></text></g></g></g><g id="g-root-tx_implemen_1hiu3o216irrwq-fill" data-item-order="0" transform="translate(374, 362)"><g id="tx_implemen_1hiu3o216irrwq-fill-merged" stroke="none" fill="#f4f4f4" fill-opacity="1"><g><text style="font: bold 20px Roboto, sans-serif; white-space: pre;" transform="translate(94, 34)" font-weight="bold" font-size="20px" font-family="Roboto, sans-serif"><tspan x="-80.75" y="-0.5" dominant-baseline="ideographic">Implement Smart </tspan><tspan x="-61.13" y="23.5" dominant-baseline="ideographic">Log Platform</tspan></text></g></g></g><g id="g-root-ic_asce_1uo1v6a16ixfk3-fill" data-item-order="0" transform="translate(302, 412)"></g><g id="g-root-tx_modelret_hteuqa16iytxk-fill" data-item-order="0" transform="translate(110, 410)"><g id="tx_modelret_hteuqa16iytxk-fill-merged" stroke="none" fill="#f4f4f4" fill-opacity="1"><g><text style="font: 15px Roboto, sans-serif; white-space: pre;" transform="translate(154, 28)" font-size="15px" font-family="Roboto, sans-serif"><tspan x="-133.05" y="-0.5" dominant-baseline="ideographic">Model retraining for </tspan><tspan x="-62.03" y="17.5" dominant-baseline="ideographic">accuracy</tspan></text></g></g></g><g id="g-root-tx_intellig_zk2e4y16iyuq5-fill" data-item-order="0" transform="translate(182, 188)"><g id="tx_intellig_zk2e4y16iyuq5-fill-merged" stroke="none" fill="#1ac3fb" fill-opacity="1"><g><text style="font: bold 20px Roboto, sans-serif; white-space: pre;" transform="translate(130, 34)" font-weight="bold" font-size="20px" font-family="Roboto, sans-serif"><tspan x="-92.72" y="-0.5" dominant-baseline="ideographic">Intelligent </tspan><tspan x="-106.94" y="23.5" dominant-baseline="ideographic">Automation</tspan></text></g></g></g><g id="g-root-tx_rootcaus_18fpedu16iytxg-fill" data-item-order="0" transform="translate(506, 158)"><g id="tx_rootcaus_18fpedu16iytxg-fill-merged" stroke="none" fill="#f4f4f4" fill-opacity="1"><g><text style="font: 15px Roboto, sans-serif; white-space: pre;" transform="translate(82, 28)" font-size="15px" font-family="Roboto, sans-serif"><tspan x="-68.44" y="-0.5" dominant-baseline="ideographic">Root cause analysis </tspan><tspan x="-30.66" y="17.5" dominant-baseline="ideographic">provided</tspan></text></g></g></g><g id="g-root-tx_smartlog_4o738216irsw1-fill" data-item-order="0" transform="translate(296, 38)"><g id="tx_smartlog_4o738216irsw1-fill-merged" stroke="none" fill="#f4f4f4" fill-opacity="1"><g><text style="font: bold 25px Roboto, sans-serif; white-space: pre;" transform="translate(196, 28)" font-weight="bold" font-size="25px" font-family="Roboto, sans-serif"><tspan x="-179.57" y="14.5" dominant-baseline="ideographic">Smart Log Intelligence Platform</tspan></text></g></g></g><g id="g-root-ic_robo_1cxebrm16iun7z-fill" data-item-order="0" transform="translate(513, 482)"></g><g id="g-root-ic_sear_qwjk0i16irrwr-fill" data-item-order="0" transform="translate(310, 506)"></g><g id="g-root-ic_chec_1d0ip7616ixf5w-fill" data-item-order="0" transform="translate(614, 506)"></g><g id="g-root-tx_manuallo_v2zxua16iytc5-fill" data-item-order="0" transform="translate(183, 590)"><g id="tx_manuallo_v2zxua16iytc5-fill-merged" stroke="none" fill="#f4f4f4" fill-opacity="1"><g><text style="font: bold 20px Roboto, sans-serif; white-space: pre;" transform="translate(70, 34)" font-weight="bold" font-size="20px" font-family="Roboto, sans-serif"><tspan x="-55.06" y="-0.5" dominant-baseline="ideographic">Manual Log </tspan><tspan x="-40.61" y="23.5" dominant-baseline="ideographic">Analysis</tspan></text></g></g></g><g id="g-root-tx_intellig_4gpe6q16iytc7-fill" data-item-order="0" transform="translate(404.5, 590)"><g id="tx_intellig_4gpe6q16iytc7-fill-merged" stroke="none" fill="#ffe711" fill-opacity="1"><g><text style="font: bold 20px Roboto, sans-serif; white-space: pre;" transform="translate(76, 34)" font-weight="bold" font-size="20px" font-family="Roboto, sans-serif"><tspan x="-59.98" y="-0.5" dominant-baseline="ideographic">Intelligent AI </tspan><tspan x="-40.61" y="23.5" dominant-baseline="ideographic">Analysis</tspan></text></g></g></g><g id="g-root-tx_automate_ddlclu16iyupt-fill" data-item-order="0" transform="translate(620, 590)"><g id="tx_automate_ddlclu16iyupt-fill-merged" stroke="none" fill="#f4f4f4" fill-opacity="1"><g><text style="font: bold 20px Roboto, sans-serif; white-space: pre;" transform="translate(88, 34)" font-weight="bold" font-size="20px" font-family="Roboto, sans-serif"><tspan x="-71.34" y="-0.5" dominant-baseline="ideographic">Automated Log </tspan><tspan x="-61.72" y="23.5" dominant-baseline="ideographic">Management</tspan></text></g></g></g><g id="g-root-tx_aipowere_vw2a16iyu4g-fill" data-item-order="0" transform="translate(410.5, 650)"><g id="tx_aipowere_vw2a16iyu4g-fill-merged" stroke="none" fill="#f4f4f4" fill-opacity="1"><g><text style="font: 15px Roboto, sans-serif; white-space: pre;" transform="translate(70, 28)" font-size="15px" font-family="Roboto, sans-serif"><tspan x="-57.32" y="-0.5" dominant-baseline="ideographic">AI-powered error </tspan><tspan x="-46.12" y="17.5" dominant-baseline="ideographic">classification</tspan></text></g></g></g><g id="g-root-tx_actionab_18fpedu16iytxf-fill" data-item-order="0" transform="translate(524, 98)"><g id="tx_actionab_18fpedu16iytxf-fill-merged" stroke="none" fill="#43dd93" fill-opacity="1"><g><text style="font: bold 20px Roboto, sans-serif; white-space: pre;" transform="translate(64, 34)" font-weight="bold" font-size="20px" font-family="Roboto, sans-serif"><tspan x="-50.73" y="-0.5" dominant-baseline="ideographic">Actionable </tspan><tspan x="-38.64" y="23.5" dominant-baseline="ideographic">Insights</tspan></text></g></g></g><g id="g-root-tx_slowinac_hrjfgy16iyux2-fill" data-item-order="0" transform="translate(165, 650)"><g id="tx_slowinac_hrjfgy16iyux2-fill-merged" stroke="none" fill="#f4f4f4" fill-opacity="1"><g><text style="font: 15px Roboto, sans-serif; white-space: pre;" transform="translate(88, 28)" font-size="15px" font-family="Roboto, sans-serif"><tspan x="-71.66" y="-0.5" dominant-baseline="ideographic">Slow, inaccurate, and </tspan><tspan x="-34.54" y="17.5" dominant-baseline="ideographic">inefficient</tspan></text></g></g></g><g id="g-root-cp_resolution_g-resolution_1d156aa16irtoi-stroke" data-item-order="-606518" transform="translate(458.0230712890625, 482)"><g id="cp_resolution_g-resolution_1d156aa16irtoi-stroke" fill="none" stroke-linecap="round" stroke-linejoin="round" stroke-miterlimit="4" stroke="#2c2c2c" stroke-width="2" stroke-opacity="1"><g><path d="M 10 94L 237.9766 94L 237.9766 106L 285.9766 58L 237.9766 10L 237.9766 22L 153.975 22"></path></g></g></g><g id="g-root-cp_5_g-5_145i61e16iruh7-stroke" data-item-order="-606512" transform="translate(278, 352.248046875)"><g id="cp_5_g-5_145i61e16iruh7-stroke" fill="none" stroke-linecap="round" stroke-linejoin="round" stroke-miterlimit="4" stroke="#2c2c2c" stroke-width="2" stroke-opacity="1"><g><path d="M 15.6506 88.4989C 21.5273 111.3966 31.8495 132.8847 46 151.752L 185.6075 151.752C 171.203 151.1662 157.0455 147.7038 143.9746 141.5526C 129.5771 134.7771 116.8532 124.9064 106.7112 112.6452C 96.5693 100.3841 89.2595 86.0349 85.3039 70.6223C 81.3482 55.2098 80.8443 39.1139 83.828 23.4841L 13.1928 10C 8.224 36.0282 9.0633 62.8325 15.6506 88.4989ZM 46 151.752C 31.8495 132.8847 21.5273 111.3966 15.6506 88.4989C 9.0633 62.8325 8.224 36.0282 13.1928 10M 185.6075 151.752C 171.203 151.1662 157.0455 147.7038 143.9746 141.5526C 129.5771 134.7771 116.8532 124.9064 106.7112 112.6452C 96.5693 100.3841 89.2595 86.0349 85.3039 70.6223C 81.3482 55.2098 80.8443 39.1139 83.828 23.4841"></path></g></g></g><g id="g-root-cp_4_g-4_zqb50216irs3o-stroke" data-item-order="-606506" transform="translate(281.18798828125, 211.65673828125)"><g id="cp_4_g-4_zqb50216irs3o-stroke" fill="none" stroke-linecap="round" stroke-linejoin="round" stroke-miterlimit="4" stroke="#2c2c2c" stroke-width="2" stroke-opacity="1"><g><path d="M 142.0403 10C 108.9567 18.4963 78.9735 36.2304 55.5926 61.1311C 32.2118 86.0318 16.3986 117.0711 10 150.6235L 80.6377 164.0944C 84.48 143.9463 93.9758 125.3074 108.0159 110.3546C 122.056 95.4018 140.0608 84.7525 159.9274 79.6506"></path></g></g></g><g id="g-root-cp_3_g-3_zqb50216irs3p-stroke" data-item-order="-606500" transform="translate(413.2769775390625, 206)"><g id="cp_3_g-3_zqb50216irs3p-stroke" fill="none" stroke-linecap="round" stroke-linejoin="round" stroke-miterlimit="4" stroke="#2c2c2c" stroke-width="2" stroke-opacity="1"><g><path d="M 193.4419 75.2978C 171.6758 48.974 142.8692 29.3866 110.3865 18.8235C 77.9038 8.2604 43.086 7.1577 10 15.644L 27.8663 85.2999C 47.7344 80.2039 68.6423 80.8661 88.148 87.2092C 107.6537 93.5523 124.952 105.3144 138.0225 121.1218"></path></g></g></g><g id="g-root-cp_2_g-2_quo4r616irswe-stroke" data-item-order="-606494" transform="translate(541.2969970703125, 271.29296875)"><g id="cp_2_g-2_quo4r616irswe-stroke" fill="none" stroke-linecap="round" stroke-linejoin="round" stroke-miterlimit="4" stroke="#2c2c2c" stroke-width="2" stroke-opacity="1"><g><path d="M 89.5544 201.3816C 104.1042 170.4784 109.5608 136.0732 105.2868 102.1846C 101.0128 68.296 87.1847 36.323 65.4177 10L 10 55.8261C 23.071 71.633 31.3747 90.8326 33.9412 111.1826C 36.5077 131.5326 33.2311 152.1927 24.494 170.75"></path></g></g></g><g id="g-root-cp_1_g-1_quo4r616irswf-stroke" data-item-order="-606488" transform="translate(457.8909912109375, 432.0810546875)"><g id="cp_1_g-1_quo4r616irswf-stroke" fill="none" stroke-linecap="round" stroke-linejoin="round" stroke-miterlimit="4" stroke="#2c2c2c" stroke-width="2" stroke-opacity="1"><g><path d="M 10 143.9193C 44.1571 143.9397 77.6149 134.241 106.4656 115.956C 135.3163 97.671 158.3689 71.5546 172.9307 40.657L 107.8823 10C 99.138 28.5538 85.295 44.2367 67.9702 55.2167C 50.6455 66.1968 30.5542 72.0208 10.0431 72.0085"></path></g></g></g><g id="g-root-cp_problem_g-problem_meummq16irtoo-stroke" data-item-order="-606482" transform="translate(205, 494)"><g id="cp_problem_g-problem_meummq16irtoo-stroke" fill="none" stroke-linecap="round" stroke-linejoin="round" stroke-miterlimit="4" stroke="#2c2c2c" stroke-width="2" stroke-opacity="1"><g><path d="M 10 10L 263 10L 263 82L 10 82L 10 10Z"></path></g></g></g><g id="g-root-tx_automate_v48w0i16iyvie-stroke" data-item-order="0" transform="translate(182, 248)"></g><g id="g-root-ic_1_i0a2oi16iw0sq-stroke" data-item-order="0" transform="translate(340, 254)"><g id="ic_1_i0a2oi16iw0sq-stroke" fill="none" stroke-linecap="round" stroke-linejoin="round" stroke-miterlimit="4" stroke="#2c2c2c" stroke-width="2" stroke-opacity="1"><g><path d="M 29.521999 47.594002L 19.062 40.073997M 24.091999 34.346001L 32.690002 40.720001M 11.642 33.767998C 11.642 37.21315 14.434848 40.006001 17.880001 40.006001C 21.325153 40.006001 24.118 37.21315 24.118 33.767998C 24.118 30.322847 21.325153 27.530001 17.880001 27.530001C 14.434848 27.530001 11.642 30.322847 11.642 33.767998M 23.594 31.266001L 32.93 22.174M 30.063999 15.618L 17.504 27.542M 29.879999 17.274C 29.879478 20.290947 32.32505 22.736942 35.341999 22.736942C 38.358948 22.736942 40.80452 20.290947 40.804001 17.274C 40.80452 14.257052 38.358948 11.811057 35.341999 11.811057C 32.32505 11.811057 29.879478 14.257052 29.879999 17.274M 40.400002 19.338001L 45.348 24.4C 46.378819 25.452827 46.401703 27.129435 45.400002 28.210001L 45.400002 28.209999C 44.885574 28.763903 44.166599 29.08275 43.410717 29.092199C 42.654835 29.101646 41.928116 28.800871 41.400002 28.260002L 35.959999 22.702M 12.164 56.189999L 56.164001 56.189999M 29.521999 51.338001L 29.521999 45.894001C 29.580809 42.721199 32.169655 40.179893 35.343002 40.179893C 38.51635 40.179893 41.105194 42.721199 41.164001 45.894001L 41.164001 51.254002M 16.880001 33.436001C 16.880001 33.988285 17.327715 34.436001 17.880001 34.436001C 18.432285 34.436001 18.880001 33.988285 18.880001 33.436001C 18.880001 32.883713 18.432285 32.436001 17.880001 32.436001C 17.327715 32.436001 16.880001 32.883713 16.880001 33.436001M 34.341999 45.849998C 34.341999 46.402287 34.789715 46.849998 35.341999 46.849998C 35.894287 46.849998 36.341999 46.402287 36.341999 45.849998C 36.341999 45.297714 35.894287 44.849998 35.341999 44.849998C 34.789715 44.849998 34.341999 45.297714 34.341999 45.849998M 28.358 51.338001L 42.231998 51.338001C 43.336571 51.338001 44.231998 52.233429 44.231998 53.338001L 44.231998 56.189999L 44.231998 56.189999L 26.358 56.189999L 26.358 56.189999L 26.358 53.338001C 26.358 52.233429 27.253431 51.338001 28.358 51.338001ZM 44.799999 23.818001C 45.17907 23.343254 45.717918 23.022644 46.316002 22.916C 48.798683 22.461636 51.354969 23.132736 53.294308 24.748016C 55.233646 26.363295 56.355934 28.756084 56.358002 31.280001C 56.358002 32.660713 55.238712 33.779999 53.858002 33.779999C 52.477287 33.779999 51.358002 32.660713 51.358002 31.280001C 51.35656 30.23682 50.890659 29.248459 50.086891 28.583487C 49.283123 27.918514 48.224987 27.646002 47.200001 27.84C 46.818302 27.907465 46.426197 27.886251 46.054001 27.778002M 44.243999 28.851999C 44.328419 29.323595 44.275661 29.809511 44.092003 30.252001C 43.681549 31.211271 43.719944 32.303558 44.196747 33.231644C 44.67355 34.159721 45.539146 34.827038 46.558002 35.052002C 47.906677 35.349129 48.759129 36.683319 48.461998 38.031998C 48.164871 39.38068 46.830681 40.233131 45.481998 39.935997C 43.019894 39.389999 40.92701 37.77961 39.768383 35.539597C 38.609756 33.299583 38.504852 30.660921 39.481998 28.335999C 39.621155 27.998751 39.832825 27.696262 40.102001 27.450001"></path></g></g></g><g id="g-root-ic_2_v7zqj616iw1z5-stroke" data-item-order="0" transform="translate(481, 223)"><g id="ic_2_v7zqj616iw1z5-stroke" fill="none" stroke-linecap="round" stroke-linejoin="round" stroke-miterlimit="4" stroke="#2c2c2c" stroke-width="2" stroke-opacity="1"><g><path d="M 36.48 36.98C 36.827034 37.948929 37.002987 38.970806 37 40C 37.007744 44.304981 33.972198 48.015411 29.751007 48.860653C 25.529816 49.705898 21.299652 47.450336 19.649218 43.474289C 17.998783 39.498238 19.388142 34.910049 22.96706 32.517509C 26.545979 30.124971 31.316814 30.595018 34.360001 33.639999M 42.68 31.42C 47.276806 39.143959 45.083679 49.110222 37.669128 54.191025C 30.254576 59.271824 20.168573 57.719795 14.624529 50.644932C 9.080484 43.570068 9.985079 33.405525 16.691357 27.420881C 23.397633 21.436237 33.599201 21.689701 40 28M 11 57L 15.98 52.02M 40.02 52.02L 45 57M 42.860001 25.139999L 42.139999 17.360001L 48.5 11L 50.639999 17.360001L 57 19.5L 50.639999 25.860001L 42.860001 25.139999ZM 48 20L 28 40"></path></g></g></g><g id="g-root-tx_comprehe_1lqjfo216iyvi9-stroke" data-item-order="0" transform="translate(662, 278)"></g><g id="g-root-tx_fastaccu_4hyccy16iyvii-stroke" data-item-order="0" transform="translate(626, 650)"></g><g id="g-root-ic_filt_qvx2xe16iumm8-stroke" data-item-order="0" transform="translate(578, 350)"><g id="ic_filt_qvx2xe16iumm8-stroke" fill="none" stroke-linecap="round" stroke-linejoin="round" stroke-miterlimit="4" stroke="#2c2c2c" stroke-width="2" stroke-opacity="1"><g><path d="M 10 10M 38.969601 36.5L 55.569599 16.099979C 56.169601 15.49998 56.169601 14.50002 55.7696 13.70002C 55.369598 12.90002 54.569599 12.5 53.7696 12.5L 14.169621 12.5C 13.36962 12.5 12.56962 12.90002 12.169621 13.70002C 11.76963 14.50002 11.969642 15.29998 12.36964 16.099979L 28.96966 36.5M 38.969601 36.5L 38.969601 50.5L 28.96966 55.5L 28.96966 36.5M 47.875 25.5L 19.96966 25.5"></path></g></g></g><g id="g-root-tx_multifor_1cviwia16iyt56-stroke" data-item-order="0" transform="translate(662, 338)"></g><g id="g-root-tx_continuo_m98cuq16iyt5b-stroke" data-item-order="0" transform="translate(146, 350)"></g><g id="g-root-tx_implemen_1hiu3o216irrwq-stroke" data-item-order="0" transform="translate(374, 362)"></g><g id="g-root-ic_asce_1uo1v6a16ixfk3-stroke" data-item-order="0" transform="translate(302, 412)"><g id="ic_asce_1uo1v6a16ixfk3-stroke" fill="none" stroke-linecap="round" stroke-linejoin="round" stroke-miterlimit="4" stroke="#2c2c2c" stroke-width="2" stroke-opacity="1"><g><path d="M 11 57L 57 57M 57 25L 44 25C 43.447716 25 43 25.447716 43 26L 43 33L 36 33C 35.447716 33 35 33.447716 35 34L 35 41L 28 41C 27.447716 41 27 41.447716 27 42L 27 49L 20 49C 19.447716 49 19 49.447716 19 50L 19 57M 11 33L 33 11M 23 11L 33 11L 33 21"></path></g></g></g><g id="g-root-tx_modelret_hteuqa16iytxk-stroke" data-item-order="0" transform="translate(110, 410)"></g><g id="g-root-tx_intellig_zk2e4y16iyuq5-stroke" data-item-order="0" transform="translate(182, 188)"></g><g id="g-root-tx_rootcaus_18fpedu16iytxg-stroke" data-item-order="0" transform="translate(506, 158)"></g><g id="g-root-tx_smartlog_4o738216irsw1-stroke" data-item-order="0" transform="translate(296, 38)"></g><g id="g-root-ic_robo_1cxebrm16iun7z-stroke" data-item-order="0" transform="translate(513, 482)"><g id="ic_robo_1cxebrm16iun7z-stroke" fill="none" stroke-linecap="round" stroke-linejoin="round" stroke-miterlimit="4" stroke="#2c2c2c" stroke-width="2" stroke-opacity="1"><g><path d="M 46.068401 32.229599C 46.068401 31.4818 46.016399 30.746 45.9156 30.025999L 48.133999 27.360439C 49.205799 26.07246 49.361401 24.252899 48.523399 22.801739L 47.605598 21.211941C 46.767799 19.76078 45.114201 18.98564 43.462799 19.26992L 40.0462 19.858101C 38.906799 18.9664 37.6404 18.22934 36.278603 17.67836L 35.081001 14.4292C 34.5014 12.85692 33.003403 11.8125 31.327801 11.8125L 29.49202 11.8125C 27.81638 11.8125 26.318319 12.85692 25.73884 14.42918L 24.54224 17.67576C 23.180279 18.22574 21.91308 18.961681 20.772339 19.852341L 17.36134 19.265141C 15.70998 18.98086 14.056459 19.756001 13.21864 21.207161L 12.30076 22.796959C 11.462934 24.248119 11.61841 26.06768 12.69028 27.355659L 14.89684 30.007C 14.7963 30.7246 14.74432 31.458 14.74432 32.203598L 14.74432 32.229599C 14.74432 32.9604 14.79436 33.6796 14.89122 34.384003L 12.68718 37.032402C 11.615298 38.3204 11.459822 40.139999 12.29764 41.591L 13.21552 43.180801C 14.05334 44.632 15.706881 45.4072 17.35824 45.122799L 20.72382 44.5434C 21.88134 45.455002 23.1709 46.206799 24.55954 46.7654L 25.738281 49.9636C 26.31776 51.535801 27.815821 52.5802 29.49148 52.5802L 31.3272 52.5802C 32.1996 52.5802 33.0238 52.297199 33.695198 51.804001M 22.97266 32.201599C 22.97266 36.305599 26.2955 39.6408 30.4118 39.6408C 34.5158 39.6408 37.850998 36.318001 37.850998 32.201599C 37.850998 28.085239 34.528198 24.75 30.4118 24.75C 26.307899 24.75 22.97266 28.07284 22.97266 32.189201L 22.97266 32.201599ZM 43.467999 43.139999L 52.240002 43.139999C 52.240002 43.139999 56.240002 43.139999 56.240002 47.139999L 56.240002 52.188C 56.240002 52.188 56.240002 56.188 52.240002 56.188L 43.467999 56.188C 43.467999 56.188 39.468002 56.188 39.468002 52.188L 39.468002 47.139999C 39.468002 47.139999 39.468002 43.139999 43.467999 43.139999M 10 10M 47.851601 37.994202L 47.851601 43.140598M 10 10M 45.1054 48.504601L 45.1054 50.828201M 10 10M 50.601601 48.504601L 50.601601 50.828201"></path></g></g></g><g id="g-root-ic_sear_qwjk0i16irrwr-stroke" data-item-order="0" transform="translate(310, 506)"><g id="ic_sear_qwjk0i16irrwr-stroke" fill="none" stroke-linecap="round" stroke-linejoin="round" stroke-miterlimit="4" stroke="#2c2c2c" stroke-width="2" stroke-opacity="1"><g><path d="M 35 44.057999C 35 49.060593 39.055405 53.115997 44.057999 53.115997C 49.060593 53.115997 53.115997 49.060593 53.115997 44.057999C 53.115997 39.055405 49.060593 35 44.057999 35C 39.055405 35 35 39.055405 35 44.057999ZM 57 57L 50.504002 50.504002M 19 27L 38 27M 19 33L 31 33M 19 21L 33 21M 19 39L 27 39M 19 45L 27 45M 35 57L 13 57C 11.895431 57 11 56.104568 11 55L 11 13C 11 11.895431 11.895431 11 13 11L 39.585999 11C 40.11639 11.000113 40.625015 11.210901 41 11.586L 48.414001 19C 48.789101 19.374985 48.999886 19.88361 49 20.414L 49 29"></path></g></g></g><g id="g-root-ic_chec_1d0ip7616ixf5w-stroke" data-item-order="0" transform="translate(614, 506)"><g id="ic_chec_1d0ip7616ixf5w-stroke" fill="none" stroke-linecap="round" stroke-linejoin="round" stroke-miterlimit="4" stroke="#2c2c2c" stroke-width="2" stroke-opacity="1"><g><path d="M 47 33L 47 13C 47 11.895431 46.104568 11 45 11L 13 11C 11.895431 11 11 11.895431 11 13L 11 45C 11 46.104568 11.895431 47 13 47L 33 47M 31 34C 31 35.656853 32.343147 37 34 37C 35.656853 37 37 35.656853 37 34C 37 32.343147 35.656853 31 34 31C 32.343147 31 31 32.343147 31 34ZM 17 36C 17 37.656853 18.343147 39 20 39C 21.656855 39 23 37.656853 23 36C 23 34.343147 21.656855 33 20 33C 18.343147 33 17 34.343147 17 36ZM 23 36L 23 24.507999C 23.000397 23.615583 23.591991 22.831413 24.450001 22.586L 34.450001 19.728001C 35.053673 19.555332 35.703384 19.676178 36.204605 20.054352C 36.705818 20.432524 37.000351 21.02412 37 21.652L 37 34M 37 47C 37 52.522846 41.477154 57 47 57C 52.522846 57 57 52.522846 57 47C 57 41.477154 52.522846 37 47 37C 41.477154 37 37 41.477154 37 47ZM 43 48L 45.166 50.166C 45.373859 50.373539 45.662449 50.479195 45.955173 50.454929C 46.247898 50.430664 46.515152 50.278931 46.686001 50.040001L 51 44"></path></g></g></g><g id="g-root-tx_manuallo_v2zxua16iytc5-stroke" data-item-order="0" transform="translate(183, 590)"></g><g id="g-root-tx_intellig_4gpe6q16iytc7-stroke" data-item-order="0" transform="translate(404.5, 590)"></g><g id="g-root-tx_automate_ddlclu16iyupt-stroke" data-item-order="0" transform="translate(620, 590)"></g><g id="g-root-tx_aipowere_vw2a16iyu4g-stroke" data-item-order="0" transform="translate(410.5, 650)"></g><g id="g-root-tx_actionab_18fpedu16iytxf-stroke" data-item-order="0" transform="translate(524, 98)"></g><g id="g-root-tx_slowinac_hrjfgy16iyux2-stroke" data-item-order="0" transform="translate(165, 650)"></g></g></g></svg>