<?xml version="1.0" encoding="utf-8" standalone="yes"?>
<!DOCTYPE svg PUBLIC "-//W3C//DTD SVG 1.1//EN" "http://www.w3.org/Graphics/SVG/1.1/DTD/svg11.dtd">
<svg style="fill:none;stroke:none;fill-rule:evenodd;clip-rule:evenodd;stroke-linecap:round;stroke-linejoin:round;stroke-miterlimit:1.5;" version="1.1" xmlns="http://www.w3.org/2000/svg" xmlns:xlink="http://www.w3.org/1999/xlink" width="960" height="840" viewBox="0 0 960 840"><style class="text-font-style fontImports" data-font-family="Roboto">@import url(https://fonts.googleapis.com/css2?family=Roboto:wght@400;700&amp;amp;display=block);</style><g id="items" style="isolation: isolate"><g id="blend" style="mix-blend-mode: normal"><g id="g-root-cp_0_g-0_qvxceq1874t1e-fill" data-item-order="-678518" transform="translate(386.1484375, 349.986328125)"><g id="cp_0_g-0_qvxceq1874t1e-fill-merged" stroke="none" fill="#e8e8e8" fill-opacity="1"><g><path d="M21.108 52.014C27.683 40.625 36.523 31.358 46.73 24.454L54.45 26.58L56.484 18.774C79.159 7.538 106.507 6.727 130.59 18.469L132.729 26.68L140.91 24.427C162.693 39.125 175.589 62.579 177.593 87.302L171.789 93.026L177.731 98.886C177.004 111.563 173.382 124.267 166.6 136.014C159.939 147.55 150.956 156.909 140.582 163.84L132.67 161.662L130.614 169.553C107.995 180.535 80.828 181.199 56.911 169.458L54.854 161.564L46.989 163.73C24.619 148.724 11.57 124.503 10 99.122L15.755 93.446L10.062 87.832C10.957 75.591 14.559 63.356 21.108 52.014"></path></g></g></g><g id="g-root-cp_6_g-6_i0ac5u1874tu3-fill" data-item-order="-678514" transform="translate(262.23828125, 194)"><g id="cp_6_g-6_i0ac5u1874tu3-fill-merged" stroke="none" fill="#8769fd" fill-opacity="1"><g><path d="M97.901 42.073C134.397 21.035 175.787 9.973 217.913 10 V94.033C198.375 94.02 179.133 97.658 161.106 104.686L180.892 138.956L191.285 132.956L178.357 182.566L128.931 168.956L139.323 162.956L119.601 128.796C104.836 140.754 92.325 155.354 82.744 171.921L10 129.853C31.089 93.386 61.404 63.112 97.901 42.073"></path></g></g></g><g id="g-root-cp_5_g-5_i0ac5u1874tu4-fill" data-item-order="-678508" transform="translate(230, 314)"><g id="cp_5_g-5_i0ac5u1874tu4-fill-merged" stroke="none" fill="#ffe711" fill-opacity="1"><g><path d="M10 130.003C10 87.873 21.089 46.486 42.154 10L114.928 52.016C105.368 68.575 98.97 86.687 95.98 105.432 H135.402 V93.432L171.901 129.432L135.402 165.432 V153.432 H95.803C98.713 172.583 105.176 191.094 114.93 207.987L42.157 250.005C21.091 213.52 10 172.133 10 130.003"></path></g></g></g><g id="g-root-cp_4_g-4_dkgu1e1874umd-fill" data-item-order="-678502" transform="translate(262.0625, 501.55078125)"><g id="cp_4_g-4_dkgu1e1874umd-fill-merged" stroke="none" fill="#f79438" fill-opacity="1"><g><path d="M178.935 10L191.863 59.609L181.471 53.609L161.665 87.913C179.568 94.838 198.662 98.425 217.995 98.417 V182.45C175.852 182.466 134.418 171.368 97.898 150.274C61.377 129.18 31.06 98.835 10 62.295L82.806 20.333C92.469 37.1 105.132 51.86 120.096 63.913L139.901 29.609L129.509 23.609L178.935 10"></path></g></g></g><g id="g-root-cp_3_g-3_dkgu1e1874ume-fill" data-item-order="-678496" transform="translate(470.0546875, 501.6484375)"><g id="cp_3_g-3_dkgu1e1874ume-fill-merged" stroke="none" fill="#a6da37" fill-opacity="1"><g><path d="M130.023 150.153C93.545 171.232 52.16 182.337 10.029 182.352 V98.32C29.224 98.313 48.209 94.753 66.019 87.891L46.227 53.609L35.834 59.609L48.762 10L98.188 23.609L87.796 29.609L107.621 63.947C122.642 51.881 135.353 37.09 145.048 20.282L217.84 62.269C196.789 98.764 166.502 129.074 130.023 150.153"></path></g></g></g><g id="g-root-cp_2_g-2_4ottsi1874vf3-fill" data-item-order="-678490" transform="translate(547.93359375, 314.052734375)"><g id="cp_2_g-2_4ottsi1874vf3-fill-merged" stroke="none" fill="#43dd93" fill-opacity="1"><g><path d="M172.065 129.977C172.059 172.096 160.97 213.471 139.911 249.947L67.136 207.93C76.961 190.914 83.446 172.257 86.325 152.959 H46.499 V164.959L10 128.959L46.499 92.959 V104.959 H86.018C83.001 86.376 76.634 68.423 67.157 51.998L139.942 10C160.992 46.481 172.07 87.859 172.065 129.977"></path></g></g></g><g id="g-root-cp_1_g-1_94nbwy1874veo-fill" data-item-order="-678484" transform="translate(470.05859375, 194)"><g id="cp_1_g-1_94nbwy1874veo-fill-merged" stroke="none" fill="#1ac3fb" fill-opacity="1"><g><path d="M129.987 42.18C166.456 63.246 196.739 93.538 217.795 130.013L145.018 172.025C135.361 155.296 122.717 140.568 107.781 128.537L87.852 163.057L98.244 169.057L48.817 182.666L35.89 133.057L46.282 139.057L66.212 104.537C48.346 97.626 29.294 94.04 10 94.033 V10C52.147 10.016 93.518 21.114 129.987 42.18"></path></g></g></g><g id="g-root-ic_user_1hjgu8i1874v7m-fill" data-item-order="0" transform="translate(344, 248)"></g><g id="g-root-ic_robo_dbq6tu187afif-fill" data-item-order="0" transform="translate(548, 248)"></g><g id="g-root-tx_combines_13z9rte186pdz7-fill" data-item-order="0" transform="translate(602, 158)"><g id="tx_combines_13z9rte186pdz7-fill-merged" stroke="none" fill="#f4f4f4" fill-opacity="1"><g><text style="font: 15px Roboto, sans-serif; white-space: pre;" transform="translate(10, 40)" font-size="15px" font-family="Roboto, sans-serif"><tspan x="2" y="-9.5" dominant-baseline="ideographic">Combines rule-</tspan><tspan x="2" y="8.5" dominant-baseline="ideographic">based detection and </tspan><tspan x="2" y="26.5" dominant-baseline="ideographic">ML prediction</tspan></text></g></g></g><g id="g-root-tx_supports_256vm186pceg-fill" data-item-order="0" transform="translate(182, 158)"><g id="tx_supports_256vm186pceg-fill-merged" stroke="none" fill="#f4f4f4" fill-opacity="1"><g><text style="font: 15px Roboto, sans-serif; white-space: pre;" transform="translate(154, 40)" font-size="15px" font-family="Roboto, sans-serif"><tspan x="-137.1" y="-9.5" dominant-baseline="ideographic">Supports training on </tspan><tspan x="-105.72" y="8.5" dominant-baseline="ideographic">structured error </tspan><tspan x="-67.02" y="26.5" dominant-baseline="ideographic">scenarios</tspan></text></g></g></g><g id="g-root-tx_aierrorc_18f39xu186pd6y-fill" data-item-order="0" transform="translate(602, 98)"><g id="tx_aierrorc_18f39xu186pd6y-fill-merged" stroke="none" fill="#1ac3fb" fill-opacity="1"><g><text style="font: bold 20px Roboto, sans-serif; white-space: pre;" transform="translate(10, 34)" font-weight="bold" font-size="20px" font-family="Roboto, sans-serif"><tspan x="2" y="-0.5" dominant-baseline="ideographic">AI Error </tspan><tspan x="2" y="23.5" dominant-baseline="ideographic">Classification</tspan></text></g></g></g><g id="g-root-tx_deduplic_1unfqqa186pczl-fill" data-item-order="0" transform="translate(62, 368.02490234375)"><g id="tx_deduplic_1unfqqa186pczl-fill-merged" stroke="none" fill="#ffe711" fill-opacity="1"><g><text style="font: bold 20px Roboto, sans-serif; white-space: pre;" transform="translate(142, 34)" font-weight="bold" font-size="20px" font-family="Roboto, sans-serif"><tspan x="-125.8" y="-0.5" dominant-baseline="ideographic">Deduplication </tspan><tspan x="-78.67" y="23.5" dominant-baseline="ideographic">&amp; Export</tspan></text></g></g></g><g id="g-root-ic_down_1d0iyoi187687f-fill" data-item-order="0" transform="translate(248, 410)"></g><g id="g-root-tx_multilay_9rma186pde0-fill" data-item-order="0" transform="translate(746, 374)"><g id="tx_multilay_9rma186pde0-fill-merged" stroke="none" fill="#43dd93" fill-opacity="1"><g><text style="font: bold 20px Roboto, sans-serif; white-space: pre;" transform="translate(10, 34)" font-weight="bold" font-size="20px" font-family="Roboto, sans-serif"><tspan x="2" y="-0.5" dominant-baseline="ideographic">Multi-Layered </tspan><tspan x="2" y="23.5" dominant-baseline="ideographic">Suggestions</tspan></text></g></g></g><g id="g-root-ic_idea_htf47m18790cm-fill" data-item-order="0" transform="translate(644, 410.02490234375)"></g><g id="g-root-tx_enhanced_v3mrki186perw-fill" data-item-order="0" transform="translate(392, 410)"><g id="tx_enhanced_v3mrki186perw-fill-merged" stroke="none" fill="#2c2c2c" fill-opacity="1"><g><text style="font: bold 20px Roboto, sans-serif; white-space: pre;" transform="translate(88, 34)" font-weight="bold" font-size="20px" font-family="Roboto, sans-serif"><tspan x="-70.06" y="-0.5" dominant-baseline="ideographic">Enhanced Error </tspan><tspan x="-60.67" y="23.5" dominant-baseline="ideographic">Management</tspan></text></g></g></g><g id="g-root-tx_unifiesd_1lrsqhe186pdsa-fill" data-item-order="0" transform="translate(50, 428.02490234375)"><g id="tx_unifiesd_1lrsqhe186pdsa-fill-merged" stroke="none" fill="#f4f4f4" fill-opacity="1"><g><text style="font: 15px Roboto, sans-serif; white-space: pre;" transform="translate(154, 46)" font-size="15px" font-family="Roboto, sans-serif"><tspan x="-141.66" y="-18.5" dominant-baseline="ideographic">Unifies deduplication </tspan><tspan x="-90.13" y="-0.5" dominant-baseline="ideographic">and supports </tspan><tspan x="-102.1" y="17.5" dominant-baseline="ideographic">multiple export </tspan><tspan x="-54.82" y="35.5" dominant-baseline="ideographic">formats</tspan></text></g></g></g><g id="g-root-tx_usesloca_1lpxb82186pert-fill" data-item-order="0" transform="translate(746, 434)"><g id="tx_usesloca_1lpxb82186pert-fill-merged" stroke="none" fill="#f4f4f4" fill-opacity="1"><g><text style="font: 15px Roboto, sans-serif; white-space: pre;" transform="translate(10, 40)" font-size="15px" font-family="Roboto, sans-serif"><tspan x="2" y="-9.5" dominant-baseline="ideographic">Uses local patterns </tspan><tspan x="2" y="8.5" dominant-baseline="ideographic">and ML with Google </tspan><tspan x="2" y="26.5" dominant-baseline="ideographic">Gemini fallback</tspan></text></g></g></g><g id="g-root-tx_trainabl_4hc7wy186perz-fill" data-item-order="0" transform="translate(230, 98)"><g id="tx_trainabl_4hc7wy186perz-fill-merged" stroke="none" fill="#8769fd" fill-opacity="1"><g><text style="font: bold 20px Roboto, sans-serif; white-space: pre;" transform="translate(106, 34)" font-weight="bold" font-size="20px" font-family="Roboto, sans-serif"><tspan x="-85.99" y="-0.5" dominant-baseline="ideographic">Trainable </tspan><tspan x="-68.44" y="23.5" dominant-baseline="ideographic">Models</tspan></text></g></g></g><g id="g-root-tx_technica_9msr61874t1l-fill" data-item-order="0" transform="translate(170, 38)"><g id="tx_technica_9msr61874t1l-fill-merged" stroke="none" fill="#f4f4f4" fill-opacity="1"><g><text style="font: bold 25px Roboto, sans-serif; white-space: pre;" transform="translate(310, 28)" font-weight="bold" font-size="25px" font-family="Roboto, sans-serif"><tspan x="-293.36" y="14.5" dominant-baseline="ideographic">Technical Capabilities Enhancing Error Management</tspan></text></g></g></g><g id="g-root-ic_jump_dccnwy1877ll0-fill" data-item-order="0" transform="translate(344, 572)"></g><g id="g-root-ic_sync_hyewwi1877mdh-fill" data-item-order="0" transform="translate(548, 572)"></g><g id="g-root-tx_observab_1hbz8cy186pekj-fill" data-item-order="0" transform="translate(110, 650)"><g id="tx_observab_1hbz8cy186pekj-fill-merged" stroke="none" fill="#f79438" fill-opacity="1"><g><text style="font: bold 20px Roboto, sans-serif; white-space: pre;" transform="translate(226, 22)" font-weight="bold" font-size="20px" font-family="Roboto, sans-serif"><tspan x="-210.86" y="11.5" dominant-baseline="ideographic">Observability/Analytics</tspan></text></g></g></g><g id="g-root-tx_advanced_hssqaa186pd71-fill" data-item-order="0" transform="translate(602, 650)"><g id="tx_advanced_hssqaa186pd71-fill-merged" stroke="none" fill="#a6da37" fill-opacity="1"><g><text style="font: bold 20px Roboto, sans-serif; white-space: pre;" transform="translate(10, 34)" font-weight="bold" font-size="20px" font-family="Roboto, sans-serif"><tspan x="2" y="-0.5" dominant-baseline="ideographic">Advanced </tspan><tspan x="2" y="23.5" dominant-baseline="ideographic">Enrichment</tspan></text></g></g></g><g id="g-root-tx_provides_18gyp76186pc7g-fill" data-item-order="0" transform="translate(194, 686)"><g id="tx_provides_18gyp76186pc7g-fill-merged" stroke="none" fill="#f4f4f4" fill-opacity="1"><g><text style="font: 15px Roboto, sans-serif; white-space: pre;" transform="translate(142, 46)" font-size="15px" font-family="Roboto, sans-serif"><tspan x="-122.15" y="-18.5" dominant-baseline="ideographic">Provides real-time </tspan><tspan x="-90.13" y="-0.5" dominant-baseline="ideographic">analytics and </tspan><tspan x="-106.59" y="17.5" dominant-baseline="ideographic">predefined alert </tspan><tspan x="-34.7" y="35.5" dominant-baseline="ideographic">rules</tspan></text></g></g></g><g id="g-root-tx_enriches_dcz85u186pdza-fill" data-item-order="0" transform="translate(602, 710)"><g id="tx_enriches_dcz85u186pdza-fill-merged" stroke="none" fill="#f4f4f4" fill-opacity="1"><g><text style="font: 15px Roboto, sans-serif; white-space: pre;" transform="translate(10, 46)" font-size="15px" font-family="Roboto, sans-serif"><tspan x="2" y="-18.5" dominant-baseline="ideographic">Enriches data with </tspan><tspan x="2" y="-0.5" dominant-baseline="ideographic">Geo-IP, user profiles, </tspan><tspan x="2" y="17.5" dominant-baseline="ideographic">and business </tspan><tspan x="2" y="35.5" dominant-baseline="ideographic">context</tspan></text></g></g></g><g id="g-root-cp_0_g-0_qvxceq1874t1e-stroke" data-item-order="-678518" transform="translate(386.1484375, 349.986328125)"><g id="cp_0_g-0_qvxceq1874t1e-stroke" fill="none" stroke-linecap="round" stroke-linejoin="round" stroke-miterlimit="4" stroke="#2c2c2c" stroke-width="2" stroke-opacity="1"><g><path d="M 21.107601 52.014C 27.683101 40.625 36.522801 31.3583 46.730001 24.4542L 54.449901 26.5798L 56.483801 18.7744C 79.158601 7.5383 106.506901 6.7275 130.5897 18.4689L 132.729301 26.6798L 140.909901 24.4273C 162.692501 39.1247 175.589101 62.5794 177.592801 87.3017L 171.789001 93.0261L 177.730601 98.8864C 177.004201 111.5634 173.381901 124.2673 166.599901 136.014C 159.939501 147.5501 150.956001 156.9086 140.581601 163.84L 132.670301 161.6617L 130.614001 169.5527C 107.994601 180.5349 80.828501 181.1995 56.910701 169.4578L 54.853701 161.564L 46.989001 163.7295C 24.618701 148.724 11.569601 124.5033 10.000001 99.1219L 15.7545 93.4461L 10.062301 87.8317C 10.956501 75.5907 14.559201 63.3562 21.107601 52.014Z"></path></g></g></g><g id="g-root-cp_6_g-6_i0ac5u1874tu3-stroke" data-item-order="-678514" transform="translate(262.23828125, 194)"><g id="cp_6_g-6_i0ac5u1874tu3-stroke" fill="none" stroke-linecap="round" stroke-linejoin="round" stroke-miterlimit="4" stroke="#2c2c2c" stroke-width="2" stroke-opacity="1"><g><path d="M 97.9006 42.0733C 134.3967 21.035 175.7874 9.9733 217.9131 10L 217.8598 94.0326C 198.3752 94.0203 179.1325 97.6583 161.1064 104.6862L 180.8923 138.9564L 191.2846 132.9564L 178.3572 182.5656L 128.9308 168.9564L 139.3231 162.9564L 119.6006 128.7961C 104.8358 140.7538 92.325 155.3537 82.7445 171.9205L 10 129.8526C 31.0887 93.3856 61.4045 63.1117 97.9006 42.0733Z"></path></g></g></g><g id="g-root-cp_5_g-5_i0ac5u1874tu4-stroke" data-item-order="-678508" transform="translate(230, 314)"><g id="cp_5_g-5_i0ac5u1874tu4-stroke" fill="none" stroke-linecap="round" stroke-linejoin="round" stroke-miterlimit="4" stroke="#2c2c2c" stroke-width="2" stroke-opacity="1"><g><path d="M 10 130.0031C 9.9995 87.8732 21.089 46.4855 42.1539 10L 114.9283 52.0163C 105.3682 68.5748 98.9698 86.687 95.9797 105.4321L 135.4016 105.4321L 135.4016 93.4321L 171.9007 129.4321L 135.4016 165.4321L 135.4016 153.4321L 95.8028 153.4321C 98.713 172.5826 105.1761 191.0936 114.9303 207.9872L 42.157 250.0054C 21.0911 213.5204 10.0005 172.1329 10 130.0031Z"></path></g></g></g><g id="g-root-cp_4_g-4_dkgu1e1874umd-stroke" data-item-order="-678502" transform="translate(262.0625, 501.55078125)"><g id="cp_4_g-4_dkgu1e1874umd-stroke" fill="none" stroke-linecap="round" stroke-linejoin="round" stroke-miterlimit="4" stroke="#2c2c2c" stroke-width="2" stroke-opacity="1"><g><path d="M 178.9354 10L 191.8628 59.6092L 181.4705 53.6092L 161.6651 87.9131C 179.5677 94.8384 198.6617 98.4248 217.9951 98.4174L 218.0272 182.45C 175.8525 182.4661 134.4183 171.3683 97.8978 150.2744C 61.3772 129.1804 31.0601 98.8352 10 62.2952L 82.8056 20.3331C 92.4693 37.0999 105.1323 51.8597 120.0959 63.9131L 139.9013 29.6092L 129.5089 23.6092L 178.9354 10Z"></path></g></g></g><g id="g-root-cp_3_g-3_dkgu1e1874ume-stroke" data-item-order="-678496" transform="translate(470.0546875, 501.6484375)"><g id="cp_3_g-3_dkgu1e1874ume-stroke" fill="none" stroke-linecap="round" stroke-linejoin="round" stroke-miterlimit="4" stroke="#2c2c2c" stroke-width="2" stroke-opacity="1"><g><path d="M 130.023501 150.153101C 93.545001 171.232201 52.160301 182.337301 10.029401 182.352101L 10.000001 98.319501C 29.224101 98.312801 48.209201 94.752901 66.019301 87.891001L 46.226701 53.609201L 35.834401 59.609201L 48.761801 10.000001L 98.188301 23.609201L 87.796001 29.609201L 107.620901 63.947001C 122.642201 51.880601 135.352801 37.090501 145.048401 20.281601L 217.839701 62.268601C 196.788901 98.763501 166.502001 129.0739 130.023501 150.153101Z"></path></g></g></g><g id="g-root-cp_2_g-2_4ottsi1874vf3-stroke" data-item-order="-678490" transform="translate(547.93359375, 314.052734375)"><g id="cp_2_g-2_4ottsi1874vf3-stroke" fill="none" stroke-linecap="round" stroke-linejoin="round" stroke-miterlimit="4" stroke="#2c2c2c" stroke-width="2" stroke-opacity="1"><g><path d="M 172.0648 129.9775C 172.0593 172.0958 160.97 213.4711 139.9109 249.9467L 67.1365 207.9304C 76.9607 190.9143 83.4463 172.2574 86.3252 152.9589L 46.4991 152.9589L 46.4991 164.9589L 10 128.9589L 46.4991 92.9588L 46.4991 104.9588L 86.0175 104.9589C 83.0014 86.3764 76.6342 68.4232 67.1565 51.9976L 139.9416 10C 160.9915 46.481 172.0702 87.8591 172.0648 129.9775Z"></path></g></g></g><g id="g-root-cp_1_g-1_94nbwy1874veo-stroke" data-item-order="-678484" transform="translate(470.05859375, 194)"><g id="cp_1_g-1_94nbwy1874veo-stroke" fill="none" stroke-linecap="round" stroke-linejoin="round" stroke-miterlimit="4" stroke="#2c2c2c" stroke-width="2" stroke-opacity="1"><g><path d="M 129.9869 42.1799C 166.456 63.2459 196.7394 93.5378 217.7952 130.0126L 145.0183 172.0245C 135.3612 155.2956 122.7172 140.568 107.7814 128.5369L 87.8515 163.0565L 98.2438 169.0565L 48.8173 182.6657L 35.8899 133.0565L 46.2823 139.0565L 66.2121 104.5369C 48.3462 97.6258 29.2935 94.0398 10 94.0326L 10.0313 10C 52.1474 10.0157 93.5179 21.114 129.9869 42.1799Z"></path></g></g></g><g id="g-root-ic_user_1hjgu8i1874v7m-stroke" data-item-order="0" transform="translate(344, 248)"><g id="ic_user_1hjgu8i1874v7m-stroke" fill="none" stroke-linecap="round" stroke-linejoin="round" stroke-miterlimit="4" stroke="#2c2c2c" stroke-width="2" stroke-opacity="1"><g><path d="M 32 35C 25.372583 35 20 29.627417 20 23C 20 16.372583 25.372583 11 32 11ZM 13 57C 13 46.506592 21.50659 38 32 38L 32 57ZM 36 35C 36.670525 34.995987 37.339535 34.935776 38 34.82L 38 31.76C 38.983719 31.534334 39.921806 31.142733 40.773998 30.601999L 42.945999 32.774002C 44.040051 31.99596 44.99596 31.040052 45.773998 29.945999L 43.599998 27.774C 44.141434 26.92194 44.533714 25.983845 44.759998 25L 47.82 25C 47.935772 24.339535 47.995983 23.670525 48 23C 47.995983 22.329475 47.935772 21.660467 47.82 21L 44.759998 21C 44.533714 20.016151 44.141434 19.07806 43.599998 18.226L 45.771999 16.054001C 44.993961 14.959948 44.038052 14.00404 42.944 13.226L 40.774002 15.4C 39.921936 14.858564 38.983845 14.466283 38 14.24L 38 11.18C 37.339535 11.064227 36.670525 11.004017 36 11M 36 19C 38.209137 19 40 20.790861 40 23C 40 25.209139 38.209137 27 36 27M 55 57C 54.992783 55.994694 54.905846 54.99155 54.739998 53.999996L 50.698002 54C 50.430782 52.702488 49.990864 51.446644 49.390003 50.266003L 52.332001 47.326C 50.955723 45.003922 49.102207 43.000431 46.894001 41.448002L 44.009998 44.334C 42.772068 43.546524 41.424023 42.947319 40.010002 42.556L 40.010002 38.43C 38.692268 38.145462 37.348099 38.001328 36 38M 36 49C 40.418278 49 44 52.581722 44 57"></path></g></g></g><g id="g-root-ic_robo_dbq6tu187afif-stroke" data-item-order="0" transform="translate(548, 248)"><g id="ic_robo_dbq6tu187afif-stroke" fill="none" stroke-linecap="round" stroke-linejoin="round" stroke-miterlimit="4" stroke="#2c2c2c" stroke-width="2" stroke-opacity="1"><g><path d="M 34.5826 56.5L 51.0938 56.5C 53.302799 56.5 55.0938 54.709202 55.0938 52.5L 55.0938 26.242001C 55.093601 25.446899 54.777802 24.684399 54.215801 24.122L 42.471802 12.378C 41.909401 11.815964 41.146797 11.50017 40.351799 11.5L 19.09376 11.5C 17.45974 11.5 16.09376 12.866 16.09376 14.5L 16.09376 35.139801M 55.0938 26.5L 43.0938 26.5C 42.298199 26.5 41.535 26.18392 40.972401 25.621319C 40.409798 25.05872 40.0938 24.295639 40.0938 23.5L 40.0938 11.5M 16.906 43.453999L 25.678001 43.453999C 25.678001 43.453999 29.677999 43.453999 29.677999 47.453999L 29.677999 52.501999C 29.677999 52.501999 29.677999 56.501999 25.678001 56.501999L 16.906 56.501999C 16.906 56.501999 12.906 56.501999 12.906 52.501999L 12.906 47.453999C 12.906 47.453999 12.906 43.453999 16.906 43.453999M 10 10M 21.291019 38.306801L 21.291019 43.453201M 10 10M 18.542961 48.817001L 18.542961 51.140598M 10 10M 24.041019 48.817001L 24.041019 51.140598"></path></g></g></g><g id="g-root-tx_combines_13z9rte186pdz7-stroke" data-item-order="0" transform="translate(602, 158)"></g><g id="g-root-tx_supports_256vm186pceg-stroke" data-item-order="0" transform="translate(182, 158)"></g><g id="g-root-tx_aierrorc_18f39xu186pd6y-stroke" data-item-order="0" transform="translate(602, 98)"></g><g id="g-root-tx_deduplic_1unfqqa186pczl-stroke" data-item-order="0" transform="translate(62, 368.02490234375)"></g><g id="g-root-ic_down_1d0iyoi187687f-stroke" data-item-order="0" transform="translate(248, 410)"><g id="ic_down_1d0iyoi187687f-stroke" fill="none" stroke-linecap="round" stroke-linejoin="round" stroke-miterlimit="4" stroke="#2c2c2c" stroke-width="2" stroke-opacity="1"><g><path d="M 19 27L 38 27M 19 33L 31 33M 19 21L 33 21M 19 39L 27 39M 19 45L 27 45M 31 57L 13 57C 11.895431 57 11 56.104568 11 55L 11 13C 11 11.895431 11.895431 11 13 11L 39.585999 11C 40.11639 11.000113 40.625015 11.210901 41 11.586L 48.414001 19C 48.789101 19.374985 48.999886 19.88361 49 20.414L 49 27M 33 45C 33 51.627419 38.372581 57 45 57C 51.627419 57 57 51.627419 57 45C 57 38.372581 51.627419 33 45 33C 38.372581 33 33 38.372581 33 45ZM 45 39L 45 51M 45 51L 40.5 46.5M 45 51L 49.5 46.5"></path></g></g></g><g id="g-root-tx_multilay_9rma186pde0-stroke" data-item-order="0" transform="translate(746, 374)"></g><g id="g-root-ic_idea_htf47m18790cm-stroke" data-item-order="0" transform="translate(644, 410.02490234375)"><g id="ic_idea_htf47m18790cm-stroke" fill="none" stroke-linecap="round" stroke-linejoin="round" stroke-miterlimit="4" stroke="#2c2c2c" stroke-width="2" stroke-opacity="1"><g><path d="M 56 30L 56 48.042C 56.000141 49.134193 55.124054 50.024525 54.032001 50.042C 43.166 50.360001 34 53.354 34 57C 34 53.352001 24.832001 50.358002 13.968 50.029999C 12.875947 50.012524 11.99986 49.122192 12 48.029999L 12 19.035999C 11.999923 18.499622 12.215297 17.985695 12.597755 17.609629C 12.980214 17.233562 13.497701 17.026882 14.034 17.035999C 24.869999 17.372 34 20.362 34 24M 17 26C 21.45879 26.236013 25.849482 27.195887 30.000002 28.842001M 17 32.809998C 21.458551 33.044838 25.849218 34.003357 30 35.647999M 17 39.618C 21.458685 39.851852 25.84951 40.810402 30 42.456001M 34 24.001999L 34 56.751999M 52 23C 52.011627 19.945835 49.727135 17.370302 46.693409 17.017359C 43.659679 16.664415 40.844933 18.646702 40.155094 21.621965C 39.465256 24.597229 41.120491 27.615915 44 28.634001L 44 31L 48 31L 48 28.636C 50.393101 27.795002 51.995964 25.536572 52.000004 23ZM 44 35.001999L 48 35.001999M 45 39.001999L 47 39.001999M 46 13.002L 46 11.002M 53.071999 15.932L 54.486 14.518M 38.93 15.932L 37.514 14.518"></path></g></g></g><g id="g-root-tx_enhanced_v3mrki186perw-stroke" data-item-order="0" transform="translate(392, 410)"></g><g id="g-root-tx_unifiesd_1lrsqhe186pdsa-stroke" data-item-order="0" transform="translate(50, 428.02490234375)"></g><g id="g-root-tx_usesloca_1lpxb82186pert-stroke" data-item-order="0" transform="translate(746, 434)"></g><g id="g-root-tx_trainabl_4hc7wy186perz-stroke" data-item-order="0" transform="translate(230, 98)"></g><g id="g-root-tx_technica_9msr61874t1l-stroke" data-item-order="0" transform="translate(170, 38)"></g><g id="g-root-ic_jump_dccnwy1877ll0-stroke" data-item-order="0" transform="translate(344, 572)"><g id="ic_jump_dccnwy1877ll0-stroke" fill="none" stroke-linecap="round" stroke-linejoin="round" stroke-miterlimit="4" stroke="#2c2c2c" stroke-width="2" stroke-opacity="1"><g><path d="M 56.486 56.5L 11.5 56.5L 11.5 11.5M 18 22.5L 26 22.5M 48 22.5L 56 22.5M 22 29.5L 30 29.5M 21.125 15.5L 29.125 15.5M 38 15.5L 46 15.5M 18 36.5L 26 36.5M 36 36.5L 44 36.5M 30 43.5L 38 43.5M 11.5 43.5L 19.5 43.5M 34 50.5L 42 50.5M 46 43.5L 54 43.5"></path></g></g></g><g id="g-root-ic_sync_hyewwi1877mdh-stroke" data-item-order="0" transform="translate(548, 572)"><g id="ic_sync_hyewwi1877mdh-stroke" fill="none" stroke-linecap="round" stroke-linejoin="round" stroke-miterlimit="4" stroke="#2c2c2c" stroke-width="2" stroke-opacity="1"><g><path d="M 48 41L 57 41L 57 32M 56.32 41C 54.524788 35.834709 49.464527 32.536362 44.014091 32.978844C 38.56366 33.421318 34.101685 37.492699 33.163147 42.879921C 32.224606 48.267143 35.04689 53.607559 40.026585 55.86713C 45.006279 58.126705 50.883812 56.733898 54.32 52.48M 30 52.900002C 18.96896 51.847305 10.654165 42.404675 11.005535 31.329092C 11.356906 20.253508 20.253508 11.356906 31.329092 11.005535C 42.404675 10.654165 51.847305 18.96896 52.900002 30M 11.32 28.34L 22.42 28.34C 23.884014 28.348686 25.282732 28.947107 26.299999 30L 28.299999 32C 30.364096 34.048164 30.460829 37.354668 28.52 39.52L 26 42.32C 25.126408 43.343643 24.66324 44.654762 24.700001 46L 24.700001 51.740002M 47.080002 17.4L 36.5 17.4C 34.235634 17.4 32.400002 19.235634 32.400002 21.5C 32.400002 23.764366 34.235634 25.6 36.5 25.6L 37.279999 25.6C 39.104786 25.590874 40.8144 26.490671 41.84 28L 42.34 28.74"></path></g></g></g><g id="g-root-tx_observab_1hbz8cy186pekj-stroke" data-item-order="0" transform="translate(110, 650)"></g><g id="g-root-tx_advanced_hssqaa186pd71-stroke" data-item-order="0" transform="translate(602, 650)"></g><g id="g-root-tx_provides_18gyp76186pc7g-stroke" data-item-order="0" transform="translate(194, 686)"></g><g id="g-root-tx_enriches_dcz85u186pdza-stroke" data-item-order="0" transform="translate(602, 710)"></g></g></g></svg>