<?xml version="1.0" encoding="utf-8" standalone="yes"?>
<!DOCTYPE svg PUBLIC "-//W3C//DTD SVG 1.1//EN" "http://www.w3.org/Graphics/SVG/1.1/DTD/svg11.dtd">
<svg style="fill:none;stroke:none;fill-rule:evenodd;clip-rule:evenodd;stroke-linecap:round;stroke-linejoin:round;stroke-miterlimit:1.5;" version="1.1" xmlns="http://www.w3.org/2000/svg" xmlns:xlink="http://www.w3.org/1999/xlink" width="732" height="1092" viewBox="0 0 732 1092"><style class="text-font-style fontImports" data-font-family="Roboto">@import url(https://fonts.googleapis.com/css2?family=Roboto:wght@400;700&amp;amp;display=block);</style><g id="items" style="isolation: isolate"><g id="blend" style="mix-blend-mode: normal"><g id="g-root-cp_1_g-1_1_18lbxoy14l3406-fill" data-item-order="-656536" transform="translate(242, 86)"><g id="cp_1_g-1_1_18lbxoy14l3406-fill-merged" stroke="none" fill="#ffe711" fill-opacity="1"><g><path d="M214 22 V154 H10 V22C10 15.396 15.396 10 22 10 H202C208.616 10 214 15.384 214 22"></path></g></g></g><g id="g-root-cp_0_g-0_1_zqbej614l31n3-fill" data-item-order="-656508" transform="translate(242, 230)"><g id="cp_0_g-0_1_zqbej614l31n3-fill-merged" stroke="none" fill="#e8e8e8" fill-opacity="1"><g><path d="M10 754 V10 H214 V754C214 760.627 208.627 766 202 766 H22C15.373 766 10 760.627 10 754"></path></g></g></g><g id="g-root-cp_1-1_cell-1-1_vahweq14l32fc-fill" data-item-order="-656487" transform="translate(254, 242)"></g><g id="g-root-cp_2-1_cell-2-1_quoeaa14l337l-fill" data-item-order="-656469" transform="translate(254, 314)"></g><g id="g-root-cp_3-1_cell-3-1_quoeaa14l337m-fill" data-item-order="-656451" transform="translate(254, 422)"></g><g id="g-root-cp_4-1_cell-4-1_hz1e1e14l340b-fill" data-item-order="-656433" transform="translate(254, 530)"></g><g id="g-root-cp_5-1_cell-5-1_djud0214l31ms-fill" data-item-order="-656415" transform="translate(254, 626)"></g><g id="g-root-cp_6-1_cell-6-1_djud0214l31mt-fill" data-item-order="-656397" transform="translate(254, 698)"></g><g id="g-root-cp_7-1_cell-7-1_4o7cr614l32fi-fill" data-item-order="-656379" transform="translate(254, 794)"></g><g id="g-root-cp_8-1_cell-8-1_4o7cr614l32fj-fill" data-item-order="-656361" transform="translate(254, 890)"></g><g id="g-root-cp_1_g-1_2_8dumq14l337s-fill" data-item-order="-656342" transform="translate(470, 86)"><g id="cp_1_g-1_2_8dumq14l337s-fill-merged" stroke="none" fill="#f79438" fill-opacity="1"><g><path d="M214 22 V154 H10 V22C10 15.396 15.396 10 22 10 H202C208.616 10 214 15.384 214 22"></path></g></g></g><g id="g-root-cp_0_g-0_2_1utoehe14l33sx-fill" data-item-order="-656312" transform="translate(470, 230)"><g id="cp_0_g-0_2_1utoehe14l33sx-fill-merged" stroke="none" fill="#e8e8e8" fill-opacity="1"><g><path d="M10 754 V10 H214 V754C214 760.627 208.627 766 202 766 H22C15.373 766 10 760.627 10 754"></path></g></g></g><g id="g-root-cp_1-2_cell-1-2_1ly1e8i14l34lm-fill" data-item-order="-656291" transform="translate(482, 242)"></g><g id="g-root-cp_2-2_cell-2-2_1hiud7614l3283-fill" data-item-order="-656273" transform="translate(482, 314)"></g><g id="g-root-cp_3-2_cell-3-2_1hiud7614l3284-fill" data-item-order="-656255" transform="translate(482, 422)"></g><g id="g-root-cp_4-2_cell-4-2_18n7cya14l330t-fill" data-item-order="-656237" transform="translate(482, 530)"></g><g id="g-root-cp_5-2_cell-5-2_18n7cya14l330u-fill" data-item-order="-656219" transform="translate(482, 626)"></g><g id="g-root-cp_6-2_cell-6-2_147dutu14l33t3-fill" data-item-order="-656201" transform="translate(482, 698)"></g><g id="g-root-cp_7-2_cell-7-2_zrkcpe14l34lc-fill" data-item-order="-656183" transform="translate(482, 794)"></g><g id="g-root-cp_8-2_cell-8-2_zrkcpe14l34ld-fill" data-item-order="-656165" transform="translate(482, 890)"></g><g id="g-root-tx_caching_1ha3pzm14l4iys-fill" data-item-order="0" transform="translate(122, 458)"><g id="tx_caching_1ha3pzm14l4iys-fill-merged" stroke="none" fill="#f4f4f4" fill-opacity="1"><g><text style="font: bold 20px Roboto, sans-serif; white-space: pre;" transform="translate(94, 22)" font-weight="bold" font-size="20px" font-family="Roboto, sans-serif"><tspan x="-75.35" y="11.5" dominant-baseline="ideographic">Caching</tspan></text></g></g></g><g id="g-root-tx_rediscom_1hbz58y14l79j9-fill" data-item-order="0" transform="translate(284, 458)"><g id="tx_rediscom_1hbz58y14l79j9-fill-merged" stroke="none" fill="#2c2c2c" fill-opacity="1"><g><text style="font: 15px Roboto, sans-serif; white-space: pre;" transform="translate(70, 22)" font-size="15px" font-family="Roboto, sans-serif"><tspan x="-57.96" y="8.5" dominant-baseline="ideographic">Redis-compatible</tspan></text></g></g></g><g id="g-root-tx_performa_mb41n614l8pvl-fill" data-item-order="0" transform="translate(512, 434)"><g id="tx_performa_mb41n614l8pvl-fill-merged" stroke="none" fill="#2c2c2c" fill-opacity="1"><g><text style="font: 15px Roboto, sans-serif; white-space: pre;" transform="translate(70, 46)" font-size="15px" font-family="Roboto, sans-serif"><tspan x="-45.25" y="-18.5" dominant-baseline="ideographic">Performance </tspan><tspan x="-57.84" y="-0.5" dominant-baseline="ideographic">optimization and </tspan><tspan x="-52.6" y="17.5" dominant-baseline="ideographic">rate limiting for </tspan><tspan x="-32.8" y="35.5" dominant-baseline="ideographic">enrichers</tspan></text></g></g></g><g id="g-root-tx_structur_141rl1u14l8qo8-fill" data-item-order="0" transform="translate(512, 326)"><g id="tx_structur_141rl1u14l8qo8-fill-merged" stroke="none" fill="#2c2c2c" fill-opacity="1"><g><text style="font: 15px Roboto, sans-serif; white-space: pre;" transform="translate(70, 46)" font-size="15px" font-family="Roboto, sans-serif"><tspan x="-53.35" y="-18.5" dominant-baseline="ideographic">Structured data </tspan><tspan x="-54.95" y="-0.5" dominant-baseline="ideographic">persistence and </tspan><tspan x="-38.83" y="17.5" dominant-baseline="ideographic">time-series </tspan><tspan x="-43.53" y="35.5" dominant-baseline="ideographic">optimization</tspan></text></g></g></g><g id="g-root-tx_postgres_8x5mxe14l79qc-fill" data-item-order="0" transform="translate(290, 344)"><g id="tx_postgres_8x5mxe14l79qc-fill-merged" stroke="none" fill="#2c2c2c" fill-opacity="1"><g><text style="font: 15px Roboto, sans-serif; white-space: pre;" transform="translate(64, 28)" font-size="15px" font-family="Roboto, sans-serif"><tspan x="-47.43" y="-0.5" dominant-baseline="ideographic">PostgreSQL + </tspan><tspan x="-45.84" y="17.5" dominant-baseline="ideographic">TimescaleDB</tspan></text></g></g></g><g id="g-root-tx_ingestio_qnt6c214l4iyt-fill" data-item-order="0" transform="translate(110, 548)"><g id="tx_ingestio_qnt6c214l4iyt-fill-merged" stroke="none" fill="#f4f4f4" fill-opacity="1"><g><text style="font: bold 20px Roboto, sans-serif; white-space: pre;" transform="translate(106, 34)" font-weight="bold" font-size="20px" font-family="Roboto, sans-serif"><tspan x="-86.13" y="-0.5" dominant-baseline="ideographic">Ingestion </tspan><tspan x="-78.02" y="23.5" dominant-baseline="ideographic">Protocol</tspan></text></g></g></g><g id="g-root-tx_opentele_140imvm14l7b46-fill" data-item-order="0" transform="translate(284, 554)"><g id="tx_opentele_140imvm14l7b46-fill-merged" stroke="none" fill="#2c2c2c" fill-opacity="1"><g><text style="font: 15px Roboto, sans-serif; white-space: pre;" transform="translate(70, 28)" font-size="15px" font-family="Roboto, sans-serif"><tspan x="-52.41" y="-0.5" dominant-baseline="ideographic">OpenTelemetry </tspan><tspan x="-25.36" y="17.5" dominant-baseline="ideographic">(OTLP)</tspan></text></g></g></g><g id="g-root-tx_universa_90a0cy14l8oaq-fill" data-item-order="0" transform="translate(500, 542)"><g id="tx_universa_90a0cy14l8oaq-fill-merged" stroke="none" fill="#2c2c2c" fill-opacity="1"><g><text style="font: 15px Roboto, sans-serif; white-space: pre;" transform="translate(82, 40)" font-size="15px" font-family="Roboto, sans-serif"><tspan x="-65.15" y="-9.5" dominant-baseline="ideographic">Universal ingestion </tspan><tspan x="-64.62" y="8.5" dominant-baseline="ideographic">of logs, traces, and </tspan><tspan x="-27.04" y="26.5" dominant-baseline="ideographic">metrics</tspan></text></g></g></g><g id="g-root-tx_database_1ulk8cy14l4hdv-fill" data-item-order="0" transform="translate(38, 350)"><g id="tx_database_1ulk8cy14l4hdv-fill-merged" stroke="none" fill="#f4f4f4" fill-opacity="1"><g><text style="font: bold 20px Roboto, sans-serif; white-space: pre;" transform="translate(178, 22)" font-weight="bold" font-size="20px" font-family="Roboto, sans-serif"><tspan x="-163.68" y="11.5" dominant-baseline="ideographic">Database/Storage</tspan></text></g></g></g><g id="g-root-tx_realtime_1lt1ljm14l8ob3-fill" data-item-order="0" transform="translate(500, 254)"><g id="tx_realtime_1lt1ljm14l8ob3-fill-merged" stroke="none" fill="#2c2c2c" fill-opacity="1"><g><text style="font: 15px Roboto, sans-serif; white-space: pre;" transform="translate(82, 28)" font-size="15px" font-family="Roboto, sans-serif"><tspan x="-68.44" y="-0.5" dominant-baseline="ideographic">Real-time streaming </tspan><tspan x="-65.16" y="17.5" dominant-baseline="ideographic">for logs and events</tspan></text></g></g></g><g id="g-root-tx_bigdatas_4hc4sy14l4i6m-fill" data-item-order="0" transform="translate(50, 644)"><g id="tx_bigdatas_4hc4sy14l4i6m-fill-merged" stroke="none" fill="#f4f4f4" fill-opacity="1"><g><text style="font: bold 20px Roboto, sans-serif; white-space: pre;" transform="translate(166, 22)" font-weight="bold" font-size="20px" font-family="Roboto, sans-serif"><tspan x="-145.2" y="11.5" dominant-baseline="ideographic">Big Data Search</tspan></text></g></g></g><g id="g-root-tx_elastics_hu1lci14l7abz-fill" data-item-order="0" transform="translate(284, 638)"><g id="tx_elastics_hu1lci14l7abz-fill-merged" stroke="none" fill="#2c2c2c" fill-opacity="1"><g><text style="font: 15px Roboto, sans-serif; white-space: pre;" transform="translate(70, 28)" font-size="15px" font-family="Roboto, sans-serif"><tspan x="-52.68" y="-0.5" dominant-baseline="ideographic">Elasticsearch + </tspan><tspan x="-24.91" y="17.5" dominant-baseline="ideographic">Kibana</tspan></text></g></g></g><g id="g-root-tx_fulltext_4n04214l8p3f-fill" data-item-order="0" transform="translate(500, 638)"><g id="tx_fulltext_4n04214l8p3f-fill-merged" stroke="none" fill="#2c2c2c" fill-opacity="1"><g><text style="font: 15px Roboto, sans-serif; white-space: pre;" transform="translate(82, 28)" font-size="15px" font-family="Roboto, sans-serif"><tspan x="-68.7" y="-0.5" dominant-baseline="ideographic">Full-Text Search and </tspan><tspan x="-42.99" y="17.5" dominant-baseline="ideographic">visualization</tspan></text></g></g></g><g id="g-root-tx_apacheka_qnt6c214l7aiz-fill" data-item-order="0" transform="translate(290, 260)"><g id="tx_apacheka_qnt6c214l7aiz-fill-merged" stroke="none" fill="#2c2c2c" fill-opacity="1"><g><text style="font: 15px Roboto, sans-serif; white-space: pre;" transform="translate(64, 22)" font-size="15px" font-family="Roboto, sans-serif"><tspan x="-46.35" y="8.5" dominant-baseline="ideographic">Apache Kafka</tspan></text></g></g></g><g id="g-root-tx_streamin_qwjtjm14l328a-fill" data-item-order="0" transform="translate(38, 260)"><g id="tx_streamin_qwjtjm14l328a-fill-merged" stroke="none" fill="#f4f4f4" fill-opacity="1"><g><text style="font: bold 20px Roboto, sans-serif; white-space: pre;" transform="translate(178, 22)" font-weight="bold" font-size="20px" font-family="Roboto, sans-serif"><tspan x="-160.21" y="11.5" dominant-baseline="ideographic">Streaming/Queue</tspan></text></g></g></g><g id="g-root-tx_required_18jgifm14l8owe-fill" data-item-order="0" transform="translate(494, 902)"><g id="tx_required_18jgifm14l8owe-fill-merged" stroke="none" fill="#2c2c2c" fill-opacity="1"><g><text style="font: 15px Roboto, sans-serif; white-space: pre;" transform="translate(88, 40)" font-size="15px" font-family="Roboto, sans-serif"><tspan x="-70.51" y="-9.5" dominant-baseline="ideographic">Required for Phase 2 </tspan><tspan x="-56.86" y="8.5" dominant-baseline="ideographic">(Self-Navigating) </tspan><tspan x="-65.8" y="26.5" dominant-baseline="ideographic">experience retrieval</tspan></text></g></g></g><g id="g-root-tx_dockerco_3e1xu14l79jc-fill" data-item-order="0" transform="translate(278, 728)"><g id="tx_dockerco_3e1xu14l79jc-fill-merged" stroke="none" fill="#2c2c2c" fill-opacity="1"><g><text style="font: 15px Roboto, sans-serif; white-space: pre;" transform="translate(76, 22)" font-size="15px" font-family="Roboto, sans-serif"><tspan x="-63.83" y="8.5" dominant-baseline="ideographic">Docker &amp; Compose</tspan></text></g></g></g><g id="g-root-tx_producti_1luajpu14l8qh8-fill" data-item-order="0" transform="translate(506, 710)"><g id="tx_producti_1luajpu14l8qh8-fill-merged" stroke="none" fill="#2c2c2c" fill-opacity="1"><g><text style="font: 15px Roboto, sans-serif; white-space: pre;" transform="translate(76, 40)" font-size="15px" font-family="Roboto, sans-serif"><tspan x="-59.29" y="-9.5" dominant-baseline="ideographic">Production-grade </tspan><tspan x="-41.03" y="8.5" dominant-baseline="ideographic">deployment </tspan><tspan x="-46.14" y="26.5" dominant-baseline="ideographic">orchestration</tspan></text></g></g></g><g id="g-root-tx_purposea_de838214l8oi6-fill" data-item-order="0" transform="translate(506, 170)"><g id="tx_purposea_de838214l8oi6-fill-merged" stroke="none" fill="#2c2c2c" fill-opacity="1"><g><text style="font: bold 20px Roboto, sans-serif; white-space: pre;" transform="translate(76, 34)" font-weight="bold" font-size="20px" font-family="Roboto, sans-serif"><tspan x="-59.09" y="-0.5" dominant-baseline="ideographic">Purpose and </tspan><tspan x="-33.99" y="23.5" dominant-baseline="ideographic">Status </tspan></text></g></g></g><g id="g-root-tx_technolo_1ha3pzm14l7aiy-fill" data-item-order="0" transform="translate(284, 170)"><g id="tx_technolo_1ha3pzm14l7aiy-fill-merged" stroke="none" fill="#2c2c2c" fill-opacity="1"><g><text style="font: bold 20px Roboto, sans-serif; white-space: pre;" transform="translate(70, 22)" font-weight="bold" font-size="20px" font-family="Roboto, sans-serif"><tspan x="-52.26" y="11.5" dominant-baseline="ideographic">Technology</tspan></text></g></g></g><g id="g-root-tx_mlengine_1hbz58y14l4hz4-fill" data-item-order="0" transform="translate(98, 824)"><g id="tx_mlengine_1hbz58y14l4hz4-fill-merged" stroke="none" fill="#f4f4f4" fill-opacity="1"><g><text style="font: bold 20px Roboto, sans-serif; white-space: pre;" transform="translate(118, 22)" font-weight="bold" font-size="20px" font-family="Roboto, sans-serif"><tspan x="-96.49" y="11.5" dominant-baseline="ideographic">ML Engine</tspan></text></g></g></g><g id="g-root-tx_pythonsc_1lt1ljm14l7ax5-fill" data-item-order="0" transform="translate(272, 818)"><g id="tx_pythonsc_1lt1ljm14l7ax5-fill-merged" stroke="none" fill="#2c2c2c" fill-opacity="1"><g><text style="font: 15px Roboto, sans-serif; white-space: pre;" transform="translate(82, 28)" font-size="15px" font-family="Roboto, sans-serif"><tspan x="-67.44" y="-0.5" dominant-baseline="ideographic">Python (scikit-learn, </tspan><tspan x="-54.61" y="17.5" dominant-baseline="ideographic">numpy, pandas)</tspan></text></g></g></g><g id="g-root-tx_servicei_1hf3ioi14l8o3p-fill" data-item-order="0" transform="translate(500, 806)"><g id="tx_servicei_1hf3ioi14l8o3p-fill-merged" stroke="none" fill="#2c2c2c" fill-opacity="1"><g><text style="font: 15px Roboto, sans-serif; white-space: pre;" transform="translate(82, 40)" font-size="15px" font-family="Roboto, sans-serif"><tspan x="-26.26" y="-9.5" dominant-baseline="ideographic">Service </tspan><tspan x="-65.49" y="8.5" dominant-baseline="ideographic">implementation for </tspan><tspan x="-63.51" y="26.5" dominant-baseline="ideographic">anomaly detection</tspan></text></g></g></g><g id="g-root-ic_goal_hvx0lu14l79cb-fill" data-item-order="0" transform="translate(548, 110)"></g><g id="g-root-ic_tech_4j7k2a14l4h6z-fill" data-item-order="0" transform="translate(320, 110)"></g><g id="g-root-tx_advanced_14153yq14l4ge9-fill" data-item-order="0" transform="translate(74, 908)"><g id="tx_advanced_14153yq14l4ge9-fill-merged" stroke="none" fill="#f4f4f4" fill-opacity="1"><g><text style="font: bold 20px Roboto, sans-serif; white-space: pre;" transform="translate(142, 34)" font-weight="bold" font-size="20px" font-family="Roboto, sans-serif"><tspan x="-124.38" y="-0.5" dominant-baseline="ideographic">Advanced ML </tspan><tspan x="-59.27" y="23.5" dominant-baseline="ideographic">Needs</tspan></text></g></g></g><g id="g-root-tx_vectorda_142e24y14l7a4i-fill" data-item-order="0" transform="translate(272, 902)"><g id="tx_vectorda_142e24y14l7a4i-fill-merged" stroke="none" fill="#2c2c2c" fill-opacity="1"><g><text style="font: 15px Roboto, sans-serif; white-space: pre;" transform="translate(82, 40)" font-size="15px" font-family="Roboto, sans-serif"><tspan x="-56.42" y="-9.5" dominant-baseline="ideographic">Vector database </tspan><tspan x="-66.66" y="8.5" dominant-baseline="ideographic">(Chroma, Pinecone, </tspan><tspan x="-43.66" y="26.5" dominant-baseline="ideographic">or Weaviate)</tspan></text></g></g></g><g id="g-root-tx_containe_1q7m5hu14l4gen-fill" data-item-order="0" transform="translate(50, 728)"><g id="tx_containe_1q7m5hu14l4gen-fill-merged" stroke="none" fill="#f4f4f4" fill-opacity="1"><g><text style="font: bold 20px Roboto, sans-serif; white-space: pre;" transform="translate(166, 22)" font-weight="bold" font-size="20px" font-family="Roboto, sans-serif"><tspan x="-150.45" y="11.5" dominant-baseline="ideographic">Containerization</tspan></text></g></g></g><g id="g-root-cp_1_g-1_1_18lbxoy14l3406-stroke" data-item-order="-656536" transform="translate(242, 86)"><g id="cp_1_g-1_1_18lbxoy14l3406-stroke" fill="none" stroke-linecap="round" stroke-linejoin="round" stroke-miterlimit="4" stroke="#2c2c2c" stroke-width="2" stroke-opacity="1"><g><path d="M 22 10C 15.373 10 10 15.373 10 22M 214 154L 214 22M 10 22L 10 154M 22 10L 202 10M 214 22C 214 15.3826 208.6174 10 202 10"></path></g></g></g><g id="g-root-cp_0_g-0_1_zqbej614l31n3-stroke" data-item-order="-656508" transform="translate(242, 230)"><g id="cp_0_g-0_1_zqbej614l31n3-stroke" fill="none" stroke-linecap="round" stroke-linejoin="round" stroke-miterlimit="4" stroke="#2c2c2c" stroke-width="2" stroke-opacity="1"><g><path d="M 10 754C 10 760.6274 15.3726 766 22 766M 202 766L 22 766M 202 766C 208.6274 766 214 760.6274 214 754M 214 10L 214 754M 10 754L 10 10M 214 10L 10 10"></path></g></g></g><g id="g-root-cp_1-1_cell-1-1_vahweq14l32fc-stroke" data-item-order="-656487" transform="translate(254, 242)"><g id="cp_1-1_cell-1-1_vahweq14l32fc-stroke" fill="none" stroke-linecap="round" stroke-linejoin="round" stroke-miterlimit="4" stroke="#f4f4f4" stroke-width="2" stroke-opacity="1"><g><path d="M 10 22L 10 16C 10 12.6863 12.6863 10 16 10L 22 10M 190 22L 190 58M 10 58L 10 22M 22 10L 178 10M 10 58L 10 64C 10 67.3137 12.6863 70 16 70L 22 70M 190 22L 190 16C 190 12.6863 187.3137 10 184 10L 178 10M 178 70L 22 70M 190 58L 190 64C 190 67.3137 187.3137 70 184 70L 178 70"></path></g></g></g><g id="g-root-cp_2-1_cell-2-1_quoeaa14l337l-stroke" data-item-order="-656469" transform="translate(254, 314)"><g id="cp_2-1_cell-2-1_quoeaa14l337l-stroke" fill="none" stroke-linecap="round" stroke-linejoin="round" stroke-miterlimit="4" stroke="#f4f4f4" stroke-width="2" stroke-opacity="1"><g><path d="M 10 22L 10 16C 10 12.6863 12.6863 10 16 10L 22 10M 190 22L 190 94M 10 94L 10 22M 22 10L 178 10M 10 94L 10 100C 10 103.3137 12.6863 106 16 106L 22 106M 190 22L 190 16C 190 12.6863 187.3137 10 184 10L 178 10M 178 106L 22 106M 190 94L 190 100C 190 103.3137 187.3137 106 184 106L 178 106"></path></g></g></g><g id="g-root-cp_3-1_cell-3-1_quoeaa14l337m-stroke" data-item-order="-656451" transform="translate(254, 422)"><g id="cp_3-1_cell-3-1_quoeaa14l337m-stroke" fill="none" stroke-linecap="round" stroke-linejoin="round" stroke-miterlimit="4" stroke="#f4f4f4" stroke-width="2" stroke-opacity="1"><g><path d="M 10 22L 10 16C 10 12.6863 12.6863 10 16 10L 22 10M 190 22L 190 94M 10 94L 10 22M 22 10L 178 10M 10 94L 10 100C 10 103.3137 12.6863 106 16 106L 22 106M 190 22L 190 16C 190 12.6863 187.3137 10 184 10L 178 10M 178 106L 22 106M 190 94L 190 100C 190 103.3137 187.3137 106 184 106L 178 106"></path></g></g></g><g id="g-root-cp_4-1_cell-4-1_hz1e1e14l340b-stroke" data-item-order="-656433" transform="translate(254, 530)"><g id="cp_4-1_cell-4-1_hz1e1e14l340b-stroke" fill="none" stroke-linecap="round" stroke-linejoin="round" stroke-miterlimit="4" stroke="#f4f4f4" stroke-width="2" stroke-opacity="1"><g><path d="M 10 22L 10 16C 10 12.6863 12.6863 10 16 10L 22 10M 190 22L 190 82M 10 82L 10 22M 22 10L 178 10M 10 82L 10 88C 10 91.3137 12.6863 94 16 94L 22 94M 190 22L 190 16C 190 12.6863 187.3137 10 184 10L 178 10M 178 94L 22 94M 190 82L 190 88C 190 91.3137 187.3137 94 184 94L 178 94"></path></g></g></g><g id="g-root-cp_5-1_cell-5-1_djud0214l31ms-stroke" data-item-order="-656415" transform="translate(254, 626)"><g id="cp_5-1_cell-5-1_djud0214l31ms-stroke" fill="none" stroke-linecap="round" stroke-linejoin="round" stroke-miterlimit="4" stroke="#f4f4f4" stroke-width="2" stroke-opacity="1"><g><path d="M 10 22L 10 16C 10 12.6863 12.6863 10 16 10L 22 10M 190 22L 190 58M 10 58L 10 22M 22 10L 178 10M 10 58L 10 64C 10 67.3137 12.6863 70 16 70L 22 70M 190 22L 190 16C 190 12.6863 187.3137 10 184 10L 178 10M 178 70L 22 70M 190 58L 190 64C 190 67.3137 187.3137 70 184 70L 178 70"></path></g></g></g><g id="g-root-cp_6-1_cell-6-1_djud0214l31mt-stroke" data-item-order="-656397" transform="translate(254, 698)"><g id="cp_6-1_cell-6-1_djud0214l31mt-stroke" fill="none" stroke-linecap="round" stroke-linejoin="round" stroke-miterlimit="4" stroke="#f4f4f4" stroke-width="2" stroke-opacity="1"><g><path d="M 10 22L 10 16C 10 12.6863 12.6863 10 16 10L 22 10M 190 22L 190 82M 10 82L 10 22M 22 10L 178 10M 10 82L 10 88C 10 91.3137 12.6863 94 16 94L 22 94M 190 22L 190 16C 190 12.6863 187.3137 10 184 10L 178 10M 178 94L 22 94M 190 82L 190 88C 190 91.3137 187.3137 94 184 94L 178 94"></path></g></g></g><g id="g-root-cp_7-1_cell-7-1_4o7cr614l32fi-stroke" data-item-order="-656379" transform="translate(254, 794)"><g id="cp_7-1_cell-7-1_4o7cr614l32fi-stroke" fill="none" stroke-linecap="round" stroke-linejoin="round" stroke-miterlimit="4" stroke="#f4f4f4" stroke-width="2" stroke-opacity="1"><g><path d="M 10 22L 10 16C 10 12.6863 12.6863 10 16 10L 22 10M 190 22L 190 82M 10 82L 10 22M 22 10L 178 10M 10 82L 10 88C 10 91.3137 12.6863 94 16 94L 22 94M 190 22L 190 16C 190 12.6863 187.3137 10 184 10L 178 10M 178 94L 22 94M 190 82L 190 88C 190 91.3137 187.3137 94 184 94L 178 94"></path></g></g></g><g id="g-root-cp_8-1_cell-8-1_4o7cr614l32fj-stroke" data-item-order="-656361" transform="translate(254, 890)"><g id="cp_8-1_cell-8-1_4o7cr614l32fj-stroke" fill="none" stroke-linecap="round" stroke-linejoin="round" stroke-miterlimit="4" stroke="#f4f4f4" stroke-width="2" stroke-opacity="1"><g><path d="M 10 22L 10 16C 10 12.6863 12.6863 10 16 10L 22 10M 190 22L 190 82M 10 82L 10 22M 22 10L 178 10M 10 82L 10 88C 10 91.3137 12.6863 94 16 94L 22 94M 190 22L 190 16C 190 12.6863 187.3137 10 184 10L 178 10M 178 94L 22 94M 190 82L 190 88C 190 91.3137 187.3137 94 184 94L 178 94"></path></g></g></g><g id="g-root-cp_1_g-1_2_8dumq14l337s-stroke" data-item-order="-656342" transform="translate(470, 86)"><g id="cp_1_g-1_2_8dumq14l337s-stroke" fill="none" stroke-linecap="round" stroke-linejoin="round" stroke-miterlimit="4" stroke="#2c2c2c" stroke-width="2" stroke-opacity="1"><g><path d="M 22 10C 15.373 10 10 15.373 10 22M 214 154L 214 22M 10 22L 10 154M 22 10L 202 10M 214 22C 214 15.3826 208.6174 10 202 10"></path></g></g></g><g id="g-root-cp_0_g-0_2_1utoehe14l33sx-stroke" data-item-order="-656312" transform="translate(470, 230)"><g id="cp_0_g-0_2_1utoehe14l33sx-stroke" fill="none" stroke-linecap="round" stroke-linejoin="round" stroke-miterlimit="4" stroke="#2c2c2c" stroke-width="2" stroke-opacity="1"><g><path d="M 10 754C 10 760.6274 15.3726 766 22 766M 202 766L 22 766M 202 766C 208.6274 766 214 760.6274 214 754M 214 10L 214 754M 10 754L 10 10M 214 10L 10 10"></path></g></g></g><g id="g-root-cp_1-2_cell-1-2_1ly1e8i14l34lm-stroke" data-item-order="-656291" transform="translate(482, 242)"><g id="cp_1-2_cell-1-2_1ly1e8i14l34lm-stroke" fill="none" stroke-linecap="round" stroke-linejoin="round" stroke-miterlimit="4" stroke="#f4f4f4" stroke-width="2" stroke-opacity="1"><g><path d="M 10 22L 10 16C 10 12.6863 12.6863 10 16 10L 22 10M 190 22L 190 58M 10 58L 10 22M 22 10L 178 10M 10 58L 10 64C 10 67.3137 12.6863 70 16 70L 22 70M 190 22L 190 16C 190 12.6863 187.3137 10 184 10L 178 10M 178 70L 22 70M 190 58L 190 64C 190 67.3137 187.3137 70 184 70L 178 70"></path></g></g></g><g id="g-root-cp_2-2_cell-2-2_1hiud7614l3283-stroke" data-item-order="-656273" transform="translate(482, 314)"><g id="cp_2-2_cell-2-2_1hiud7614l3283-stroke" fill="none" stroke-linecap="round" stroke-linejoin="round" stroke-miterlimit="4" stroke="#f4f4f4" stroke-width="2" stroke-opacity="1"><g><path d="M 10 22L 10 16C 10 12.6863 12.6863 10 16 10L 22 10M 190 22L 190 94M 10 94L 10 22M 22 10L 178 10M 10 94L 10 100C 10 103.3137 12.6863 106 16 106L 22 106M 190 22L 190 16C 190 12.6863 187.3137 10 184 10L 178 10M 178 106L 22 106M 190 94L 190 100C 190 103.3137 187.3137 106 184 106L 178 106"></path></g></g></g><g id="g-root-cp_3-2_cell-3-2_1hiud7614l3284-stroke" data-item-order="-656255" transform="translate(482, 422)"><g id="cp_3-2_cell-3-2_1hiud7614l3284-stroke" fill="none" stroke-linecap="round" stroke-linejoin="round" stroke-miterlimit="4" stroke="#f4f4f4" stroke-width="2" stroke-opacity="1"><g><path d="M 10 22L 10 16C 10 12.6863 12.6863 10 16 10L 22 10M 190 22L 190 94M 10 94L 10 22M 22 10L 178 10M 10 94L 10 100C 10 103.3137 12.6863 106 16 106L 22 106M 190 22L 190 16C 190 12.6863 187.3137 10 184 10L 178 10M 178 106L 22 106M 190 94L 190 100C 190 103.3137 187.3137 106 184 106L 178 106"></path></g></g></g><g id="g-root-cp_4-2_cell-4-2_18n7cya14l330t-stroke" data-item-order="-656237" transform="translate(482, 530)"><g id="cp_4-2_cell-4-2_18n7cya14l330t-stroke" fill="none" stroke-linecap="round" stroke-linejoin="round" stroke-miterlimit="4" stroke="#f4f4f4" stroke-width="2" stroke-opacity="1"><g><path d="M 10 22L 10 16C 10 12.6863 12.6863 10 16 10L 22 10M 190 22L 190 82M 10 82L 10 22M 22 10L 178 10M 10 82L 10 88C 10 91.3137 12.6863 94 16 94L 22 94M 190 22L 190 16C 190 12.6863 187.3137 10 184 10L 178 10M 178 94L 22 94M 190 82L 190 88C 190 91.3137 187.3137 94 184 94L 178 94"></path></g></g></g><g id="g-root-cp_5-2_cell-5-2_18n7cya14l330u-stroke" data-item-order="-656219" transform="translate(482, 626)"><g id="cp_5-2_cell-5-2_18n7cya14l330u-stroke" fill="none" stroke-linecap="round" stroke-linejoin="round" stroke-miterlimit="4" stroke="#f4f4f4" stroke-width="2" stroke-opacity="1"><g><path d="M 10 22L 10 16C 10 12.6863 12.6863 10 16 10L 22 10M 190 22L 190 58M 10 58L 10 22M 22 10L 178 10M 10 58L 10 64C 10 67.3137 12.6863 70 16 70L 22 70M 190 22L 190 16C 190 12.6863 187.3137 10 184 10L 178 10M 178 70L 22 70M 190 58L 190 64C 190 67.3137 187.3137 70 184 70L 178 70"></path></g></g></g><g id="g-root-cp_6-2_cell-6-2_147dutu14l33t3-stroke" data-item-order="-656201" transform="translate(482, 698)"><g id="cp_6-2_cell-6-2_147dutu14l33t3-stroke" fill="none" stroke-linecap="round" stroke-linejoin="round" stroke-miterlimit="4" stroke="#f4f4f4" stroke-width="2" stroke-opacity="1"><g><path d="M 10 22L 10 16C 10 12.6863 12.6863 10 16 10L 22 10M 190 22L 190 82M 10 82L 10 22M 22 10L 178 10M 10 82L 10 88C 10 91.3137 12.6863 94 16 94L 22 94M 190 22L 190 16C 190 12.6863 187.3137 10 184 10L 178 10M 178 94L 22 94M 190 82L 190 88C 190 91.3137 187.3137 94 184 94L 178 94"></path></g></g></g><g id="g-root-cp_7-2_cell-7-2_zrkcpe14l34lc-stroke" data-item-order="-656183" transform="translate(482, 794)"><g id="cp_7-2_cell-7-2_zrkcpe14l34lc-stroke" fill="none" stroke-linecap="round" stroke-linejoin="round" stroke-miterlimit="4" stroke="#f4f4f4" stroke-width="2" stroke-opacity="1"><g><path d="M 10 22L 10 16C 10 12.6863 12.6863 10 16 10L 22 10M 190 22L 190 82M 10 82L 10 22M 22 10L 178 10M 10 82L 10 88C 10 91.3137 12.6863 94 16 94L 22 94M 190 22L 190 16C 190 12.6863 187.3137 10 184 10L 178 10M 178 94L 22 94M 190 82L 190 88C 190 91.3137 187.3137 94 184 94L 178 94"></path></g></g></g><g id="g-root-cp_8-2_cell-8-2_zrkcpe14l34ld-stroke" data-item-order="-656165" transform="translate(482, 890)"><g id="cp_8-2_cell-8-2_zrkcpe14l34ld-stroke" fill="none" stroke-linecap="round" stroke-linejoin="round" stroke-miterlimit="4" stroke="#f4f4f4" stroke-width="2" stroke-opacity="1"><g><path d="M 10 22L 10 16C 10 12.6863 12.6863 10 16 10L 22 10M 190 22L 190 82M 10 82L 10 22M 22 10L 178 10M 10 82L 10 88C 10 91.3137 12.6863 94 16 94L 22 94M 190 22L 190 16C 190 12.6863 187.3137 10 184 10L 178 10M 178 94L 22 94M 190 82L 190 88C 190 91.3137 187.3137 94 184 94L 178 94"></path></g></g></g><g id="g-root-tx_caching_1ha3pzm14l4iys-stroke" data-item-order="0" transform="translate(122, 458)"></g><g id="g-root-tx_rediscom_1hbz58y14l79j9-stroke" data-item-order="0" transform="translate(284, 458)"></g><g id="g-root-tx_performa_mb41n614l8pvl-stroke" data-item-order="0" transform="translate(512, 434)"></g><g id="g-root-tx_structur_141rl1u14l8qo8-stroke" data-item-order="0" transform="translate(512, 326)"></g><g id="g-root-tx_postgres_8x5mxe14l79qc-stroke" data-item-order="0" transform="translate(290, 344)"></g><g id="g-root-tx_ingestio_qnt6c214l4iyt-stroke" data-item-order="0" transform="translate(110, 548)"></g><g id="g-root-tx_opentele_140imvm14l7b46-stroke" data-item-order="0" transform="translate(284, 554)"></g><g id="g-root-tx_universa_90a0cy14l8oaq-stroke" data-item-order="0" transform="translate(500, 542)"></g><g id="g-root-tx_database_1ulk8cy14l4hdv-stroke" data-item-order="0" transform="translate(38, 350)"></g><g id="g-root-tx_realtime_1lt1ljm14l8ob3-stroke" data-item-order="0" transform="translate(500, 254)"></g><g id="g-root-tx_bigdatas_4hc4sy14l4i6m-stroke" data-item-order="0" transform="translate(50, 644)"></g><g id="g-root-tx_elastics_hu1lci14l7abz-stroke" data-item-order="0" transform="translate(284, 638)"></g><g id="g-root-tx_fulltext_4n04214l8p3f-stroke" data-item-order="0" transform="translate(500, 638)"></g><g id="g-root-tx_apacheka_qnt6c214l7aiz-stroke" data-item-order="0" transform="translate(290, 260)"></g><g id="g-root-tx_streamin_qwjtjm14l328a-stroke" data-item-order="0" transform="translate(38, 260)"></g><g id="g-root-tx_required_18jgifm14l8owe-stroke" data-item-order="0" transform="translate(494, 902)"></g><g id="g-root-tx_dockerco_3e1xu14l79jc-stroke" data-item-order="0" transform="translate(278, 728)"></g><g id="g-root-tx_producti_1luajpu14l8qh8-stroke" data-item-order="0" transform="translate(506, 710)"></g><g id="g-root-tx_purposea_de838214l8oi6-stroke" data-item-order="0" transform="translate(506, 170)"></g><g id="g-root-tx_technolo_1ha3pzm14l7aiy-stroke" data-item-order="0" transform="translate(284, 170)"></g><g id="g-root-tx_mlengine_1hbz58y14l4hz4-stroke" data-item-order="0" transform="translate(98, 824)"></g><g id="g-root-tx_pythonsc_1lt1ljm14l7ax5-stroke" data-item-order="0" transform="translate(272, 818)"></g><g id="g-root-tx_servicei_1hf3ioi14l8o3p-stroke" data-item-order="0" transform="translate(500, 806)"></g><g id="g-root-ic_goal_hvx0lu14l79cb-stroke" data-item-order="0" transform="translate(548, 110)"><g id="ic_goal_hvx0lu14l79cb-stroke" fill="none" stroke-linecap="round" stroke-linejoin="round" stroke-miterlimit="4" stroke="#2c2c2c" stroke-width="2" stroke-opacity="1"><g><path d="M 39 53.18L 39 56M 49 57C 49 51.477154 44.522846 47 39 47C 33.477154 47 29 51.477154 29 57M 32 37C 32 40.865997 35.13401 44 39 44C 42.865993 44 46 40.865997 46 37C 46 33.13401 42.865993 30.000002 39 30.000002C 35.13401 30.000002 32 33.13401 32 37M 25.1 53.84C 23.107313 52.595531 20.68919 52.229122 18.41728 52.827393C 16.145369 53.425663 14.221328 54.935509 13.1 57M 15.38 40.98C 18.250408 43.91003 22.619005 44.790092 26.4 43.200001M 14.559999 44C 14.56 47.280575 17.219429 49.940002 20.5 49.940002C 23.780571 49.940002 26.440001 47.280575 26.440001 44C 26.440001 40.719429 23.780571 38.060001 20.5 38.060001C 17.219429 38.060001 14.56 40.719429 14.56 44M 55 57L 55 11M 55 11L 43 11C 41.895432 11 41 11.895431 41 13L 41 19C 41 20.104568 41.895432 21 43 21L 55 21M 41 15L 28 15L 33 20L 28 25L 43 25C 44.104568 25 45 24.104568 45 23L 45 21M 33.400002 32.799999C 35.477036 34.790741 38.223797 35.932251 41.099998 36C 42.693016 36.00816 44.275742 35.74437 45.780003 35.220001"></path></g></g></g><g id="g-root-ic_tech_4j7k2a14l4h6z-stroke" data-item-order="0" transform="translate(320, 110)"><g id="ic_tech_4j7k2a14l4h6z-stroke" fill="none" stroke-linecap="round" stroke-linejoin="round" stroke-miterlimit="4" stroke="#2c2c2c" stroke-width="2" stroke-opacity="1"><g><path d="M 21 49L 47 49C 47 49 49 49 49 51L 49 55C 49 55 49 57 47 57L 21 57C 21 57 19 57 19 55L 19 51C 19 51 19 49 21 49M 23 49L 23 43M 45 49L 45 43M 23 53L 25 53M 29 53L 31 53M 34 22.5C 34.276142 22.5 34.5 22.723858 34.5 23C 34.5 23.276142 34.276142 23.5 34 23.5C 33.723858 23.5 33.5 23.276142 33.5 23C 33.5 22.723858 33.723858 22.5 34 22.5M 31 11L 37 11C 37 11 39 11 39 13L 39 25C 39 25 39 27 37 27L 31 27C 31 27 29 27 29 25L 29 13C 29 13 29 11 31 11M 47 17L 53 17C 54.104568 17 55 17.895432 55 19L 55 25L 55 25L 45 25L 45 25L 45 19C 45 17.895432 45.895432 17 47 17ZM 55.382 31C 55.942566 30.999235 56.462902 30.708723 56.757694 30.231926C 57.052486 29.755129 57.079834 29.159817 56.829998 28.657999L 55 25L 45 25L 43.169998 28.658001C 42.920166 29.159817 42.947514 29.755129 43.242306 30.231926C 43.537098 30.708723 44.05743 30.999235 44.618 31ZM 13 17L 23 17C 23 17 25 17 25 19L 25 25C 25 25 25 27 23 27L 13 27C 13 27 11 27 11 25L 11 19C 11 19 11 17 13 17M 13 31L 23 31M 15 31L 16 27M 21 31L 20 27M 41.209999 37.183998C 36.843815 34.273853 31.156187 34.273853 26.790001 37.184002M 39 41.512001C 35.977043 39.496872 32.038956 39.496872 29.016001 41.512001"></path></g></g></g><g id="g-root-tx_advanced_14153yq14l4ge9-stroke" data-item-order="0" transform="translate(74, 908)"></g><g id="g-root-tx_vectorda_142e24y14l7a4i-stroke" data-item-order="0" transform="translate(272, 902)"></g><g id="g-root-tx_containe_1q7m5hu14l4gen-stroke" data-item-order="0" transform="translate(50, 728)"></g></g></g></svg>